<?xml version="1.0"?>
<svg width="980.49384" height="751.89531" xmlns="http://www.w3.org/2000/svg" xmlns:svg="http://www.w3.org/2000/svg" xmlns:xlink="http://www.w3.org/1999/xlink" data-name="Layer 1">
 <title>nakamoto</title>
 <defs>
  <symbol height="32" id="svg_55" viewBox="0 0 32 32" width="32" xmlns="http://www.w3.org/2000/svg">
   <g fill="none">
    <circle cx="16" cy="16" fill="#6F41D8" r="16"/>
    <path d="m21.09,12.69c-0.37,-0.21 -0.85,-0.21 -1.25,0l-2.88,1.66l-1.96,1.07l-2.88,1.66c-0.36,0.21 -0.84,0.21 -1.25,0l-2.29,-1.3c-0.37,-0.21 -0.62,-0.61 -0.62,-1.04l0,-2.55c0,-0.43 0.22,-0.83 0.62,-1.04l2.25,-1.26c0.37,-0.22 0.85,-0.22 1.26,0l2.25,1.26c0.37,0.21 0.63,0.61 0.63,1.04l0,1.65l1.95,-1.11l0,-1.65a1.16,1.16 0 0 0 -0.63,-1.05l-4.17,-2.37c-0.36,-0.21 -0.84,-0.21 -1.25,0l-4.24,2.37a1.16,1.16 0 0 0 -0.63,1.05l0,4.78c0,0.43 0.22,0.82 0.63,1.04l4.24,2.37c0.37,0.22 0.85,0.22 1.25,0l2.88,-1.62l1.96,-1.11l2.88,-1.62c0.37,-0.21 0.85,-0.21 1.25,0l2.25,1.26c0.37,0.21 0.63,0.61 0.63,1.04l0,2.55c0,0.44 -0.22,0.83 -0.63,1.05l-2.25,1.29c-0.37,0.22 -0.85,0.22 -1.25,0l-2.25,-1.26c-0.37,-0.21 -0.63,-0.61 -0.63,-1.04l0,-1.65l-1.96,1.11l0,1.65c0,0.44 0.22,0.83 0.63,1.05l4.25,2.37c0.36,0.21 0.84,0.21 1.25,0l4.24,-2.37c0.37,-0.22 0.63,-0.61 0.63,-1.05l0,-4.78a1.16,1.16 0 0 0 -0.63,-1.04l-4.28,-2.41z" fill="#FFF"/>
   </g>
  </symbol>
  <symbol enable-background="new 0 0 1242 962" id="svg_80" version="1" viewBox="0 0 1242 962" x="0px" xml:space="preserve" xmlns="http://www.w3.org/2000/svg" xmlns:xlink="http://www.w3.org/1999/xlink" y="0px">
   <style type="text/css">.st0{fill:#627EEA;}
	.st1{fill:#FFFFFF;fill-opacity:0.602;}
	.st2{fill:#FFFFFF;}
	.st3{fill:#FFFFFF;fill-opacity:0.2;}</style>
   <desc>Created with Sketch.</desc>
   <g id="svg_65">
    <g id="svg_66" transform="translate(-1008.000000, -2285.000000)">
     <g id="svg_67" transform="translate(382.000000, 2270.799999)">
      <g id="svg_68" transform="translate(0.000000, 0.200001)">
       <g id="svg_69" transform="translate(0.000000, 14.000000)">
        <g id="svg_70">
         <g id="svg_71" transform="translate(626.400000, 0.000000)">
          <g id="svg_73">
           <circle class="st0" cx="620.8" cy="481.5" id="svg_79" r="365.8"/>
           <polygon class="st1" id="svg_78" points="632.2,207.1 632.2,409.9 803.6,486.5         "/>
           <polygon class="st2" id="svg_77" points="632.2,207.1 460.8,486.5 632.2,409.9         "/>
           <polygon class="st1" id="svg_76" points="632.2,617.9 632.2,755.7 803.7,518.4         "/>
           <polygon class="st2" id="svg_75" points="632.2,755.7 632.2,617.9 460.8,518.4         "/>
           <polygon class="st3" id="svg_74" points="632.2,586 803.6,486.5 632.2,409.9         "/>
          </g>
          <polygon class="st1" id="svg_72" points="460.8,486.5 632.2,586 632.2,409.9        "/>
         </g>
        </g>
       </g>
      </g>
     </g>
    </g>
   </g>
  </symbol>
 </defs>
 <g class="layer">
  <title>Layer 1</title>
  <rect fill="#3f3d56" height="107" id="svg_1" width="2" x="313.49" y="117"/>
  <rect fill="#3f3d56" height="94.15" id="svg_2" width="2" x="313.49" y="255.85"/>
  <rect fill="#3f3d56" height="2" id="svg_3" width="155" x="310.49" y="365"/>
  <rect fill="#3f3d56" height="85" id="svg_4" width="2" x="244.49" y="392"/>
  <rect fill="#3f3d56" height="2" id="svg_5" width="235" x="262.49" y="492"/>
  <path d="m623.25,551.05" fill="none" id="svg_6" stroke="#3f3d56" stroke-miterlimit="10" stroke-width="2" transform="translate(-109.75308 -74.05234)"/>
  <path d="m623.25,469.05" fill="none" id="svg_7" stroke="#3f3d56" stroke-miterlimit="10" stroke-width="2" transform="translate(-109.75308 -74.05234)"/>
  <rect fill="#3f3d56" height="101" id="svg_8" width="2" x="691.49" y="49"/>
  <rect fill="#3f3d56" height="2" id="svg_9" width="147.03" x="529.46" y="166"/>
  <rect fill="#3f3d56" height="135" id="svg_10" width="2" x="512.49" y="182"/>
  <path d="m424.25,331.05a17,17 0 1 1 17,-17a17.02,17.02 0 0 1 -17,17zm0,-32a15,15 0 1 0 15,15a15.02,15.02 0 0 0 -15,-15z" fill="#3f3d56" id="svg_11" transform="translate(-109.75308 -74.05234)"/>
  <path d="m356.25,584.05a17,17 0 1 1 17,-17a17.02,17.02 0 0 1 -17,17zm0,-32a15,15 0 1 0 15,15a15.02,15.02 0 0 0 -15,-15z" fill="#3f3d56" id="svg_12" transform="translate(-109.75308 -74.05234)"/>
  <circle cx="315.49" cy="366" fill="#6c63ff" id="svg_13" r="16"/>
  <rect fill="#3f3d56" height="2" id="svg_14" width="166" x="728.49" y="239"/>
  <rect fill="#3f3d56" height="94.15" id="svg_15" width="2" x="711.49" y="255.85"/>
  <rect fill="#3f3d56" height="2" id="svg_16" width="133" x="562.49" y="365"/>
  <rect fill="#3f3d56" height="2" id="svg_17" width="138" x="796.49" y="374"/>
  <rect fill="#3f3d56" height="85" id="svg_18" width="2" x="780.49" y="392"/>
  <rect fill="#3f3d56" height="2" id="svg_19" width="235" x="529.49" y="492"/>
  <rect fill="#3f3d56" height="62" id="svg_20" width="2" x="512.49" y="415"/>
  <circle cx="712.49" cy="240" fill="#6c63ff" id="svg_21" r="16"/>
  <path d="m802.25,257.05a17,17 0 1 1 17,-17a17.02,17.02 0 0 1 -17,17zm0,-32a15,15 0 1 0 15,15a15.02,15.02 0 0 0 -15,-15z" fill="#3f3d56" id="svg_22" transform="translate(-109.75308 -74.05234)"/>
  <path d="m623.25,257.05a17,17 0 1 1 17,-17a17.02,17.02 0 0 1 -17,17zm0,-32a15,15 0 1 0 15,15a15.02,15.02 0 0 0 -15,-15z" fill="#3f3d56" id="svg_23" transform="translate(-109.75308 -74.05234)"/>
  <path d="m780.5,393a17,17 0 1 1 17,-17a17.02,17.02 0 0 1 -17,17zm0,-32a15,15 0 1 0 15,15a15.02,15.02 0 0 0 -15,-15z" fill="#3f3d56" id="svg_24"/>
  <circle cx="780.49" cy="493" fill="#6c63ff" id="svg_25" r="16"/>
  <path d="m623.25,584.05a17,17 0 1 1 17,-17a17.02,17.02 0 0 1 -17,17zm0,-32a15,15 0 1 0 15,15a15.02,15.02 0 0 0 -15,-15z" fill="#3f3d56" id="svg_26" transform="translate(-109.75308 -74.05234)"/>
  <path d="m821.25,457.05a17,17 0 1 1 17,-17a17.02,17.02 0 0 1 -17,17zm0,-32a15,15 0 1 0 15,15a15.02,15.02 0 0 0 -15,-15z" fill="#3f3d56" id="svg_27" transform="translate(-109.75308 -74.05234)"/>
  <path d="m356.25,416.05a20,20 0 1 0 20,20a20.06,20.06 0 0 0 -20,-20zm0,6a6,6 0 1 1 -6,6a6.02,6.02 0 0 1 6,-6zm0,28.89a14.57,14.57 0 0 1 -12,-6.41c0.09,-4 8,-6.2 12,-6.2s11.9,2.2 12,6.2a14.59,14.59 0 0 1 -12,6.41z" fill="#3f3d56" id="svg_28" transform="translate(-109.75308 -74.05234)"/>
  <path d="m425.25,143.05a20,20 0 1 0 20,20a20.06,20.06 0 0 0 -20,-20zm0,6a6,6 0 1 1 -6,6a6.02,6.02 0 0 1 6,-6zm0,28.89a14.57,14.57 0 0 1 -12,-6.41c0.09,-4 8,-6.2 12,-6.2s11.9,2.2 12,6.2a14.59,14.59 0 0 1 -12,6.41z" fill="#3f3d56" id="svg_29" transform="translate(-109.75308 -74.05234)"/>
  <path d="m802.25,74.05a20,20 0 1 0 20,20a20.06,20.06 0 0 0 -20,-20zm0,6a6,6 0 1 1 -6,6a6.02,6.02 0 0 1 6,-6zm0,28.89a14.57,14.57 0 0 1 -12,-6.41c0.09,-4 8,-6.2 12,-6.2s11.9,2.2 12,6.2a14.59,14.59 0 0 1 -12,6.41z" fill="#3f3d56" id="svg_30" transform="translate(-109.75308 -74.05234)"/>
  <path d="m1032.25,293.05a20,20 0 1 0 20,20a20.06,20.06 0 0 0 -20,-20zm0,6a6,6 0 1 1 -6,6a6.02,6.02 0 0 1 6,-6zm0,28.89a14.57,14.57 0 0 1 -12,-6.41c0.09,-4 8,-6.2 12,-6.2s11.9,2.2 12,6.2a14.59,14.59 0 0 1 -12,6.41z" fill="#3f3d56" id="svg_31" transform="translate(-109.75308 -74.05234)"/>
  <path d="m1070.25,428.05a20,20 0 1 0 20,20a20.06,20.06 0 0 0 -20,-20zm0,6a6,6 0 1 1 -6,6a6.02,6.02 0 0 1 6,-6zm0,28.89a14.57,14.57 0 0 1 -12,-6.41c0.09,-4 8,-6.2 12,-6.2s11.9,2.2 12,6.2a14.59,14.59 0 0 1 -12,6.41z" fill="#3f3d56" id="svg_32" transform="translate(-109.75308 -74.05234)"/>
  <path d="m261.75,807.35c-2.84,25.87 -152.22,23.7 -152,-0.01c2.85,-25.87 152.23,-23.7 152,0.01z" fill="#e6e6e6" id="svg_36" transform="translate(-109.75308 -74.05234)"/>
  <polygon fill="#ffb8b8" id="svg_37" points="103.754 668.156 109.81 681.276 120.911 680.267 127.976 657.054 116.874 650.999 103.754 668.156"/>
  <polygon fill="#ffb8b8" id="svg_38" points="65.642 698.373 65.403 707.516 82.56 708.525 82.56 697.424 65.642 698.373"/>
  <polygon fill="#2f2e41" id="svg_39" points="71.458 531.908 75.495 612.647 65.403 700.451 95.68 704.488 114.856 593.472 120.911 517.778 71.458 531.908"/>
  <path d="m133.78,576.69s-12.11,79.73 13.12,105.97s59.54,72.67 59.54,72.67l24.22,-30.28l-61.56,-65.6l12.11,-44.41l49.45,-23.21l-8.07,-55.51l-72.67,-1.01l-16.14,41.38z" fill="#2f2e41" id="svg_40" transform="translate(-109.75308 -74.05234)"/>
  <circle cx="83.57" cy="295.74" fill="#ffb8b8" id="svg_41" r="22.2"/>
  <path d="m174.15,374.84s-1.01,31.29 -6.06,35.33s18.17,21.19 18.17,21.19l15.14,-24.22l0,-22.2l-27.25,-10.1z" fill="#ffb8b8" id="svg_42" transform="translate(-109.75308 -74.05234)"/>
  <polygon fill="#d0cde1" id="svg_43" points="74.486 343.179 62.233 324.677 55.31 334.096 45.218 362.355 53.292 472.362 100.726 473.371 106.782 347.216 91.643 329.05 74.486 343.179"/>
  <path d="m235.71,424.3l8.07,-1.01s2.02,1.01 3.03,8.07s13.12,69.64 13.12,69.64l-16.15,76.7l-18.16,-24.22l11.1,-42.39l-11.1,-42.39l10.09,-44.4z" fill="#2f2e41" id="svg_44" transform="translate(-109.75308 -74.05234)"/>
  <polygon fill="#2f2e41" id="svg_45" points="23.015 349.234 16.959 349.234 1.821 430.983 15.95 494.566 30.079 471.353 26.042 446.122 28.061 423.919 35.126 410.798 23.015 349.234"/>
  <path d="m222.59,751.29s-6.05,-2.02 -6.05,2.02s4.03,16.15 4.03,16.15s-6.05,37.34 3.03,35.32s16.15,-19.17 17.16,-24.22s6.05,-31.29 6.05,-31.29s8.08,-19.17 3.03,-20.18s-19.18,-5.05 -19.18,-5.05s8.08,25.23 -8.07,27.25z" fill="#2f2e41" id="svg_46" transform="translate(-109.75308 -74.05234)"/>
  <path d="m193.32,782.58s-16.15,-10.09 -19.17,-2.02a84.8,84.8 0 0 0 -4.04,18.17s-4.04,13.12 12.11,11.1s14.13,-2.02 15.14,-8.08s-4.04,-19.17 -4.04,-19.17z" fill="#2f2e41" id="svg_47" transform="translate(-109.75308 -74.05234)"/>
  <path d="m180.2,369.8l4.04,-1.01s3.03,-17.16 10.09,-15.14s25.23,4.04 25.23,-4.04s-17.15,-15.14 -27.25,-14.13s-27.25,4.04 -26.24,19.18s7.52,29.86 7.52,29.86l0.53,-8.97l6.08,-5.75z" fill="#2f2e41" id="svg_48" transform="translate(-109.75308 -74.05234)"/>
  <polygon fill="#d0cde1" id="svg_49" points="91.643 355.29 74.486 343.179 91.643 329.05 97.6 336.197 91.643 355.29"/>
  <polygon fill="#d0cde1" id="svg_50" points="59.347 354.281 74.486 343.179 62.375 325.013 55.31 334.096 59.347 354.281"/>
  <path d="m242.78,423.29l-32.3,-13.12l-7.57,-5.55l-22.71,100.42l-15.14,-45.42l4.55,-58.03l-41.89,21.7l14.13,68.63l2.02,26.24l-6.06,21.19s-21.19,15.14 -14.13,31.29s15.14,17.15 15.14,17.15s34.32,-32.29 36.34,-40.37s5.04,-22.2 5.04,-22.2s17.16,64.59 37.34,63.58s20.19,-22.2 20.19,-22.2l-5.05,-22.2l-8.07,-23.22l4.04,-38.35l14.13,-59.54z" fill="#2f2e41" id="svg_51" transform="translate(-109.75308 -74.05234)"/>
  <use id="svg_56" transform="matrix(2.17227 0 0 2.17227 176.77 117.952)" x="146.06" xlink:href="#svg_55" y="105.93"/>
  <use id="svg_81" transform="matrix(0.124358 0 0 0.124358 201.94 141.499)" x="1885.98" xlink:href="#svg_80" y="1295.81"/>
 </g>
</svg>