<?xml version="1.0"?>
<svg width="917.13751" height="601.20212" xmlns="http://www.w3.org/2000/svg" xmlns:svg="http://www.w3.org/2000/svg" data-name="Layer 1">
 <!-- Created with SVG-edit - https://github.com/SVG-Edit/svgedit-->
 <g class="layer">
  <title>Layer 1</title>
  <path d="m241.46,144.9a7.01,7.01 0 0 0 -7,7l0,296a7.01,7.01 0 0 0 7,7l434,0a7.01,7.01 0 0 0 7,-7l0,-296a7.01,7.01 0 0 0 -7,-7l-434,0z" fill="#e6e6e6" id="svg_5"/>
  <path d="m251.46,154.9a7.01,7.01 0 0 0 -7,7l0,276a7.01,7.01 0 0 0 7,7l414,0a7.01,7.01 0 0 0 7,-7l0,-276a7.01,7.01 0 0 0 -7,-7l-414,0z" fill="#fff" id="svg_4"/>
  <path d="m633.44,215.25c-9.52,-3.71 -19.78,5.61 -22.01,15.58c-2.23,9.98 0.62,20.29 1.25,30.49s-2.04,22.05 -11.15,26.7c-10.46,5.35 -22.74,-1.61 -34.44,-2.67a34.66,34.66 0 0 0 -30.53,13.83c-9.65,13.25 -9.16,32.48 -20.58,44.23c-9.93,10.21 -26.1,11.54 -39.99,8.38s-26.64,-10.02 -40.3,-14.06s-29.45,-4.89 -41.15,3.23c-12.21,8.47 -17.65,25.08 -31.06,31.49c-9.48,4.54 -20.7,2.81 -30.84,0.06c-10.15,-2.75 -20.38,-6.45 -30.85,-5.57c-10.48,0.88 -21.4,8.11 -22.23,18.59l359.47,-1.01q2.45,-71.17 4.89,-142.34c0.36,-10.3 -0.87,-23.18 -10.48,-26.93z" fill="#6c63ff" id="svg_3" opacity="0.1"/>
  <path d="m277.85,384.36a2,2 0 1 1 0,-4c92.41,0 180.55,-18.51 248.17,-52.11c63.4,-31.5 103.81,-74.23 110.85,-117.22a2,2 0 1 1 3.95,0.65l0,0c-3.66,22.33 -15.54,44.24 -35.3,65.11c-19.49,20.58 -45.64,39.1 -77.72,55.05c-68.17,33.87 -156.93,52.52 -249.95,52.52z" fill="#6c63ff" id="svg_2"/>
  <polygon fill="#e6e6e6" id="svg_1" points="657.4617462158203,384.75982666015625 275.4617462158203,384.75982666015625 275.4617462158203,196.03182983398438 277.4617462158203,196.03182983398438 277.4617462158203,382.75982666015625 657.4617462158203,382.75982666015625 657.4617462158203,384.75982666015625 "/>
 </g>
</svg>