<?xml version="1.0"?>
<svg width="980.49384" height="751.89531" xmlns="http://www.w3.org/2000/svg" xmlns:svg="http://www.w3.org/2000/svg" xmlns:xlink="http://www.w3.org/1999/xlink" data-name="Layer 1">
 <title>nakamoto</title>
 <defs>
  <symbol height="32" id="svg_55" viewBox="0 0 32 32" width="32" xmlns="http://www.w3.org/2000/svg">
   <g fill="none">
    <circle cx="16" cy="16" fill="#6F41D8" r="16"/>
    <path d="m21.09,12.69c-0.37,-0.21 -0.85,-0.21 -1.25,0l-2.88,1.66l-1.96,1.07l-2.88,1.66c-0.36,0.21 -0.84,0.21 -1.25,0l-2.29,-1.3c-0.37,-0.21 -0.62,-0.61 -0.62,-1.04l0,-2.55c0,-0.43 0.22,-0.83 0.62,-1.04l2.25,-1.26c0.37,-0.22 0.85,-0.22 1.26,0l2.25,1.26c0.37,0.21 0.63,0.61 0.63,1.04l0,1.65l1.95,-1.11l0,-1.65a1.16,1.16 0 0 0 -0.63,-1.05l-4.17,-2.37c-0.36,-0.21 -0.84,-0.21 -1.25,0l-4.24,2.37a1.16,1.16 0 0 0 -0.63,1.05l0,4.78c0,0.43 0.22,0.82 0.63,1.04l4.24,2.37c0.37,0.22 0.85,0.22 1.25,0l2.88,-1.62l1.96,-1.11l2.88,-1.62c0.37,-0.21 0.85,-0.21 1.25,0l2.25,1.26c0.37,0.21 0.63,0.61 0.63,1.04l0,2.55c0,0.44 -0.22,0.83 -0.63,1.05l-2.25,1.29c-0.37,0.22 -0.85,0.22 -1.25,0l-2.25,-1.26c-0.37,-0.21 -0.63,-0.61 -0.63,-1.04l0,-1.65l-1.96,1.11l0,1.65c0,0.44 0.22,0.83 0.63,1.05l4.25,2.37c0.36,0.21 0.84,0.21 1.25,0l4.24,-2.37c0.37,-0.22 0.63,-0.61 0.63,-1.05l0,-4.78a1.16,1.16 0 0 0 -0.63,-1.04l-4.28,-2.41z" fill="#FFF"/>
   </g>
  </symbol>
  <symbol enable-background="new 0 0 1242 962" id="svg_80" version="1" viewBox="0 0 1242 962" x="0px" xml:space="preserve" xmlns="http://www.w3.org/2000/svg" xmlns:xlink="http://www.w3.org/1999/xlink" y="0px">
   <style type="text/css">.st0{fill:#627EEA;}
	.st1{fill:#FFFFFF;fill-opacity:0.602;}
	.st2{fill:#FFFFFF;}
	.st3{fill:#FFFFFF;fill-opacity:0.2;}</style>
   <desc>Created with Sketch.</desc>
   <g id="svg_65">
    <g id="svg_66" transform="translate(-1008.000000, -2285.000000)">
     <g id="svg_67" transform="translate(382.000000, 2270.799999)">
      <g id="svg_68" transform="translate(0.000000, 0.200001)">
       <g id="svg_69" transform="translate(0.000000, 14.000000)">
        <g id="svg_70">
         <g id="svg_71" transform="translate(626.400000, 0.000000)">
          <g id="svg_73">
           <circle class="st0" cx="620.8" cy="481.5" id="svg_79" r="365.8"/>
           <polygon class="st1" id="svg_78" points="632.2,207.1 632.2,409.9 803.6,486.5         "/>
           <polygon class="st2" id="svg_77" points="632.2,207.1 460.8,486.5 632.2,409.9         "/>
           <polygon class="st1" id="svg_76" points="632.2,617.9 632.2,755.7 803.7,518.4         "/>
           <polygon class="st2" id="svg_75" points="632.2,755.7 632.2,617.9 460.8,518.4         "/>
           <polygon class="st3" id="svg_74" points="632.2,586 803.6,486.5 632.2,409.9         "/>
          </g>
          <polygon class="st1" id="svg_72" points="460.8,486.5 632.2,586 632.2,409.9        "/>
         </g>
        </g>
       </g>
      </g>
     </g>
    </g>
   </g>
  </symbol>
  <symbol data-name="Layer 1" height="601.2" id="svg_89" width="917.14" xmlns="http://www.w3.org/2000/svg" xmlns:svg="http://www.w3.org/2000/svg">
   <!-- Created with SVG-edit - https://github.com/SVG-Edit/svgedit-->
   <g class="layer">
    <title>Layer 1</title>
    <path d="m241.46,144.9a7.01,7.01 0 0 0 -7,7l0,296a7.01,7.01 0 0 0 7,7l434,0a7.01,7.01 0 0 0 7,-7l0,-296a7.01,7.01 0 0 0 -7,-7l-434,0z" fill="#e6e6e6" id="svg_88"/>
    <path d="m251.46,154.9a7.01,7.01 0 0 0 -7,7l0,276a7.01,7.01 0 0 0 7,7l414,0a7.01,7.01 0 0 0 7,-7l0,-276a7.01,7.01 0 0 0 -7,-7l-414,0z" fill="#fff" id="svg_87"/>
    <path d="m633.44,215.25c-9.52,-3.71 -19.78,5.61 -22.01,15.58c-2.23,9.98 0.62,20.29 1.25,30.49s-2.04,22.05 -11.15,26.7c-10.46,5.35 -22.74,-1.61 -34.44,-2.67a34.66,34.66 0 0 0 -30.53,13.83c-9.65,13.25 -9.16,32.48 -20.58,44.23c-9.93,10.21 -26.1,11.54 -39.99,8.38s-26.64,-10.02 -40.3,-14.06s-29.45,-4.89 -41.15,3.23c-12.21,8.47 -17.65,25.08 -31.06,31.49c-9.48,4.54 -20.7,2.81 -30.84,0.06c-10.15,-2.75 -20.38,-6.45 -30.85,-5.57c-10.48,0.88 -21.4,8.11 -22.23,18.59l359.47,-1.01q2.45,-71.17 4.89,-142.34c0.36,-10.3 -0.87,-23.18 -10.48,-26.93z" fill="#6c63ff" id="svg_86" opacity="0.1"/>
    <path d="m277.85,384.36a2,2 0 1 1 0,-4c92.41,0 180.55,-18.51 248.17,-52.11c63.4,-31.5 103.81,-74.23 110.85,-117.22a2,2 0 1 1 3.95,0.65l0,0c-3.66,22.33 -15.54,44.24 -35.3,65.11c-19.49,20.58 -45.64,39.1 -77.72,55.05c-68.17,33.87 -156.93,52.52 -249.95,52.52z" fill="#6c63ff" id="svg_85"/>
    <polygon fill="#e6e6e6" id="svg_84" points="657.4617462158203,384.75982666015625 275.4617462158203,384.75982666015625 275.4617462158203,196.03182983398438 277.4617462158203,196.03182983398438 277.4617462158203,382.75982666015625 657.4617462158203,382.75982666015625 657.4617462158203,384.75982666015625 "/>
   </g>
  </symbol>
  <symbol data-name="Layer 1" height="597.18" id="svg_91" viewBox="0 0 740.67538 597.17519" width="740.68" xmlns="http://www.w3.org/2000/svg" xmlns:xlink="http://www.w3.org/1999/xlink">
   <path d="m651.61,679.72c-5.12,-7.17 -12.05,-12.42 -20.77,-14.38c-7.6,-1.72 -15.42,-1.42 -23.14,-1.36l-97.69,0.75c-8.37,0.06 -16.39,7.31 -16,16c0.38,8.61 7.03,16.07 16,16q42.92,-0.33 85.85,-0.66c6.74,-0.06 13.49,-0.18 20.24,-0.16c1.52,0.01 3.03,0.09 4.54,0.11c0.37,0 0.63,0 0.82,-0.01c0.04,0.01 0.08,0.03 0.14,0.04c0.79,0.22 1.6,0.37 2.4,0.58c-0.28,0 0.51,0.5 0.91,0.67c0.06,0.11 0.17,0.3 0.37,0.59c0.27,0.51 1.08,2.06 1.11,2.01a71.76,71.76 0 0 1 2.99,9.4c1.86,7.04 2.26,8.52 2.53,15.13c0.34,8.35 7.12,16.39 16,16c8.38,-0.38 16.36,-7.05 16,-16c-0.61,-15.1 -3.26,-32.05 -12.3,-44.71z" fill="#e6e6e6" transform="translate(-229.66231 -151.4124)"/>
   <path d="m515.75,715.82c-1.84,-11.11 -3.64,-22.24 -5.51,-33.35c-1.89,-11.28 -5.77,-21.6 -14.54,-29c-2.35,-1.98 -4.78,-3.82 -7.22,-5.66c-0.86,-0.65 -1.72,-1.3 -2.56,-1.96c-0.05,-0.04 -0.09,-0.06 -0.13,-0.1c-0.09,-0.08 -0.21,-0.17 -0.36,-0.3c-3.65,-3.1 -7.19,-6.33 -10.55,-9.77q-4.48,-4.57 -8.58,-9.54q-1.02,-1.24 -2.02,-2.5c-0.11,-0.15 -0.72,-0.94 -1.13,-1.46c-0.38,-0.52 -1.07,-1.46 -1.18,-1.62q-1.17,-1.65 -2.29,-3.33a156.13,156.13 0 0 1 -13.18,-24.11q-0.55,-1.25 -1.07,-2.52c-0.1,-0.26 -0.22,-0.59 -0.38,-1.03c-0.74,-2.03 -1.48,-4.07 -2.16,-6.13q-2.16,-6.57 -3.71,-13.34q-0.77,-3.34 -1.38,-6.71q-0.32,-1.74 -0.6,-3.48c-0.03,-0.19 -0.21,-1.45 -0.31,-2.16c-0.08,-0.71 -0.23,-1.97 -0.25,-2.16q-0.17,-1.76 -0.31,-3.52q-0.3,-3.96 -0.41,-7.93q-0.19,-7.06 0.25,-14.12c0.17,-2.65 0.4,-5.29 0.69,-7.92c0.02,-0.16 0.04,-0.29 0.05,-0.41c0.02,-0.11 0.04,-0.25 0.06,-0.41c0.22,-1.46 0.44,-2.91 0.7,-4.36a159.29,159.29 0 0 1 3.74,-16.31q1.08,-3.81 2.36,-7.56q0.57,-1.66 1.17,-3.31c-0.03,0.07 1.18,-3.02 1.2,-3.12c4.79,-11.33 12.64,-21.66 12.65,-34.53c0,-8.71 -7.37,-17.06 -16,-16.66a16.63,16.63 0 0 0 -16,16.66c0,0.2 0,0.36 0,0.53c-0.08,0.27 -0.15,0.49 -0.21,0.69c-0.94,2.04 -2.08,3.97 -3.11,5.95c-2.81,5.42 -5.21,11.02 -7.49,16.71a159.83,159.83 0 0 0 -8.53,28.63a182.1,182.1 0 0 0 -0.96,65.04c6.2,37.81 26.66,74 55.1,98.33c2.47,2.12 4.99,4.16 7.55,6.16c1.05,0.82 2.12,1.63 3.19,2.44c0.5,0.38 2.6,2.04 1.68,1.23c1.98,1.7 2.82,2.55 3.32,3.79c0.08,0.29 0.18,0.68 0.31,1.22c0.36,1.4 0.7,2.8 0.99,4.23c2.47,12.45 4.19,25.11 6.26,37.64c1.42,8.61 12.02,14.22 19.68,11.64c8.92,-3.01 12.7,-11.27 11.18,-20.5z" fill="#e6e6e6" transform="translate(-229.66231 -151.4124)"/>
   <path d="m653.23,748.12a25.37,25.37 0 0 1 -25.44,-25.25l0,-18.25c-19.11,2.14 -84.54,1.64 -103.3,-1.37l0,18.89a25.44,25.44 0 0 1 -50.88,0l0,-37.09a163.31,163.31 0 0 1 -84,-142.39c0,-49.83 22.58,-96.31 61.96,-127.53a164.07,164.07 0 0 1 89.32,-35.18c4.43,-0.34 8.88,-0.52 13.24,-0.52c15.35,0 84.62,2.37 102,7.37l39.63,-39.32a4.16,4.16 0 0 1 4.55,-0.91a4.1,4.1 0 0 1 2.58,3.85l0,6.25l7.72,-7.64a4.15,4.15 0 0 1 4.54,-0.91a4.1,4.1 0 0 1 2.59,3.85l0,69.86a162.76,162.76 0 0 1 -39.07,267.87l0,33.17a25.37,25.37 0 0 1 -25.44,25.25zm-23.44,-45.77l0,20.52a23.44,23.44 0 0 0 46.88,0l0,-34.43l0.57,-0.27a162.46,162.46 0 0 0 66.53,-58.19a160.33,160.33 0 0 0 -27.7,-206.96l-0.33,-0.29l0,-70.76a2.1,2.1 0 0 0 -1.34,-2a2.15,2.15 0 0 0 -2.38,0.48l-11.13,11.02l0,-11.05a2.1,2.1 0 0 0 -1.34,-2a2.15,2.15 0 0 0 -2.39,0.48l-40.47,40.16l-0.58,-0.18c-16.15,-5.05 -86.51,-7.45 -101.98,-7.45c-4.31,0 -8.71,0.17 -13.08,0.52a162.07,162.07 0 0 0 -88.24,34.74c-38.89,30.84 -61.2,76.75 -61.2,125.97a161.31,161.31 0 0 0 83.48,140.93l0.52,0.28l0,38.27a23.44,23.44 0 0 0 46.88,0l0,-21.29l1.19,0.23c16.85,3.17 87.83,3.67 104.98,1.42l1.13,-0.15z" fill="#3f3d56" transform="translate(-229.66231 -151.4124)"/>
   <path d="m517.66,270.53l-110.74,33.28a13.88,13.88 0 0 0 7.99,26.59l96.91,-29.13l2.03,-0.61a67.52,67.52 0 0 1 8.29,-29.86a6.16,6.16 0 0 0 -2,-0.52a6.37,6.37 0 0 0 -2.48,0.25z" fill="#6c63ff" transform="translate(-229.66231 -151.4124)"/>
   <path d="m413,337.5a7.01,7.01 0 0 1 -6.64,-4.81l-6.93,-20.89a7,7 0 0 1 4.45,-8.85l90.13,-29.87a7,7 0 0 1 8.84,4.44l6.93,20.9a6.98,6.98 0 0 1 -4.19,8.76q-0.13,0.05 -0.26,0.09l-90.13,29.87a7,7 0 0 1 -2.2,0.36z" fill="#2f2e41" transform="translate(-229.66231 -151.4124)"/>
   <path d="m581.79,233.42a70.03,70.03 0 0 0 -69.97,67.85c-0.02,0.71 -0.03,1.43 -0.03,2.15a70,70 0 1 0 70,-70zm0,138a68.07,68.07 0 0 1 -68,-68q0,-1.4 0.06,-2.76a68,68 0 1 1 67.94,70.76z" fill="#3f3d56" transform="translate(-229.66231 -151.4124)"/>
   <path d="m640.79,303.42a59,59 0 0 1 -118,0c0,-1.87 0.09,-3.71 0.26,-5.53a59,59 0 0 1 117.74,5.53z" fill="#e6e6e6" transform="translate(-229.66231 -151.4124)"/>
   <path d="m599.36,307.34a14.05,14.05 0 0 0 -5.47,-4.33a53.14,53.14 0 0 0 -8.22,-2.7l0,-16.06a23.4,23.4 0 0 1 11.69,5.33l3.26,-6.95a21.56,21.56 0 0 0 -6.36,-3.93a31.26,31.26 0 0 0 -8.07,-2.07l0,-8.14l-7.55,0l0,8.22a20.67,20.67 0 0 0 -8.25,2.77a16.4,16.4 0 0 0 -5.59,5.48a13.77,13.77 0 0 0 -1.99,7.29a12.46,12.46 0 0 0 2.29,7.8a14.51,14.51 0 0 0 5.7,4.52a52.69,52.69 0 0 0 8.36,2.77l0,15.39a24.99,24.99 0 0 1 -13.91,-5.55l-3.26,6.96a24.58,24.58 0 0 0 7.44,4.22a34.16,34.16 0 0 0 9.21,1.92l0,8.07l7.55,0l0,-8.22a19.54,19.54 0 0 0 11.21,-5.14a13.59,13.59 0 0 0 4.18,-10.1a12.05,12.05 0 0 0 -2.22,-7.55zm-20.2,-8.73a14.5,14.5 0 0 1 -5.03,-2.7a5.32,5.32 0 0 1 -1.78,-4.18a6.73,6.73 0 0 1 1.82,-4.81a9.2,9.2 0 0 1 4.99,-2.59l0,14.28zm11.25,21.28a8.56,8.56 0 0 1 -4.74,2.47l0,-13.24a13.24,13.24 0 0 1 4.74,2.37a4.66,4.66 0 0 1 1.63,3.7a6.8,6.8 0 0 1 -1.63,4.7z" fill="#6c63ff" transform="translate(-229.66231 -151.4124)"/>
   <path d="m416.21,422.18a7.02,7.02 0 0 1 -6.78,-5.21l-3.77,-14.27a7,7 0 0 1 4.98,-8.55l118.94,-31.43a7.02,7.02 0 0 1 8.55,4.98l3.19,12.09l-0.59,0.05a160.16,160.16 0 0 0 -84.11,31.87l-0.17,0.08l-38.47,10.16a6.96,6.96 0 0 1 -1.77,0.23z" fill="#2f2e41" transform="translate(-229.66231 -151.4124)"/>
   <path d="m396.51,492.67a98.11,98.11 0 0 1 -39.12,-14.79a95.53,95.53 0 0 1 -16.18,-13.23c-4.82,-4.92 -9.44,-10.52 -11.83,-17.08a25.3,25.3 0 0 1 0.33,-18.77a24.33,24.33 0 0 1 13.17,-13.12c5.99,-2.39 13.22,-2.65 19.05,-0.03a17.09,17.09 0 0 1 6.97,5.6a11.43,11.43 0 0 1 1.81,3.76a7.67,7.67 0 0 1 0.09,3.76a9.02,9.02 0 0 1 -4.78,5.72a24.07,24.07 0 0 1 -8.15,2.49c-2.86,0.39 -6.97,0.74 -9.27,-1.55a4.67,4.67 0 0 1 -1.09,-1.61a3.11,3.11 0 0 1 -0.17,-1.46c-0.04,0.22 0.14,-0.47 0.13,-0.44c-0.04,0.1 -0.2,0.35 0.03,-0.04a3.4,3.4 0 0 1 0.23,-0.36c-0.08,0.1 -0.24,0.26 0.05,-0.02a1.96,1.96 0 0 1 0.92,-0.56c0.14,-0.04 0.28,-0.07 0.42,-0.11c0.35,-0.1 -0.35,0 0.01,-0.01c0.14,0 0.28,0 0.41,-0.01c0.36,-0.01 -0.34,-0.09 -0.01,-0.01c0.14,0.04 0.27,0.07 0.4,0.11c0.28,0.09 -0.2,-0.21 -0.01,0.01c0.22,0.26 -0.24,-0.25 0.02,0a4.62,4.62 0 0 1 0.36,0.4a2.36,2.36 0 0 0 3.31,0a2.4,2.4 0 0 0 0,-3.32c-2.31,-2.86 -6.88,-2.16 -9.21,0.27c-2.99,3.08 -1.81,7.98 1.09,10.67c3.29,3.05 7.94,3.27 12.16,2.75a29.82,29.82 0 0 0 10.27,-2.9a14.4,14.4 0 0 0 7.03,-7.59a13.17,13.17 0 0 0 -1.06,-10.76c-3.73,-7.02 -11.45,-10.61 -19.08,-11.23a29.81,29.81 0 0 0 -21.82,7.16a30.15,30.15 0 0 0 -9.89,20.08c-0.67,7.99 2.43,15.76 6.96,22.21a84.63,84.63 0 0 0 16.78,17.35a102.47,102.47 0 0 0 42.81,20.19q2.79,0.58 5.61,0.99a2.42,2.42 0 0 0 2.89,-1.64a2.36,2.36 0 0 0 -1.64,-2.88z" fill="#3f3d56" transform="translate(-229.66231 -151.4124)"/>
   <path d="m619.9,390.79q-30.67,-0.43 -61.14,1.56c-6.94,0.45 -12.95,2.91 -12.95,7.03c0,3.45 5.96,7.49 12.95,7.03q30.46,-1.98 61.14,-1.55c16.67,0.23 16.66,-13.83 0,-14.07z" fill="#ccc" transform="translate(-229.66231 -151.4124)"/>
   <path d="m589.68,404.16c-2.21,0 -54.1,-0.08 -54.1,-7.25c0,-7.17 51.89,-7.25 54.1,-7.25s54.11,0.08 54.11,7.25c0,7.17 -51.9,7.25 -54.11,7.25zm-52.07,-7.25c1.42,2.17 20.49,5.25 52.07,5.25s50.66,-3.08 52.08,-5.25c-1.42,-2.17 -20.5,-5.25 -52.08,-5.25s-50.65,3.08 -52.07,5.25z" fill="#3f3d56" transform="translate(-229.66231 -151.4124)"/>
   <path d="m754.34,592.61c11.48,-0.32 25.78,-0.72 36.8,-8.76a28.26,28.26 0 0 0 11.12,-21.11c0.22,-6.35 -2.07,-11.9 -6.47,-15.61c-5.75,-4.86 -14.15,-6 -23.21,-3.34l9.38,-68.55l-6.88,-0.94l-11.03,80.58l5.75,-2.63c6.67,-3.06 15.82,-4.62 21.51,0.19a12.22,12.22 0 0 1 4,10.06a21.36,21.36 0 0 1 -8.27,15.73c-8.58,6.27 -19.97,7.07 -32.9,7.44l0.2,6.94z" fill="#3f3d56" transform="translate(-229.66231 -151.4124)"/>
   <rect fill="#3f3d56" height="6.95" width="37.43" x="468.2" y="329.74"/>
   <path d="m433.15,454.15a7.01,7.01 0 0 1 -6.91,-5.92l-2.28,-14.58a7.01,7.01 0 0 1 5.83,-8l121.53,-19.04a7.01,7.01 0 0 1 8,5.83l2.29,14.58a7.01,7.01 0 0 1 -5.84,8l-121.53,19.04a7.1,7.1 0 0 1 -1.09,0.09z" fill="#2f2e41" transform="translate(-229.66231 -151.4124)"/>
   <circle cx="153.19" cy="80.85" fill="#6c63ff" r="51"/>
   <path d="m411.73,245.46a12.1,12.1 0 0 0 4.36,-2.67a8.13,8.13 0 0 0 2.26,-6.49a5.47,5.47 0 0 0 -2.51,-4.16c-1.85,-1.14 -4.29,-1.09 -6.75,0.05l-0.28,-19.91l-2,0.03l0.33,23.4l1.52,-0.99c1.77,-1.16 4.3,-2 6.13,-0.88a3.51,3.51 0 0 1 1.57,2.69a6.15,6.15 0 0 1 -1.67,4.84c-2.17,2.15 -5.38,2.87 -9.04,3.53l0.35,1.97a32.96,32.96 0 0 0 5.73,-1.41z" fill="#2f2e41" transform="translate(-229.66231 -151.4124)"/>
   <rect fill="#2f2e41" height="2" transform="translate(-256.7253 -85.49311) rotate(-8.61162)" width="10.77" x="418.84" y="211.68"/>
   <rect fill="#2f2e41" height="2" transform="translate(-257.86644 -90.46937) rotate(-8.61162)" width="10.77" x="385.22" y="216.77"/>
   <path d="m416.55,453.26a9.03,9.03 0 0 1 -8.43,-5.86l-35.16,-94.17a46.53,46.53 0 0 1 27.28,-59.8l28.59,-10.67a8.96,8.96 0 0 1 6.88,0.23a8.83,8.83 0 0 1 4.68,4.99l65.13,122.98a9,9 0 0 1 -5.25,11.64l-80.57,30.09a8.98,8.98 0 0 1 -3.15,0.57z" fill="#2f2e41" transform="translate(-229.66231 -151.4124)"/>
   <path d="m420.16,285.99l64.63,86.43l-43.73,-85.52a8.08,8.08 0 0 0 -10.35,-4.84l-10.55,3.93z" fill="#e6e6e6" transform="translate(-229.66231 -151.4124)"/>
   <path d="m522.49,351.63l-115.39,-7.43a13.88,13.88 0 1 1 1.78,-27.7l115.39,7.43a6.5,6.5 0 0 1 6.07,6.9l-0.95,14.73a6.5,6.5 0 0 1 -6.9,6.07z" fill="#6c63ff" transform="translate(-229.66231 -151.4124)"/>
   <path d="m491.66,356.4q-0.23,0 -0.46,-0.02l0,0l-94.76,-6.1a7,7 0 0 1 -6.54,-7.44l1.63,-25.16a7,7 0 0 1 7.43,-6.53l94.76,6.1a7.01,7.01 0 0 1 6.53,7.44l-1.62,25.16a7.02,7.02 0 0 1 -4.54,6.11a6.93,6.93 0 0 1 -2.43,0.44z" fill="#2f2e41" transform="translate(-229.66231 -151.4124)"/>
   <path d="m382.27,198.35c6.71,-5.77 15.92,-0.61 23.61,-1.51c7.36,-0.86 13.18,-7.47 14.66,-14.48c1.73,-8.19 -2.51,-16.38 -8.77,-21.49c-6.86,-5.59 -15.96,-7.19 -24.57,-6.16c-9.88,1.19 -18.92,5.79 -27.02,11.36a121.85,121.85 0 0 0 -21.44,18.17c-5.75,6.35 -10.63,13.92 -12.18,22.47c-1.42,7.77 -0.34,16.38 4.25,22.96a24.21,24.21 0 0 0 9.48,7.8c3.94,1.94 8.14,3.32 11.95,5.5c5.77,3.31 11.37,10.16 9.57,17.29a9.79,9.79 0 0 1 -2.23,4.19c-1.29,1.44 -3.62,-0.46 -2.32,-1.89c2.27,-2.53 2.18,-5.89 0.97,-8.9a16.27,16.27 0 0 0 -7.23,-7.96c-4,-2.28 -8.41,-3.69 -12.5,-5.77a27.02,27.02 0 0 1 -9.91,-8.21c-4.9,-6.81 -6.36,-15.67 -5.25,-23.86c1.2,-8.87 5.76,-16.93 11.47,-23.68c6.21,-7.35 13.85,-13.57 21.65,-19.16c8.37,-6 17.62,-11.07 27.85,-12.9c8.87,-1.59 18.49,-0.61 26.24,4.22c7.24,4.51 12.79,12.27 13.35,20.95a22.24,22.24 0 0 1 -10.38,19.94a19.1,19.1 0 0 1 -11.41,2.64c-4.26,-0.27 -8.53,-1.58 -12.82,-1.21a8.94,8.94 0 0 0 -5.26,2.12c-1.47,1.26 -3.22,-1.18 -1.76,-2.43z" fill="#2f2e41" transform="translate(-229.66231 -151.4124)"/>
   <path d="m969.15,748.59l-738.3,0a1.19,1.19 0 0 1 0,-2.38l738.3,0a1.19,1.19 0 0 1 0,2.38z" fill="#3f3d56" transform="translate(-229.66231 -151.4124)"/>
  </symbol>
 </defs>
 <g class="layer">
  <title>Layer 1</title>
  <rect fill="#3f3d56" height="107" id="svg_1" transform="matrix(1 0 0 1 0 0)" width="2" x="328.49" y="115"/>
  <rect fill="#3f3d56" height="94.15" id="svg_2" transform="matrix(1 0 0 1 0 0)" width="2" x="328.49" y="253.85"/>
  <rect fill="#3f3d56" height="2" id="svg_3" transform="matrix(1 0 0 1 0 0)" width="155" x="325.49" y="363"/>
  <rect fill="#3f3d56" height="85" id="svg_4" width="2" x="259.49" y="389"/>
  <rect fill="#3f3d56" height="2" id="svg_5" transform="matrix(1 0 0 1 0 0)" width="235" x="277.49" y="490"/>
  <path d="m528.5,475" fill="none" id="svg_6" stroke="#3f3d56" stroke-miterlimit="10" stroke-width="2" transform="matrix(1 0 0 1 0 0)"/>
  <path d="m528.5,393" fill="none" id="svg_7" stroke="#3f3d56" stroke-miterlimit="10" stroke-width="2" transform="matrix(1 0 0 1 0 0)"/>
  <rect fill="#3f3d56" height="101" id="svg_8" transform="matrix(1 0 0 1 0 0)" width="2" x="706.49" y="47"/>
  <rect fill="#3f3d56" height="2" id="svg_9" transform="matrix(1 0 0 1 0 0)" width="147.03" x="544.46" y="164"/>
  <rect fill="#3f3d56" height="135" id="svg_10" transform="matrix(1 0 0 1 0 0)" width="2" x="527.49" y="180"/>
  <path d="m329.5,255a17,17 0 1 1 17,-17a17.02,17.02 0 0 1 -17,17zm0,-32a15,15 0 1 0 15,15a15.02,15.02 0 0 0 -15,-15z" fill="#3f3d56" id="svg_11" transform="matrix(1 0 0 1 0 0)"/>
  <path d="m261.5,508a17,17 0 1 1 17,-17a17.02,17.02 0 0 1 -17,17zm0,-32a15,15 0 1 0 15,15a15.02,15.02 0 0 0 -15,-15z" fill="#3f3d56" id="svg_12" transform="matrix(1 0 0 1 0 0)"/>
  <circle cx="330.49" cy="364" fill="#6c63ff" id="svg_13" r="16" transform="matrix(1 0 0 1 0 0)"/>
  <rect fill="#3f3d56" height="2" id="svg_14" transform="matrix(1 0 0 1 0 0)" width="166" x="743.49" y="237"/>
  <rect fill="#3f3d56" height="94.15" id="svg_15" transform="matrix(1 0 0 1 0 0)" width="2" x="726.49" y="253.85"/>
  <rect fill="#3f3d56" height="2" id="svg_16" transform="matrix(1 0 0 1 0 0)" width="133" x="577.49" y="363"/>
  <rect fill="#3f3d56" height="2" id="svg_17" transform="matrix(1 0 0 1 0 0)" width="138" x="811.49" y="372"/>
  <rect fill="#3f3d56" height="85" id="svg_18" transform="matrix(1 0 0 1 0 0)" width="2" x="795.49" y="390"/>
  <rect fill="#3f3d56" height="2" id="svg_19" transform="matrix(1 0 0 1 0 0)" width="235" x="544.49" y="490"/>
  <rect fill="#3f3d56" height="62" id="svg_20" transform="matrix(1 0 0 1 0 0)" width="2" x="527.49" y="413"/>
  <circle cx="727.49" cy="238" fill="#6c63ff" id="svg_21" r="16" transform="matrix(1 0 0 1 0 0)"/>
  <path d="m707.5,181a17,17 0 1 1 17,-17a17.02,17.02 0 0 1 -17,17zm0,-32a15,15 0 1 0 15,15a15.02,15.02 0 0 0 -15,-15z" fill="#3f3d56" id="svg_22" transform="matrix(1 0 0 1 0 0)"/>
  <path d="m528.5,181a17,17 0 1 1 17,-17a17.02,17.02 0 0 1 -17,17zm0,-32a15,15 0 1 0 15,15a15.02,15.02 0 0 0 -15,-15z" fill="#3f3d56" id="svg_23" transform="matrix(1 0 0 1 0 0)"/>
  <path d="m795.5,391a17,17 0 1 1 17,-17a17.02,17.02 0 0 1 -17,17zm0,-32a15,15 0 1 0 15,15a15.02,15.02 0 0 0 -15,-15z" fill="#3f3d56" id="svg_24" transform="matrix(1 0 0 1 0 0)"/>
  <circle cx="795.49" cy="491" fill="#6c63ff" id="svg_25" r="16" transform="matrix(1 0 0 1 0 0)"/>
  <path d="m528.5,508a17,17 0 1 1 17,-17a17.02,17.02 0 0 1 -17,17zm0,-32a15,15 0 1 0 15,15a15.02,15.02 0 0 0 -15,-15z" fill="#3f3d56" id="svg_26" transform="matrix(1 0 0 1 0 0)"/>
  <path d="m726.5,381a17,17 0 1 1 17,-17a17.02,17.02 0 0 1 -17,17zm0,-32a15,15 0 1 0 15,15a15.02,15.02 0 0 0 -15,-15z" fill="#3f3d56" id="svg_27" transform="matrix(1 0 0 1 0 0)"/>
  <path d="m261.5,340a20,20 0 1 0 20,20a20.06,20.06 0 0 0 -20,-20zm0,6a6,6 0 1 1 -6,6a6.02,6.02 0 0 1 6,-6zm0,28.89a14.57,14.57 0 0 1 -12,-6.41c0.09,-4 8,-6.2 12,-6.2s11.9,2.2 12,6.2a14.59,14.59 0 0 1 -12,6.41z" fill="#3f3d56" id="svg_28" transform="matrix(1 0 0 1 0 0)"/>
  <path d="m330.5,67a20,20 0 1 0 20,20a20.06,20.06 0 0 0 -20,-20zm0,6a6,6 0 1 1 -6,6a6.02,6.02 0 0 1 6,-6zm0,28.89a14.57,14.57 0 0 1 -12,-6.41c0.09,-4 8,-6.2 12,-6.2s11.9,2.2 12,6.2a14.59,14.59 0 0 1 -12,6.41z" fill="#3f3d56" id="svg_29" transform="matrix(1 0 0 1 0 0)"/>
  <path d="m705.5,2a20,20 0 1 0 20,20a20.06,20.06 0 0 0 -20,-20zm0,6a6,6 0 1 1 -6,6a6.02,6.02 0 0 1 6,-6zm0,28.89a14.57,14.57 0 0 1 -12,-6.41c0.09,-4 8,-6.2 12,-6.2s11.9,2.2 12,6.2a14.59,14.59 0 0 1 -12,6.41z" fill="#3f3d56" id="svg_30"/>
  <path d="m922.5,219a20,20 0 1 0 20,20a20.06,20.06 0 0 0 -20,-20zm0,6a6,6 0 1 1 -6,6a6.02,6.02 0 0 1 6,-6zm0,28.89a14.57,14.57 0 0 1 -12,-6.41c0.09,-4 8,-6.2 12,-6.2s11.9,2.2 12,6.2a14.59,14.59 0 0 1 -12,6.41z" fill="#3f3d56" id="svg_31" transform="matrix(1 0 0 1 0 0)"/>
  <path d="m1070.25,428.05a20,20 0 1 0 20,20a20.06,20.06 0 0 0 -20,-20zm0,6a6,6 0 1 1 -6,6a6.02,6.02 0 0 1 6,-6zm0,28.89a14.57,14.57 0 0 1 -12,-6.41c0.09,-4 8,-6.2 12,-6.2s11.9,2.2 12,6.2a14.59,14.59 0 0 1 -12,6.41z" fill="#3f3d56" id="svg_32" transform="translate(-109.75308 -74.05234)"/>
  <path d="m261.75,807.35c-2.84,25.87 -152.22,23.7 -152,-0.01c2.85,-25.87 152.23,-23.7 152,0.01z" fill="#e6e6e6" id="svg_36" transform="translate(-109.75308 -74.05234)"/>
  <polygon fill="#ffb8b8" id="svg_37" points="103.754 668.156 109.81 681.276 120.911 680.267 127.976 657.054 116.874 650.999 103.754 668.156"/>
  <polygon fill="#ffb8b8" id="svg_38" points="65.642 698.373 65.403 707.516 82.56 708.525 82.56 697.424 65.642 698.373"/>
  <polygon fill="#2f2e41" id="svg_39" points="71.458 531.908 75.495 612.647 65.403 700.451 95.68 704.488 114.856 593.472 120.911 517.778 71.458 531.908"/>
  <path d="m24.03,502.64s-12.11,79.73 13.12,105.97s59.54,72.67 59.54,72.67l24.22,-30.28l-61.56,-65.6l12.11,-44.41l49.45,-23.21l-8.07,-55.51l-72.67,-1.01l-16.14,41.38z" fill="#2f2e41" id="svg_40"/>
  <circle cx="83.57" cy="295.74" fill="#ffb8b8" id="svg_41" r="22.2"/>
  <path d="m64.4,300.79s-1.01,31.29 -6.06,35.33s18.17,21.19 18.17,21.19l15.14,-24.22l0,-22.2l-27.25,-10.1z" fill="#ffb8b8" id="svg_42"/>
  <polygon fill="#d0cde1" id="svg_43" points="74.486 343.179 62.233 324.677 55.31 334.096 45.218 362.355 53.292 472.362 100.726 473.371 106.782 347.216 91.643 329.05 74.486 343.179"/>
  <path d="m125.96,350.25l8.07,-1.01s2.02,1.01 3.03,8.07s13.12,69.64 13.12,69.64l-16.15,76.7l-18.16,-24.22l11.1,-42.39l-11.1,-42.39l10.09,-44.4z" fill="#2f2e41" id="svg_44"/>
  <polygon fill="#2f2e41" id="svg_45" points="23.015 349.234 16.959 349.234 1.821 430.983 15.95 494.566 30.079 471.353 26.042 446.122 28.061 423.919 35.126 410.798 23.015 349.234"/>
  <path d="m222.59,751.29s-6.05,-2.02 -6.05,2.02s4.03,16.15 4.03,16.15s-6.05,37.34 3.03,35.32s16.15,-19.17 17.16,-24.22s6.05,-31.29 6.05,-31.29s8.08,-19.17 3.03,-20.18s-19.18,-5.05 -19.18,-5.05s8.08,25.23 -8.07,27.25z" fill="#2f2e41" id="svg_46" transform="translate(-109.75308 -74.05234)"/>
  <path d="m193.32,782.58s-16.15,-10.09 -19.17,-2.02a84.8,84.8 0 0 0 -4.04,18.17s-4.04,13.12 12.11,11.1s14.13,-2.02 15.14,-8.08s-4.04,-19.17 -4.04,-19.17z" fill="#2f2e41" id="svg_47" transform="translate(-109.75308 -74.05234)"/>
  <path d="m70.45,295.75l4.04,-1.01s3.03,-17.16 10.09,-15.14s25.23,4.04 25.23,-4.04s-17.15,-15.14 -27.25,-14.13s-27.25,4.04 -26.24,19.18s7.52,29.86 7.52,29.86l0.53,-8.97l6.08,-5.75z" fill="#2f2e41" id="svg_48"/>
  <polygon fill="#d0cde1" id="svg_49" points="91.643 355.29 74.486 343.179 91.643 329.05 97.6 336.197 91.643 355.29"/>
  <polygon fill="#d0cde1" id="svg_50" points="59.347 354.281 74.486 343.179 62.375 325.013 55.31 334.096 59.347 354.281"/>
  <path d="m133.03,349.24l-32.3,-13.12l-7.57,-5.55l-22.71,100.42l-15.14,-45.42l4.55,-58.03l-41.89,21.7l14.13,68.63l2.02,26.24l-6.06,21.19s-21.19,15.14 -14.13,31.29s15.14,17.15 15.14,17.15s34.32,-32.29 36.34,-40.37s5.04,-22.2 5.04,-22.2s17.16,64.59 37.34,63.58s20.19,-22.2 20.19,-22.2l-5.05,-22.2l-8.07,-23.22l4.04,-38.35l14.13,-59.54z" fill="#2f2e41" id="svg_51"/>
  <use id="svg_56" transform="matrix(1 0 0 1 0 0) matrix(2.17227 0 0 2.17227 176.77 117.952)" x="152.97" xlink:href="#svg_55" y="105.01"/>
  <use id="svg_81" transform="matrix(1 0 0 1 0 0) matrix(0.124358 0 0 0.124358 311.94 193.499)" x="1122.06" xlink:href="#svg_80" y="861.58"/>
  <use id="svg_90" transform="matrix(0.633463 0 0 0.626234 -383.643 -702.099)" x="1348.95" xlink:href="#svg_89" y="1841.56"/>
  <use id="svg_95" transform="matrix(0.338383 0 0 0.338383 0 0)" x="1309" xlink:href="#svg_91" y="1582"/>
 </g>
</svg>