<svg id="svg" version="1.1" xmlns="http://www.w3.org/2000/svg" xmlns:xlink="http://www.w3.org/1999/xlink" width="400" height="400" viewBox="0, 0, 400,400"><g id="svgg"><path id="path0" d="M185.500 0.299 C 179.914 0.399,178.800 0.518,178.800 1.010 C 178.800 1.489,178.083 1.600,175.000 1.600 C 172.733 1.600,171.200 1.761,171.200 2.000 C 171.200 2.233,169.867 2.400,168.000 2.400 C 166.133 2.400,164.800 2.567,164.800 2.800 C 164.800 3.022,163.733 3.200,162.400 3.200 C 160.533 3.200,160.000 3.333,160.000 3.800 C 160.000 4.261,159.489 4.400,157.800 4.400 C 156.590 4.400,155.600 4.580,155.600 4.800 C 155.600 5.020,154.700 5.200,153.600 5.200 C 152.500 5.200,151.600 5.380,151.600 5.600 C 151.600 5.820,150.790 6.000,149.800 6.000 C 148.467 6.000,148.000 6.156,148.000 6.600 C 148.000 7.019,147.578 7.200,146.600 7.200 C 145.830 7.200,145.200 7.380,145.200 7.600 C 145.200 7.820,144.300 8.000,143.200 8.000 C 142.100 8.000,141.200 8.180,141.200 8.400 C 141.200 8.620,140.570 8.800,139.800 8.800 C 138.822 8.800,138.400 8.981,138.400 9.400 C 138.400 9.819,137.978 10.000,137.000 10.000 C 136.230 10.000,135.600 10.180,135.600 10.400 C 135.600 10.620,134.970 10.800,134.200 10.800 C 133.430 10.800,132.800 10.980,132.800 11.200 C 132.800 11.420,132.170 11.600,131.400 11.600 C 130.422 11.600,130.000 11.781,130.000 12.200 C 130.000 12.573,129.622 12.800,129.000 12.800 C 128.450 12.800,128.000 12.980,128.000 13.200 C 128.000 13.420,127.370 13.600,126.600 13.600 C 125.830 13.600,125.200 13.780,125.200 14.000 C 125.200 14.220,124.840 14.400,124.400 14.400 C 123.956 14.400,123.600 14.667,123.600 15.000 C 123.600 15.419,123.178 15.600,122.200 15.600 C 121.430 15.600,120.800 15.780,120.800 16.000 C 120.800 16.220,120.350 16.400,119.800 16.400 C 119.250 16.400,118.800 16.580,118.800 16.800 C 118.800 17.020,118.350 17.200,117.800 17.200 C 117.178 17.200,116.800 17.427,116.800 17.800 C 116.800 18.219,116.378 18.400,115.400 18.400 C 114.630 18.400,114.000 18.580,114.000 18.800 C 114.000 19.020,113.640 19.200,113.200 19.200 C 112.760 19.200,112.400 19.380,112.400 19.600 C 112.400 19.820,111.950 20.000,111.400 20.000 C 110.778 20.000,110.400 20.227,110.400 20.600 C 110.400 20.940,110.041 21.200,109.571 21.200 C 108.686 21.200,107.600 22.066,107.600 22.771 C 107.600 23.007,107.150 23.200,106.600 23.200 C 106.050 23.200,105.600 23.380,105.600 23.600 C 105.600 23.820,105.150 24.000,104.600 24.000 C 104.050 24.000,103.600 24.180,103.600 24.400 C 103.600 24.620,103.240 24.800,102.800 24.800 C 102.356 24.800,102.000 25.067,102.000 25.400 C 102.000 25.758,101.632 26.000,101.088 26.000 C 100.587 26.000,99.917 26.360,99.600 26.800 C 99.283 27.240,98.613 27.600,98.112 27.600 C 97.568 27.600,97.200 27.842,97.200 28.200 C 97.200 28.558,96.832 28.800,96.288 28.800 C 95.787 28.800,95.117 29.160,94.800 29.600 C 94.483 30.040,93.813 30.400,93.312 30.400 C 92.768 30.400,92.400 30.642,92.400 31.000 C 92.400 31.333,92.044 31.600,91.600 31.600 C 91.160 31.600,90.800 31.780,90.800 32.000 C 90.800 32.220,90.530 32.400,90.200 32.400 C 89.870 32.400,89.600 32.580,89.600 32.800 C 89.600 33.020,89.283 33.200,88.896 33.200 C 88.509 33.200,87.654 33.826,86.996 34.591 C 86.299 35.402,85.424 35.986,84.900 35.991 C 84.405 35.996,84.000 36.193,84.000 36.429 C 84.000 37.076,82.942 38.000,82.200 38.000 C 81.458 38.000,80.400 38.924,80.400 39.571 C 80.400 39.807,80.130 40.000,79.800 40.000 C 79.470 40.000,79.200 40.180,79.200 40.400 C 79.200 40.620,78.916 40.800,78.569 40.800 C 77.873 40.800,74.800 43.722,74.800 44.384 C 74.800 44.613,74.390 44.800,73.888 44.800 C 73.387 44.800,72.717 45.160,72.400 45.600 C 72.083 46.040,71.593 46.400,71.312 46.400 C 71.030 46.400,70.800 46.588,70.800 46.818 C 70.800 47.361,68.961 49.200,68.418 49.200 C 68.188 49.200,68.000 49.404,68.000 49.653 C 68.000 50.315,65.918 51.999,65.100 52.000 C 64.715 52.000,64.400 52.270,64.400 52.600 C 64.400 52.930,64.212 53.200,63.982 53.200 C 63.439 53.200,61.600 55.039,61.600 55.582 C 61.600 55.812,61.412 56.000,61.182 56.000 C 60.639 56.000,58.800 57.839,58.800 58.382 C 58.800 58.612,58.612 58.800,58.382 58.800 C 57.839 58.800,56.000 60.639,56.000 61.182 C 56.000 61.412,55.812 61.600,55.582 61.600 C 55.352 61.600,54.722 62.042,54.182 62.582 C 53.642 63.122,53.200 63.752,53.200 63.982 C 53.200 64.212,52.930 64.400,52.600 64.400 C 52.270 64.400,52.000 64.715,52.000 65.100 C 51.999 65.918,50.315 68.000,49.653 68.000 C 49.404 68.000,49.200 68.188,49.200 68.418 C 49.200 68.648,48.758 69.278,48.218 69.818 C 47.678 70.358,47.048 70.800,46.818 70.800 C 46.588 70.800,46.400 71.030,46.400 71.312 C 46.400 71.593,46.040 72.083,45.600 72.400 C 45.160 72.717,44.800 73.387,44.800 73.888 C 44.800 74.390,44.613 74.800,44.384 74.800 C 43.722 74.800,40.800 77.873,40.800 78.569 C 40.800 78.916,40.620 79.200,40.400 79.200 C 40.180 79.200,40.000 79.470,40.000 79.800 C 40.000 80.130,39.807 80.400,39.571 80.400 C 38.924 80.400,38.000 81.458,38.000 82.200 C 38.000 82.942,37.076 84.000,36.429 84.000 C 36.193 84.000,35.996 84.405,35.991 84.900 C 35.986 85.424,35.402 86.299,34.591 86.996 C 33.826 87.654,33.200 88.509,33.200 88.896 C 33.200 89.283,33.020 89.600,32.800 89.600 C 32.580 89.600,32.400 89.870,32.400 90.200 C 32.400 90.530,32.220 90.800,32.000 90.800 C 31.780 90.800,31.600 91.160,31.600 91.600 C 31.600 92.044,31.333 92.400,31.000 92.400 C 30.642 92.400,30.400 92.768,30.400 93.312 C 30.400 93.813,30.040 94.483,29.600 94.800 C 29.160 95.117,28.800 95.787,28.800 96.288 C 28.800 96.832,28.558 97.200,28.200 97.200 C 27.842 97.200,27.600 97.568,27.600 98.112 C 27.600 98.613,27.240 99.283,26.800 99.600 C 26.360 99.917,26.000 100.587,26.000 101.088 C 26.000 101.632,25.758 102.000,25.400 102.000 C 25.067 102.000,24.800 102.356,24.800 102.800 C 24.800 103.240,24.620 103.600,24.400 103.600 C 24.180 103.600,24.000 104.050,24.000 104.600 C 24.000 105.150,23.820 105.600,23.600 105.600 C 23.380 105.600,23.200 106.050,23.200 106.600 C 23.200 107.150,23.007 107.600,22.771 107.600 C 22.066 107.600,21.200 108.686,21.200 109.571 C 21.200 110.041,20.940 110.400,20.600 110.400 C 20.227 110.400,20.000 110.778,20.000 111.400 C 20.000 111.950,19.820 112.400,19.600 112.400 C 19.380 112.400,19.200 112.760,19.200 113.200 C 19.200 113.640,19.020 114.000,18.800 114.000 C 18.580 114.000,18.400 114.630,18.400 115.400 C 18.400 116.378,18.219 116.800,17.800 116.800 C 17.427 116.800,17.200 117.178,17.200 117.800 C 17.200 118.350,17.020 118.800,16.800 118.800 C 16.580 118.800,16.400 119.250,16.400 119.800 C 16.400 120.350,16.220 120.800,16.000 120.800 C 15.780 120.800,15.600 121.430,15.600 122.200 C 15.600 123.178,15.419 123.600,15.000 123.600 C 14.667 123.600,14.400 123.956,14.400 124.400 C 14.400 124.840,14.220 125.200,14.000 125.200 C 13.780 125.200,13.600 125.830,13.600 126.600 C 13.600 127.370,13.420 128.000,13.200 128.000 C 12.980 128.000,12.800 128.450,12.800 129.000 C 12.800 129.622,12.573 130.000,12.200 130.000 C 11.781 130.000,11.600 130.422,11.600 131.400 C 11.600 132.170,11.420 132.800,11.200 132.800 C 10.980 132.800,10.800 133.430,10.800 134.200 C 10.800 134.970,10.620 135.600,10.400 135.600 C 10.180 135.600,10.000 136.230,10.000 137.000 C 10.000 137.978,9.819 138.400,9.400 138.400 C 8.981 138.400,8.800 138.822,8.800 139.800 C 8.800 140.570,8.620 141.200,8.400 141.200 C 8.180 141.200,8.000 142.100,8.000 143.200 C 8.000 144.300,7.820 145.200,7.600 145.200 C 7.380 145.200,7.200 145.830,7.200 146.600 C 7.200 147.578,7.019 148.000,6.600 148.000 C 6.156 148.000,6.000 148.467,6.000 149.800 C 6.000 150.790,5.820 151.600,5.600 151.600 C 5.380 151.600,5.200 152.500,5.200 153.600 C 5.200 154.700,5.020 155.600,4.800 155.600 C 4.580 155.600,4.400 156.590,4.400 157.800 C 4.400 159.489,4.261 160.000,3.800 160.000 C 3.333 160.000,3.200 160.533,3.200 162.400 C 3.200 163.733,3.022 164.800,2.800 164.800 C 2.571 164.800,2.400 166.000,2.400 167.600 C 2.400 169.200,2.229 170.400,2.000 170.400 C 1.759 170.400,1.600 172.067,1.600 174.600 C 1.600 177.848,1.478 178.800,1.063 178.800 C 0.326 178.800,-0.124 196.360,0.249 210.600 C 0.470 219.067,0.634 221.200,1.063 221.200 C 1.478 221.200,1.600 222.152,1.600 225.400 C 1.600 227.933,1.759 229.600,2.000 229.600 C 2.229 229.600,2.400 230.800,2.400 232.400 C 2.400 234.000,2.571 235.200,2.800 235.200 C 3.022 235.200,3.200 236.267,3.200 237.600 C 3.200 239.467,3.333 240.000,3.800 240.000 C 4.267 240.000,4.400 240.533,4.400 242.400 C 4.400 243.733,4.578 244.800,4.800 244.800 C 5.020 244.800,5.200 245.610,5.200 246.600 C 5.200 247.590,5.380 248.400,5.600 248.400 C 5.820 248.400,6.000 249.210,6.000 250.200 C 6.000 251.533,6.156 252.000,6.600 252.000 C 7.019 252.000,7.200 252.422,7.200 253.400 C 7.200 254.170,7.380 254.800,7.600 254.800 C 7.820 254.800,8.000 255.700,8.000 256.800 C 8.000 257.900,8.180 258.800,8.400 258.800 C 8.620 258.800,8.800 259.430,8.800 260.200 C 8.800 261.178,8.981 261.600,9.400 261.600 C 9.819 261.600,10.000 262.022,10.000 263.000 C 10.000 263.770,10.180 264.400,10.400 264.400 C 10.620 264.400,10.800 265.030,10.800 265.800 C 10.800 266.570,10.980 267.200,11.200 267.200 C 11.420 267.200,11.600 267.830,11.600 268.600 C 11.600 269.578,11.781 270.000,12.200 270.000 C 12.573 270.000,12.800 270.378,12.800 271.000 C 12.800 271.550,12.980 272.000,13.200 272.000 C 13.420 272.000,13.600 272.630,13.600 273.400 C 13.600 274.170,13.780 274.800,14.000 274.800 C 14.220 274.800,14.400 275.430,14.400 276.200 C 14.400 277.178,14.581 277.600,15.000 277.600 C 15.333 277.600,15.600 277.956,15.600 278.400 C 15.600 278.840,15.780 279.200,16.000 279.200 C 16.220 279.200,16.400 279.650,16.400 280.200 C 16.400 280.750,16.580 281.200,16.800 281.200 C 17.020 281.200,17.200 281.650,17.200 282.200 C 17.200 282.822,17.427 283.200,17.800 283.200 C 18.219 283.200,18.400 283.622,18.400 284.600 C 18.400 285.370,18.580 286.000,18.800 286.000 C 19.020 286.000,19.200 286.360,19.200 286.800 C 19.200 287.240,19.380 287.600,19.600 287.600 C 19.820 287.600,20.000 288.050,20.000 288.600 C 20.000 289.222,20.227 289.600,20.600 289.600 C 20.940 289.600,21.200 289.959,21.200 290.429 C 21.200 291.314,22.066 292.400,22.771 292.400 C 23.007 292.400,23.200 292.850,23.200 293.400 C 23.200 293.950,23.380 294.400,23.600 294.400 C 23.820 294.400,24.000 294.850,24.000 295.400 C 24.000 295.950,24.180 296.400,24.400 296.400 C 24.620 296.400,24.800 296.760,24.800 297.200 C 24.800 297.644,25.067 298.000,25.400 298.000 C 25.758 298.000,26.000 298.368,26.000 298.912 C 26.000 299.413,26.360 300.083,26.800 300.400 C 27.240 300.717,27.600 301.387,27.600 301.888 C 27.600 302.432,27.842 302.800,28.200 302.800 C 28.558 302.800,28.800 303.168,28.800 303.712 C 28.800 304.213,29.160 304.883,29.600 305.200 C 30.040 305.517,30.400 306.187,30.400 306.688 C 30.400 307.232,30.642 307.600,31.000 307.600 C 31.333 307.600,31.600 307.956,31.600 308.400 C 31.600 308.840,31.780 309.200,32.000 309.200 C 32.220 309.200,32.400 309.470,32.400 309.800 C 32.400 310.130,32.580 310.400,32.800 310.400 C 33.020 310.400,33.200 310.717,33.200 311.104 C 33.200 311.491,33.826 312.346,34.591 313.004 C 35.402 313.701,35.986 314.576,35.991 315.100 C 35.996 315.595,36.193 316.000,36.429 316.000 C 37.076 316.000,38.000 317.058,38.000 317.800 C 38.000 318.542,38.924 319.600,39.571 319.600 C 39.807 319.600,40.000 319.870,40.000 320.200 C 40.000 320.530,40.180 320.800,40.400 320.800 C 40.620 320.800,40.800 321.084,40.800 321.431 C 40.800 322.127,43.722 325.200,44.384 325.200 C 44.613 325.200,44.800 325.610,44.800 326.112 C 44.800 326.613,45.160 327.283,45.600 327.600 C 46.040 327.917,46.400 328.407,46.400 328.688 C 46.400 328.970,46.588 329.200,46.818 329.200 C 47.361 329.200,49.200 331.039,49.200 331.582 C 49.200 331.812,49.393 332.000,49.629 332.000 C 50.276 332.000,51.200 333.058,51.200 333.800 C 51.200 334.542,52.124 335.600,52.771 335.600 C 53.007 335.600,53.200 335.788,53.200 336.018 C 53.200 336.561,55.039 338.400,55.582 338.400 C 55.812 338.400,56.000 338.588,56.000 338.818 C 56.000 339.361,57.839 341.200,58.382 341.200 C 58.612 341.200,58.800 341.388,58.800 341.618 C 58.800 342.161,60.639 344.000,61.182 344.000 C 61.412 344.000,61.600 344.188,61.600 344.418 C 61.600 344.961,63.439 346.800,63.982 346.800 C 64.212 346.800,64.400 346.993,64.400 347.229 C 64.400 347.876,65.458 348.800,66.200 348.800 C 66.942 348.800,68.000 349.724,68.000 350.371 C 68.000 350.607,68.188 350.800,68.418 350.800 C 68.961 350.800,70.800 352.639,70.800 353.182 C 70.800 353.412,71.030 353.600,71.312 353.600 C 71.593 353.600,72.083 353.960,72.400 354.400 C 72.717 354.840,73.387 355.200,73.888 355.200 C 74.390 355.200,74.800 355.387,74.800 355.616 C 74.800 356.278,77.873 359.200,78.569 359.200 C 78.916 359.200,79.200 359.380,79.200 359.600 C 79.200 359.820,79.470 360.000,79.800 360.000 C 80.130 360.000,80.400 360.193,80.400 360.429 C 80.400 361.076,81.458 362.000,82.200 362.000 C 82.847 362.000,84.000 362.897,84.000 363.400 C 84.000 363.928,85.169 364.800,85.876 364.800 C 86.280 364.800,86.948 365.250,87.361 365.800 C 87.774 366.350,88.447 366.800,88.856 366.800 C 89.265 366.800,89.600 366.980,89.600 367.200 C 89.600 367.420,89.870 367.600,90.200 367.600 C 90.530 367.600,90.800 367.780,90.800 368.000 C 90.800 368.220,91.160 368.400,91.600 368.400 C 92.044 368.400,92.400 368.667,92.400 369.000 C 92.400 369.358,92.768 369.600,93.312 369.600 C 93.813 369.600,94.483 369.960,94.800 370.400 C 95.117 370.840,95.787 371.200,96.288 371.200 C 96.832 371.200,97.200 371.442,97.200 371.800 C 97.200 372.158,97.568 372.400,98.112 372.400 C 98.613 372.400,99.283 372.760,99.600 373.200 C 99.917 373.640,100.587 374.000,101.088 374.000 C 101.632 374.000,102.000 374.242,102.000 374.600 C 102.000 374.933,102.356 375.200,102.800 375.200 C 103.240 375.200,103.600 375.380,103.600 375.600 C 103.600 375.820,103.973 376.000,104.429 376.000 C 105.314 376.000,106.400 376.866,106.400 377.571 C 106.400 377.807,106.850 378.000,107.400 378.000 C 107.950 378.000,108.400 378.180,108.400 378.400 C 108.400 378.620,108.850 378.800,109.400 378.800 C 110.022 378.800,110.400 379.027,110.400 379.400 C 110.400 379.773,110.778 380.000,111.400 380.000 C 111.950 380.000,112.400 380.180,112.400 380.400 C 112.400 380.620,112.760 380.800,113.200 380.800 C 113.640 380.800,114.000 380.980,114.000 381.200 C 114.000 381.420,114.630 381.600,115.400 381.600 C 116.378 381.600,116.800 381.781,116.800 382.200 C 116.800 382.573,117.178 382.800,117.800 382.800 C 118.350 382.800,118.800 382.980,118.800 383.200 C 118.800 383.420,119.250 383.600,119.800 383.600 C 120.350 383.600,120.800 383.780,120.800 384.000 C 120.800 384.220,121.430 384.400,122.200 384.400 C 123.178 384.400,123.600 384.581,123.600 385.000 C 123.600 385.333,123.956 385.600,124.400 385.600 C 124.840 385.600,125.200 385.780,125.200 386.000 C 125.200 386.220,125.830 386.400,126.600 386.400 C 127.370 386.400,128.000 386.580,128.000 386.800 C 128.000 387.020,128.450 387.200,129.000 387.200 C 129.622 387.200,130.000 387.427,130.000 387.800 C 130.000 388.219,130.422 388.400,131.400 388.400 C 132.170 388.400,132.800 388.580,132.800 388.800 C 132.800 389.020,133.430 389.200,134.200 389.200 C 134.970 389.200,135.600 389.380,135.600 389.600 C 135.600 389.820,136.230 390.000,137.000 390.000 C 137.978 390.000,138.400 390.181,138.400 390.600 C 138.400 391.019,138.822 391.200,139.800 391.200 C 140.570 391.200,141.200 391.380,141.200 391.600 C 141.200 391.820,142.100 392.000,143.200 392.000 C 144.300 392.000,145.200 392.180,145.200 392.400 C 145.200 392.620,145.830 392.800,146.600 392.800 C 147.578 392.800,148.000 392.981,148.000 393.400 C 148.000 393.844,148.467 394.000,149.800 394.000 C 150.790 394.000,151.600 394.180,151.600 394.400 C 151.600 394.620,152.500 394.800,153.600 394.800 C 154.700 394.800,155.600 394.980,155.600 395.200 C 155.600 395.420,156.590 395.600,157.800 395.600 C 159.489 395.600,160.000 395.739,160.000 396.200 C 160.000 396.667,160.533 396.800,162.400 396.800 C 163.733 396.800,164.800 396.978,164.800 397.200 C 164.800 397.433,166.133 397.600,168.000 397.600 C 169.867 397.600,171.200 397.767,171.200 398.000 C 171.200 398.239,172.733 398.400,175.000 398.400 C 177.913 398.400,178.800 398.525,178.800 398.937 C 178.800 399.674,196.360 400.124,210.600 399.751 C 219.067 399.530,221.200 399.366,221.200 398.937 C 221.200 398.525,222.087 398.400,225.000 398.400 C 227.267 398.400,228.800 398.239,228.800 398.000 C 228.800 397.767,230.133 397.600,232.000 397.600 C 233.867 397.600,235.200 397.433,235.200 397.200 C 235.200 396.978,236.267 396.800,237.600 396.800 C 239.467 396.800,240.000 396.667,240.000 396.200 C 240.000 395.733,240.533 395.600,242.400 395.600 C 243.733 395.600,244.800 395.422,244.800 395.200 C 244.800 394.980,245.610 394.800,246.600 394.800 C 247.590 394.800,248.400 394.620,248.400 394.400 C 248.400 394.180,249.210 394.000,250.200 394.000 C 251.533 394.000,252.000 393.844,252.000 393.400 C 252.000 392.981,252.422 392.800,253.400 392.800 C 254.170 392.800,254.800 392.620,254.800 392.400 C 254.800 392.180,255.700 392.000,256.800 392.000 C 257.900 392.000,258.800 391.820,258.800 391.600 C 258.800 391.380,259.430 391.200,260.200 391.200 C 261.178 391.200,261.600 391.019,261.600 390.600 C 261.600 390.181,262.022 390.000,263.000 390.000 C 263.770 390.000,264.400 389.820,264.400 389.600 C 264.400 389.380,265.030 389.200,265.800 389.200 C 266.570 389.200,267.200 389.020,267.200 388.800 C 267.200 388.580,267.830 388.400,268.600 388.400 C 269.578 388.400,270.000 388.219,270.000 387.800 C 270.000 387.427,270.378 387.200,271.000 387.200 C 271.550 387.200,272.000 387.020,272.000 386.800 C 272.000 386.580,272.630 386.400,273.400 386.400 C 274.170 386.400,274.800 386.220,274.800 386.000 C 274.800 385.780,275.430 385.600,276.200 385.600 C 277.178 385.600,277.600 385.419,277.600 385.000 C 277.600 384.667,277.956 384.400,278.400 384.400 C 278.840 384.400,279.200 384.220,279.200 384.000 C 279.200 383.780,279.650 383.600,280.200 383.600 C 280.750 383.600,281.200 383.420,281.200 383.200 C 281.200 382.980,281.650 382.800,282.200 382.800 C 282.822 382.800,283.200 382.573,283.200 382.200 C 283.200 381.781,283.622 381.600,284.600 381.600 C 285.370 381.600,286.000 381.420,286.000 381.200 C 286.000 380.980,286.360 380.800,286.800 380.800 C 287.240 380.800,287.600 380.620,287.600 380.400 C 287.600 380.180,288.050 380.000,288.600 380.000 C 289.222 380.000,289.600 379.773,289.600 379.400 C 289.600 379.027,289.978 378.800,290.600 378.800 C 291.150 378.800,291.600 378.620,291.600 378.400 C 291.600 378.180,292.050 378.000,292.600 378.000 C 293.222 378.000,293.600 377.773,293.600 377.400 C 293.600 377.067,293.956 376.800,294.400 376.800 C 294.840 376.800,295.200 376.620,295.200 376.400 C 295.200 376.180,295.470 376.000,295.800 376.000 C 296.130 376.000,296.400 375.820,296.400 375.600 C 296.400 375.380,296.760 375.200,297.200 375.200 C 297.644 375.200,298.000 374.933,298.000 374.600 C 298.000 374.227,298.378 374.000,299.000 374.000 C 299.550 374.000,300.000 373.820,300.000 373.600 C 300.000 373.380,300.373 373.200,300.829 373.200 C 301.714 373.200,302.800 372.334,302.800 371.629 C 302.800 371.393,303.210 371.200,303.712 371.200 C 304.213 371.200,304.883 370.840,305.200 370.400 C 305.517 369.960,306.187 369.600,306.688 369.600 C 307.232 369.600,307.600 369.358,307.600 369.000 C 307.600 368.667,307.956 368.400,308.400 368.400 C 308.840 368.400,309.200 368.220,309.200 368.000 C 309.200 367.780,309.470 367.600,309.800 367.600 C 310.130 367.600,310.400 367.420,310.400 367.200 C 310.400 366.980,310.850 366.800,311.400 366.800 C 311.950 366.800,312.400 366.607,312.400 366.371 C 312.400 365.724,313.458 364.800,314.200 364.800 C 314.847 364.800,316.000 363.903,316.000 363.400 C 316.000 362.897,317.153 362.000,317.800 362.000 C 318.542 362.000,319.600 361.076,319.600 360.429 C 319.600 360.193,319.870 360.000,320.200 360.000 C 320.530 360.000,320.800 359.820,320.800 359.600 C 320.800 359.380,321.160 359.200,321.600 359.200 C 322.040 359.200,322.400 359.020,322.400 358.800 C 322.400 358.580,322.670 358.400,323.000 358.400 C 323.330 358.400,323.600 358.207,323.600 357.971 C 323.600 357.266,324.686 356.400,325.571 356.400 C 326.027 356.400,326.400 356.212,326.400 355.982 C 326.400 355.439,328.239 353.600,328.782 353.600 C 329.012 353.600,329.200 353.412,329.200 353.182 C 329.200 352.639,331.039 350.800,331.582 350.800 C 331.812 350.800,332.000 350.607,332.000 350.371 C 332.000 349.724,333.058 348.800,333.800 348.800 C 334.542 348.800,335.600 347.876,335.600 347.229 C 335.600 346.993,335.788 346.800,336.018 346.800 C 336.561 346.800,338.400 344.961,338.400 344.418 C 338.400 344.188,338.588 344.000,338.818 344.000 C 339.361 344.000,341.200 342.161,341.200 341.618 C 341.200 341.388,341.388 341.200,341.618 341.200 C 342.161 341.200,344.000 339.361,344.000 338.818 C 344.000 338.588,344.188 338.400,344.418 338.400 C 344.961 338.400,346.800 336.561,346.800 336.018 C 346.800 335.788,346.993 335.600,347.229 335.600 C 347.876 335.600,348.800 334.542,348.800 333.800 C 348.800 333.058,349.724 332.000,350.371 332.000 C 350.607 332.000,350.800 331.812,350.800 331.582 C 350.800 331.039,352.639 329.200,353.182 329.200 C 353.412 329.200,353.600 329.012,353.600 328.782 C 353.600 328.239,355.439 326.400,355.982 326.400 C 356.212 326.400,356.400 326.027,356.400 325.571 C 356.400 324.686,357.266 323.600,357.971 323.600 C 358.207 323.600,358.400 323.330,358.400 323.000 C 358.400 322.670,358.580 322.400,358.800 322.400 C 359.020 322.400,359.200 322.040,359.200 321.600 C 359.200 321.160,359.380 320.800,359.600 320.800 C 359.820 320.800,360.000 320.530,360.000 320.200 C 360.000 319.870,360.193 319.600,360.429 319.600 C 361.076 319.600,362.000 318.542,362.000 317.800 C 362.000 317.153,362.897 316.000,363.400 316.000 C 363.903 316.000,364.800 314.847,364.800 314.200 C 364.800 313.458,365.724 312.400,366.371 312.400 C 366.607 312.400,366.800 311.950,366.800 311.400 C 366.800 310.850,366.980 310.400,367.200 310.400 C 367.420 310.400,367.600 310.130,367.600 309.800 C 367.600 309.470,367.780 309.200,368.000 309.200 C 368.220 309.200,368.400 308.840,368.400 308.400 C 368.400 307.956,368.667 307.600,369.000 307.600 C 369.358 307.600,369.600 307.232,369.600 306.688 C 369.600 306.187,369.960 305.517,370.400 305.200 C 370.840 304.883,371.200 304.213,371.200 303.712 C 371.200 303.210,371.393 302.800,371.629 302.800 C 372.334 302.800,373.200 301.714,373.200 300.829 C 373.200 300.373,373.380 300.000,373.600 300.000 C 373.820 300.000,374.000 299.550,374.000 299.000 C 374.000 298.378,374.227 298.000,374.600 298.000 C 374.933 298.000,375.200 297.644,375.200 297.200 C 375.200 296.760,375.380 296.400,375.600 296.400 C 375.820 296.400,376.000 296.130,376.000 295.800 C 376.000 295.470,376.180 295.200,376.400 295.200 C 376.620 295.200,376.800 294.840,376.800 294.400 C 376.800 293.956,377.067 293.600,377.400 293.600 C 377.773 293.600,378.000 293.222,378.000 292.600 C 378.000 292.050,378.180 291.600,378.400 291.600 C 378.620 291.600,378.800 291.150,378.800 290.600 C 378.800 289.978,379.027 289.600,379.400 289.600 C 379.773 289.600,380.000 289.222,380.000 288.600 C 380.000 288.050,380.180 287.600,380.400 287.600 C 380.620 287.600,380.800 287.240,380.800 286.800 C 380.800 286.360,380.980 286.000,381.200 286.000 C 381.420 286.000,381.600 285.370,381.600 284.600 C 381.600 283.622,381.781 283.200,382.200 283.200 C 382.573 283.200,382.800 282.822,382.800 282.200 C 382.800 281.650,382.980 281.200,383.200 281.200 C 383.420 281.200,383.600 280.750,383.600 280.200 C 383.600 279.650,383.780 279.200,384.000 279.200 C 384.220 279.200,384.400 278.840,384.400 278.400 C 384.400 277.956,384.667 277.600,385.000 277.600 C 385.419 277.600,385.600 277.178,385.600 276.200 C 385.600 275.430,385.780 274.800,386.000 274.800 C 386.220 274.800,386.400 274.170,386.400 273.400 C 386.400 272.630,386.580 272.000,386.800 272.000 C 387.020 272.000,387.200 271.550,387.200 271.000 C 387.200 270.378,387.427 270.000,387.800 270.000 C 388.219 270.000,388.400 269.578,388.400 268.600 C 388.400 267.830,388.580 267.200,388.800 267.200 C 389.020 267.200,389.200 266.570,389.200 265.800 C 389.200 265.030,389.380 264.400,389.600 264.400 C 389.820 264.400,390.000 263.770,390.000 263.000 C 390.000 262.022,390.181 261.600,390.600 261.600 C 391.019 261.600,391.200 261.178,391.200 260.200 C 391.200 259.430,391.380 258.800,391.600 258.800 C 391.820 258.800,392.000 257.900,392.000 256.800 C 392.000 255.700,392.180 254.800,392.400 254.800 C 392.620 254.800,392.800 254.170,392.800 253.400 C 392.800 252.422,392.981 252.000,393.400 252.000 C 393.844 252.000,394.000 251.533,394.000 250.200 C 394.000 249.210,394.180 248.400,394.400 248.400 C 394.620 248.400,394.800 247.590,394.800 246.600 C 394.800 245.610,394.980 244.800,395.200 244.800 C 395.422 244.800,395.600 243.733,395.600 242.400 C 395.600 240.533,395.733 240.000,396.200 240.000 C 396.667 240.000,396.800 239.467,396.800 237.600 C 396.800 236.267,396.978 235.200,397.200 235.200 C 397.429 235.200,397.600 234.000,397.600 232.400 C 397.600 230.800,397.771 229.600,398.000 229.600 C 398.241 229.600,398.400 227.933,398.400 225.400 C 398.400 222.152,398.522 221.200,398.937 221.200 C 399.366 221.200,399.530 219.067,399.751 210.600 C 400.124 196.360,399.674 178.800,398.937 178.800 C 398.522 178.800,398.400 177.848,398.400 174.600 C 398.400 172.067,398.241 170.400,398.000 170.400 C 397.771 170.400,397.600 169.200,397.600 167.600 C 397.600 166.000,397.429 164.800,397.200 164.800 C 396.978 164.800,396.800 163.733,396.800 162.400 C 396.800 160.533,396.667 160.000,396.200 160.000 C 395.739 160.000,395.600 159.489,395.600 157.800 C 395.600 156.590,395.420 155.600,395.200 155.600 C 394.980 155.600,394.800 154.700,394.800 153.600 C 394.800 152.500,394.620 151.600,394.400 151.600 C 394.180 151.600,394.000 150.790,394.000 149.800 C 394.000 148.467,393.844 148.000,393.400 148.000 C 392.981 148.000,392.800 147.578,392.800 146.600 C 392.800 145.830,392.620 145.200,392.400 145.200 C 392.180 145.200,392.000 144.300,392.000 143.200 C 392.000 142.100,391.820 141.200,391.600 141.200 C 391.380 141.200,391.200 140.570,391.200 139.800 C 391.200 138.822,391.019 138.400,390.600 138.400 C 390.181 138.400,390.000 137.978,390.000 137.000 C 390.000 136.230,389.820 135.600,389.600 135.600 C 389.380 135.600,389.200 134.970,389.200 134.200 C 389.200 133.430,389.020 132.800,388.800 132.800 C 388.580 132.800,388.400 132.170,388.400 131.400 C 388.400 130.422,388.219 130.000,387.800 130.000 C 387.427 130.000,387.200 129.622,387.200 129.000 C 387.200 128.450,387.020 128.000,386.800 128.000 C 386.580 128.000,386.400 127.370,386.400 126.600 C 386.400 125.830,386.220 125.200,386.000 125.200 C 385.780 125.200,385.600 124.840,385.600 124.400 C 385.600 123.956,385.333 123.600,385.000 123.600 C 384.581 123.600,384.400 123.178,384.400 122.200 C 384.400 121.430,384.220 120.800,384.000 120.800 C 383.780 120.800,383.600 120.350,383.600 119.800 C 383.600 119.250,383.420 118.800,383.200 118.800 C 382.980 118.800,382.800 118.350,382.800 117.800 C 382.800 117.178,382.573 116.800,382.200 116.800 C 381.781 116.800,381.600 116.378,381.600 115.400 C 381.600 114.630,381.420 114.000,381.200 114.000 C 380.980 114.000,380.800 113.640,380.800 113.200 C 380.800 112.760,380.620 112.400,380.400 112.400 C 380.180 112.400,380.000 111.950,380.000 111.400 C 380.000 110.778,379.773 110.400,379.400 110.400 C 379.027 110.400,378.800 110.022,378.800 109.400 C 378.800 108.850,378.620 108.400,378.400 108.400 C 378.180 108.400,378.000 107.950,378.000 107.400 C 378.000 106.850,377.807 106.400,377.571 106.400 C 376.866 106.400,376.000 105.314,376.000 104.429 C 376.000 103.973,375.820 103.600,375.600 103.600 C 375.380 103.600,375.200 103.240,375.200 102.800 C 375.200 102.356,374.933 102.000,374.600 102.000 C 374.242 102.000,374.000 101.632,374.000 101.088 C 374.000 100.587,373.640 99.917,373.200 99.600 C 372.760 99.283,372.400 98.613,372.400 98.112 C 372.400 97.568,372.158 97.200,371.800 97.200 C 371.442 97.200,371.200 96.832,371.200 96.288 C 371.200 95.787,370.840 95.117,370.400 94.800 C 369.960 94.483,369.600 93.813,369.600 93.312 C 369.600 92.768,369.358 92.400,369.000 92.400 C 368.667 92.400,368.400 92.044,368.400 91.600 C 368.400 91.160,368.220 90.800,368.000 90.800 C 367.780 90.800,367.600 90.530,367.600 90.200 C 367.600 89.870,367.420 89.600,367.200 89.600 C 366.980 89.600,366.800 89.265,366.800 88.856 C 366.800 88.447,366.350 87.774,365.800 87.361 C 365.250 86.948,364.800 86.280,364.800 85.876 C 364.800 85.169,363.928 84.000,363.400 84.000 C 362.897 84.000,362.000 82.847,362.000 82.200 C 362.000 81.458,361.076 80.400,360.429 80.400 C 360.193 80.400,360.000 80.130,360.000 79.800 C 360.000 79.470,359.820 79.200,359.600 79.200 C 359.380 79.200,359.200 78.916,359.200 78.569 C 359.200 77.873,356.278 74.800,355.616 74.800 C 355.387 74.800,355.200 74.390,355.200 73.888 C 355.200 73.387,354.840 72.717,354.400 72.400 C 353.960 72.083,353.600 71.593,353.600 71.312 C 353.600 71.030,353.412 70.800,353.182 70.800 C 352.639 70.800,350.800 68.961,350.800 68.418 C 350.800 68.188,350.607 68.000,350.371 68.000 C 349.724 68.000,348.800 66.942,348.800 66.200 C 348.800 65.458,347.876 64.400,347.229 64.400 C 346.993 64.400,346.800 64.212,346.800 63.982 C 346.800 63.439,344.961 61.600,344.418 61.600 C 344.188 61.600,344.000 61.412,344.000 61.182 C 344.000 60.639,342.161 58.800,341.618 58.800 C 341.388 58.800,341.200 58.612,341.200 58.382 C 341.200 57.839,339.361 56.000,338.818 56.000 C 338.588 56.000,338.400 55.812,338.400 55.582 C 338.400 55.039,336.561 53.200,336.018 53.200 C 335.788 53.200,335.600 53.007,335.600 52.771 C 335.600 52.124,334.542 51.200,333.800 51.200 C 333.058 51.200,332.000 50.276,332.000 49.629 C 332.000 49.393,331.812 49.200,331.582 49.200 C 331.039 49.200,329.200 47.361,329.200 46.818 C 329.200 46.588,328.970 46.400,328.688 46.400 C 328.407 46.400,327.917 46.040,327.600 45.600 C 327.283 45.160,326.613 44.800,326.112 44.800 C 325.610 44.800,325.200 44.613,325.200 44.384 C 325.200 43.722,322.127 40.800,321.431 40.800 C 321.084 40.800,320.800 40.620,320.800 40.400 C 320.800 40.180,320.530 40.000,320.200 40.000 C 319.870 40.000,319.600 39.807,319.600 39.571 C 319.600 38.924,318.542 38.000,317.800 38.000 C 317.058 38.000,316.000 37.076,316.000 36.429 C 316.000 36.193,315.595 35.996,315.100 35.991 C 314.576 35.986,313.701 35.402,313.004 34.591 C 312.346 33.826,311.491 33.200,311.104 33.200 C 310.717 33.200,310.400 33.020,310.400 32.800 C 310.400 32.580,310.130 32.400,309.800 32.400 C 309.470 32.400,309.200 32.220,309.200 32.000 C 309.200 31.780,308.840 31.600,308.400 31.600 C 307.956 31.600,307.600 31.333,307.600 31.000 C 307.600 30.642,307.232 30.400,306.688 30.400 C 306.187 30.400,305.517 30.040,305.200 29.600 C 304.883 29.160,304.213 28.800,303.712 28.800 C 303.168 28.800,302.800 28.558,302.800 28.200 C 302.800 27.842,302.432 27.600,301.888 27.600 C 301.387 27.600,300.717 27.240,300.400 26.800 C 300.083 26.360,299.413 26.000,298.912 26.000 C 298.368 26.000,298.000 25.758,298.000 25.400 C 298.000 25.067,297.644 24.800,297.200 24.800 C 296.760 24.800,296.400 24.620,296.400 24.400 C 296.400 24.180,295.950 24.000,295.400 24.000 C 294.850 24.000,294.400 23.820,294.400 23.600 C 294.400 23.380,293.950 23.200,293.400 23.200 C 292.850 23.200,292.400 23.007,292.400 22.771 C 292.400 22.066,291.314 21.200,290.429 21.200 C 289.959 21.200,289.600 20.940,289.600 20.600 C 289.600 20.227,289.222 20.000,288.600 20.000 C 288.050 20.000,287.600 19.820,287.600 19.600 C 287.600 19.380,287.240 19.200,286.800 19.200 C 286.360 19.200,286.000 19.020,286.000 18.800 C 286.000 18.580,285.370 18.400,284.600 18.400 C 283.622 18.400,283.200 18.219,283.200 17.800 C 283.200 17.427,282.822 17.200,282.200 17.200 C 281.650 17.200,281.200 17.020,281.200 16.800 C 281.200 16.580,280.750 16.400,280.200 16.400 C 279.650 16.400,279.200 16.220,279.200 16.000 C 279.200 15.780,278.840 15.600,278.400 15.600 C 277.956 15.600,277.600 15.333,277.600 15.000 C 277.600 14.581,277.178 14.400,276.200 14.400 C 275.430 14.400,274.800 14.220,274.800 14.000 C 274.800 13.780,274.170 13.600,273.400 13.600 C 272.630 13.600,272.000 13.420,272.000 13.200 C 272.000 12.980,271.550 12.800,271.000 12.800 C 270.378 12.800,270.000 12.573,270.000 12.200 C 270.000 11.781,269.578 11.600,268.600 11.600 C 267.830 11.600,267.200 11.420,267.200 11.200 C 267.200 10.980,266.570 10.800,265.800 10.800 C 265.030 10.800,264.400 10.620,264.400 10.400 C 264.400 10.180,263.770 10.000,263.000 10.000 C 262.022 10.000,261.600 9.819,261.600 9.400 C 261.600 8.981,261.178 8.800,260.200 8.800 C 259.430 8.800,258.800 8.620,258.800 8.400 C 258.800 8.180,257.900 8.000,256.800 8.000 C 255.700 8.000,254.800 7.820,254.800 7.600 C 254.800 7.380,254.170 7.200,253.400 7.200 C 252.422 7.200,252.000 7.019,252.000 6.600 C 252.000 6.156,251.533 6.000,250.200 6.000 C 249.210 6.000,248.400 5.820,248.400 5.600 C 248.400 5.380,247.590 5.200,246.600 5.200 C 245.610 5.200,244.800 5.020,244.800 4.800 C 244.800 4.578,243.733 4.400,242.400 4.400 C 240.533 4.400,240.000 4.267,240.000 3.800 C 240.000 3.333,239.467 3.200,237.600 3.200 C 236.267 3.200,235.200 3.022,235.200 2.800 C 235.200 2.567,233.867 2.400,232.000 2.400 C 230.133 2.400,228.800 2.233,228.800 2.000 C 228.800 1.761,227.267 1.600,225.000 1.600 C 222.091 1.600,221.200 1.474,221.200 1.064 C 221.200 0.491,206.475 -0.096,196.800 0.091 C 194.270 0.139,189.185 0.233,185.500 0.299 M191.200 84.400 C 191.200 84.620,192.190 84.800,193.400 84.800 C 195.089 84.800,195.600 84.939,195.600 85.400 C 195.600 85.850,196.079 86.000,197.512 86.000 C 198.965 86.000,199.562 86.192,200.000 86.800 C 200.375 87.320,201.035 87.600,201.888 87.600 C 202.788 87.600,203.200 87.789,203.200 88.200 C 203.200 88.540,203.559 88.800,204.027 88.800 C 204.482 88.800,205.448 89.430,206.174 90.200 C 206.900 90.970,207.788 91.600,208.147 91.600 C 208.506 91.600,208.800 91.780,208.800 92.000 C 208.800 92.220,209.070 92.400,209.400 92.400 C 209.758 92.400,210.000 92.768,210.000 93.312 C 210.000 93.813,210.360 94.483,210.800 94.800 C 211.240 95.117,211.600 95.607,211.600 95.888 C 211.600 96.170,211.870 96.400,212.200 96.400 C 212.533 96.400,212.800 96.756,212.800 97.200 C 212.800 97.640,212.980 98.000,213.200 98.000 C 213.420 98.000,213.600 98.270,213.600 98.600 C 213.600 98.930,213.780 99.200,214.000 99.200 C 214.220 99.200,214.400 99.830,214.400 100.600 C 214.400 101.578,214.581 102.000,215.000 102.000 C 215.333 102.000,215.600 102.356,215.600 102.800 C 215.600 103.240,215.780 103.600,216.000 103.600 C 216.222 103.600,216.400 104.667,216.400 106.000 C 216.400 107.333,216.578 108.400,216.800 108.400 C 217.022 108.400,217.200 109.467,217.200 110.800 C 217.200 112.667,217.333 113.200,217.800 113.200 C 218.130 113.200,218.400 113.380,218.400 113.600 C 218.400 113.861,224.467 114.000,235.800 114.000 C 251.000 114.000,253.200 114.076,253.200 114.600 C 253.200 115.083,253.822 115.200,256.400 115.200 C 258.267 115.200,259.600 115.367,259.600 115.600 C 259.600 115.822,260.667 116.000,262.000 116.000 C 263.333 116.000,264.400 116.178,264.400 116.400 C 264.400 116.620,264.766 116.800,265.213 116.800 C 265.659 116.800,266.129 117.070,266.255 117.400 C 266.382 117.730,266.826 118.000,267.243 118.000 C 267.659 118.000,268.000 118.180,268.000 118.400 C 268.000 118.620,268.450 118.800,269.000 118.800 C 269.550 118.800,270.000 118.980,270.000 119.200 C 270.000 119.420,270.450 119.600,271.000 119.600 C 271.550 119.600,272.000 119.788,272.000 120.018 C 272.000 120.561,273.839 122.400,274.382 122.400 C 274.612 122.400,274.800 122.588,274.800 122.818 C 274.800 123.361,276.639 125.200,277.182 125.200 C 277.412 125.200,277.600 125.470,277.600 125.800 C 277.600 126.130,277.780 126.400,278.000 126.400 C 278.220 126.400,278.400 126.953,278.400 127.629 C 278.400 128.854,279.159 130.000,279.971 130.000 C 280.207 130.000,280.400 130.450,280.400 131.000 C 280.400 131.550,280.580 132.000,280.800 132.000 C 281.020 132.000,281.200 132.450,281.200 133.000 C 281.200 133.550,281.380 134.000,281.600 134.000 C 281.820 134.000,282.000 134.810,282.000 135.800 C 282.000 137.133,282.156 137.600,282.600 137.600 C 283.083 137.600,283.200 138.222,283.200 140.800 C 283.200 142.667,283.367 144.000,283.600 144.000 C 283.829 144.000,284.000 145.200,284.000 146.800 C 284.000 148.400,284.171 149.600,284.400 149.600 C 284.662 149.600,284.800 157.267,284.800 171.800 C 284.800 186.333,284.662 194.000,284.400 194.000 C 284.180 194.000,284.000 194.810,284.000 195.800 C 284.000 196.790,283.820 197.600,283.600 197.600 C 283.380 197.600,283.200 198.500,283.200 199.600 C 283.200 200.756,283.019 201.600,282.771 201.600 C 282.124 201.600,281.200 202.658,281.200 203.400 C 281.200 204.047,280.303 205.200,279.800 205.200 C 279.659 205.200,279.286 205.457,278.971 205.771 C 278.657 206.086,278.400 206.459,278.400 206.600 C 278.400 207.157,277.213 208.000,276.429 208.000 C 275.973 208.000,275.600 208.180,275.600 208.400 C 275.600 208.620,275.150 208.800,274.600 208.800 C 273.978 208.800,273.600 209.027,273.600 209.400 C 273.600 209.803,273.197 210.000,272.371 210.000 C 271.023 210.000,270.000 210.777,270.000 211.800 C 270.000 212.542,270.924 213.600,271.571 213.600 C 271.807 213.600,272.000 213.780,272.000 214.000 C 272.000 214.220,272.630 214.400,273.400 214.400 C 274.378 214.400,274.800 214.581,274.800 215.000 C 274.800 215.333,275.156 215.600,275.600 215.600 C 276.040 215.600,276.400 215.780,276.400 216.000 C 276.400 216.220,276.593 216.400,276.829 216.400 C 277.295 216.400,278.400 217.385,278.400 217.800 C 278.400 217.941,278.657 218.314,278.971 218.629 C 279.286 218.943,279.659 219.200,279.800 219.200 C 280.312 219.200,281.200 220.358,281.200 221.026 C 281.200 221.401,281.650 222.125,282.200 222.635 C 282.845 223.233,283.200 223.994,283.200 224.781 C 283.200 225.451,283.380 226.000,283.600 226.000 C 283.820 226.000,284.000 226.990,284.000 228.200 C 284.000 229.410,284.180 230.400,284.400 230.400 C 284.662 230.400,284.800 238.067,284.800 252.600 C 284.800 267.133,284.662 274.800,284.400 274.800 C 284.167 274.800,284.000 276.133,284.000 278.000 C 284.000 279.867,283.833 281.200,283.600 281.200 C 283.367 281.200,283.200 282.519,283.200 284.357 C 283.200 286.795,283.063 287.567,282.600 287.745 C 282.223 287.889,282.000 288.501,282.000 289.387 C 282.000 290.164,281.820 290.800,281.600 290.800 C 281.380 290.800,281.200 291.160,281.200 291.600 C 281.200 292.040,281.020 292.400,280.800 292.400 C 280.580 292.400,280.400 292.850,280.400 293.400 C 280.400 294.022,280.173 294.400,279.800 294.400 C 279.442 294.400,279.200 294.768,279.200 295.312 C 279.200 295.813,278.840 296.483,278.400 296.800 C 277.960 297.117,277.600 297.787,277.600 298.288 C 277.600 298.790,277.412 299.200,277.182 299.200 C 276.639 299.200,274.800 301.039,274.800 301.582 C 274.800 301.812,274.530 302.000,274.200 302.000 C 273.870 302.000,273.600 302.180,273.600 302.400 C 273.600 302.620,273.240 302.800,272.800 302.800 C 272.360 302.800,272.000 302.980,272.000 303.200 C 272.000 303.420,271.730 303.600,271.400 303.600 C 271.070 303.600,270.800 303.793,270.800 304.029 C 270.800 304.841,269.654 305.600,268.429 305.600 C 267.753 305.600,267.200 305.780,267.200 306.000 C 267.200 306.220,266.750 306.400,266.200 306.400 C 265.578 306.400,265.200 306.627,265.200 307.000 C 265.200 307.373,264.822 307.600,264.200 307.600 C 263.650 307.600,263.200 307.780,263.200 308.000 C 263.200 308.220,262.210 308.400,261.000 308.400 C 259.790 308.400,258.800 308.580,258.800 308.800 C 258.800 309.020,257.984 309.200,256.987 309.200 C 255.745 309.200,255.102 309.389,254.945 309.800 C 254.743 310.327,250.706 310.400,221.957 310.400 C 193.106 310.400,189.200 310.328,189.200 309.800 C 189.200 309.470,189.020 309.200,188.800 309.200 C 188.580 309.200,188.400 308.840,188.400 308.400 C 188.400 307.956,188.133 307.600,187.800 307.600 C 187.278 307.600,187.200 305.775,187.200 293.571 C 187.200 281.947,187.102 279.445,186.629 278.971 C 186.143 278.486,181.280 278.400,154.229 278.400 L 122.400 278.400 122.400 277.400 C 122.400 276.850,122.220 276.400,122.000 276.400 C 121.734 276.400,121.600 244.400,121.600 181.200 C 121.600 118.000,121.734 86.000,122.000 86.000 C 122.220 86.000,122.400 85.550,122.400 85.000 L 122.400 84.000 156.800 84.000 C 179.467 84.000,191.200 84.136,191.200 84.400 M153.600 114.533 C 153.600 114.827,153.695 115.162,153.812 115.279 C 153.929 115.395,154.016 126.384,154.006 139.697 C 153.996 153.011,154.100 164.195,154.237 164.552 C 154.625 165.564,180.968 165.534,182.088 164.520 C 182.502 164.146,183.449 163.840,184.194 163.840 C 185.162 163.840,185.602 163.634,185.737 163.120 C 185.840 162.724,185.787 162.400,185.618 162.400 C 184.977 162.400,185.748 160.286,186.457 160.101 C 187.666 159.785,187.610 120.200,186.400 119.884 C 185.618 119.680,185.437 119.054,185.506 116.800 C 185.527 116.142,185.468 116.045,185.336 116.517 C 185.123 117.276,184.002 117.160,182.800 116.253 C 180.931 114.842,180.488 114.800,167.629 114.800 C 159.539 114.800,154.756 114.653,154.600 114.400 C 154.243 113.823,153.600 113.908,153.600 114.533 M219.200 145.576 C 219.200 145.783,219.380 146.064,219.600 146.200 C 220.212 146.578,220.144 194.264,219.532 194.642 C 219.221 194.834,219.356 195.040,219.932 195.253 C 220.409 195.430,220.800 195.886,220.800 196.267 C 220.800 196.806,220.907 196.853,221.280 196.480 C 221.898 195.862,244.400 195.784,244.400 196.400 C 244.400 196.620,244.560 196.800,244.756 196.800 C 244.951 196.800,245.086 196.485,245.056 196.100 C 245.009 195.516,245.281 195.422,246.700 195.534 C 247.635 195.608,248.400 195.497,248.400 195.287 C 248.400 194.586,252.130 191.164,252.669 191.371 C 253.077 191.528,253.200 190.974,253.200 188.987 C 253.200 187.529,253.025 186.400,252.800 186.400 C 252.540 186.400,252.400 181.000,252.400 171.000 C 252.400 161.000,252.540 155.600,252.800 155.600 C 253.020 155.600,253.200 154.610,253.200 153.400 C 253.200 151.685,253.064 151.200,252.583 151.200 C 251.705 151.200,250.231 149.752,250.770 149.419 C 251.712 148.836,251.269 146.800,250.200 146.800 C 249.650 146.800,249.200 146.980,249.200 147.200 C 249.200 148.052,248.011 147.542,247.336 146.400 L 246.628 145.200 232.914 145.200 C 224.611 145.200,219.200 145.349,219.200 145.576 M154.243 198.233 C 154.109 198.581,154.000 209.741,154.000 223.033 C 154.000 244.248,153.927 247.200,153.400 247.200 C 153.070 247.200,152.800 246.990,152.800 246.733 C 152.800 246.477,152.678 246.389,152.529 246.538 C 152.380 246.687,152.665 247.188,153.162 247.651 C 153.828 248.271,154.184 248.376,154.513 248.047 C 154.824 247.736,158.894 247.600,167.856 247.600 C 176.023 247.600,180.843 247.453,181.000 247.200 C 181.136 246.980,181.676 246.800,182.200 246.800 C 182.724 246.800,183.264 246.619,183.401 246.399 C 183.537 246.178,184.079 246.105,184.605 246.237 C 185.418 246.441,185.553 246.337,185.507 245.538 C 185.361 242.992,185.611 241.922,186.400 241.716 C 187.617 241.398,187.662 204.081,186.447 203.322 C 185.565 202.772,185.046 199.966,185.886 200.288 C 186.169 200.397,186.400 200.286,186.400 200.043 C 186.400 199.607,185.880 199.443,184.900 199.570 C 184.416 199.633,184.236 199.134,184.370 198.100 C 184.406 197.825,184.247 197.600,184.018 197.600 C 183.788 197.600,183.600 197.780,183.600 198.000 C 183.600 198.220,183.251 198.400,182.824 198.400 C 182.397 198.400,181.936 198.220,181.800 198.000 C 181.336 197.249,154.533 197.476,154.243 198.233 M219.200 228.120 C 219.200 228.406,219.383 228.823,219.606 229.046 C 219.875 229.315,219.976 237.622,219.906 253.522 C 219.823 272.487,219.906 277.632,220.300 277.783 C 220.575 277.889,220.800 278.251,220.800 278.587 C 220.800 279.125,222.352 279.200,233.400 279.200 C 244.711 279.200,246.000 279.134,246.000 278.557 C 246.000 278.070,246.244 277.974,247.000 278.164 C 247.738 278.349,248.000 278.256,248.000 277.808 C 248.000 277.473,248.281 277.200,248.624 277.200 C 249.006 277.200,249.138 277.393,248.965 277.700 C 248.773 278.040,248.817 278.072,249.102 277.800 C 249.333 277.580,249.586 277.040,249.665 276.600 C 249.759 276.071,250.178 275.757,250.903 275.673 C 251.507 275.604,252.000 275.379,252.000 275.173 C 252.000 274.968,252.270 274.800,252.600 274.800 C 253.307 274.800,253.492 269.428,252.800 269.000 C 252.544 268.842,252.400 263.063,252.400 252.976 C 252.400 242.725,252.540 237.200,252.800 237.200 C 253.020 237.200,253.200 236.300,253.200 235.200 C 253.200 233.664,253.057 233.200,252.583 233.200 C 251.767 233.200,247.600 229.048,247.600 228.235 C 247.600 227.667,246.101 227.600,233.400 227.600 C 222.015 227.600,219.200 227.703,219.200 228.120 " stroke="none" fill="#fcfcfc" fill-rule="evenodd"></path><path id="path1" d="M154.400 113.800 C 154.400 114.321,156.133 114.400,167.600 114.400 C 179.067 114.400,180.800 114.321,180.800 113.800 C 180.800 113.279,179.067 113.200,167.600 113.200 C 156.133 113.200,154.400 113.279,154.400 113.800 M181.285 114.700 C 181.364 115.085,181.717 115.352,182.069 115.293 C 182.421 115.234,182.814 115.459,182.942 115.793 C 183.243 116.578,184.400 116.584,184.400 115.800 C 184.400 115.464,184.043 115.200,183.587 115.200 C 183.141 115.200,182.671 114.930,182.545 114.600 C 182.218 113.749,181.108 113.837,181.285 114.700 M152.649 115.816 C 152.067 117.333,152.375 165.600,152.967 165.600 C 153.278 165.600,153.597 165.790,153.674 166.022 C 153.894 166.681,181.600 166.759,181.600 166.100 C 181.600 165.825,181.375 165.594,181.100 165.587 C 180.825 165.580,174.660 165.535,167.400 165.487 L 154.200 165.400 154.000 140.433 C 153.807 116.349,153.637 113.243,152.649 115.816 M182.275 164.658 C 181.753 165.180,182.002 165.600,182.833 165.600 C 183.299 165.600,183.597 165.390,183.508 165.125 C 183.313 164.540,182.646 164.288,182.275 164.658 M153.300 196.560 L 152.400 197.513 152.406 221.856 C 152.409 235.245,152.569 246.448,152.761 246.751 C 153.891 248.535,154.000 246.364,154.000 221.976 L 154.000 197.200 167.829 197.200 C 180.785 197.200,181.650 197.156,181.524 196.500 C 181.399 195.852,180.380 195.793,167.795 195.703 L 154.200 195.607 153.300 196.560 M182.000 197.400 C 182.000 197.733,182.356 198.000,182.800 198.000 C 183.244 198.000,183.600 197.733,183.600 197.400 C 183.600 197.067,183.244 196.800,182.800 196.800 C 182.356 196.800,182.000 197.067,182.000 197.400 M181.200 247.800 C 181.200 248.200,181.600 248.400,182.400 248.400 C 183.200 248.400,183.600 248.200,183.600 247.800 C 183.600 247.400,183.200 247.200,182.400 247.200 C 181.600 247.200,181.200 247.400,181.200 247.800 M154.672 248.261 C 153.855 249.079,155.532 249.200,167.633 249.200 C 178.042 249.200,180.831 249.093,180.700 248.700 C 180.519 248.155,155.205 247.728,154.672 248.261 " stroke="none" fill="#ecd9f4" fill-rule="evenodd"></path><path id="path2" d="M186.400 118.600 C 186.400 118.930,186.580 119.200,186.800 119.200 C 187.020 119.200,187.200 118.930,187.200 118.600 C 187.200 118.270,187.020 118.000,186.800 118.000 C 186.580 118.000,186.400 118.270,186.400 118.600 M252.800 171.000 C 252.800 184.422,252.877 186.400,253.400 186.400 C 253.923 186.400,254.000 184.422,254.000 171.000 C 254.000 157.578,253.923 155.600,253.400 155.600 C 252.877 155.600,252.800 157.578,252.800 171.000 M250.945 193.400 C 251.071 193.730,250.971 194.000,250.721 194.000 C 250.471 194.000,250.361 194.094,250.476 194.209 C 250.591 194.325,250.981 194.305,251.343 194.167 C 252.188 193.842,252.199 192.800,251.357 192.800 C 250.950 192.800,250.799 193.020,250.945 193.400 M186.400 201.400 C 186.400 201.950,186.580 202.400,186.800 202.400 C 187.020 202.400,187.200 201.950,187.200 201.400 C 187.200 200.850,187.020 200.400,186.800 200.400 C 186.580 200.400,186.400 200.850,186.400 201.400 M248.071 228.267 C 248.265 229.270,249.200 229.408,249.200 228.433 C 249.200 227.942,248.942 227.600,248.571 227.600 C 248.198 227.600,247.994 227.872,248.071 228.267 M250.800 231.000 C 250.800 231.330,251.070 231.600,251.400 231.600 C 251.730 231.600,252.000 231.780,252.000 232.000 C 252.000 232.220,252.315 232.394,252.700 232.387 C 253.367 232.375,253.367 232.349,252.700 231.843 C 252.315 231.551,252.000 231.107,252.000 230.856 C 252.000 230.605,251.730 230.400,251.400 230.400 C 251.070 230.400,250.800 230.670,250.800 231.000 M252.895 253.100 C 252.963 263.364,253.142 269.000,253.400 269.000 C 253.658 269.000,253.837 263.364,253.905 253.100 C 253.997 239.081,253.937 237.200,253.400 237.200 C 252.863 237.200,252.803 239.081,252.895 253.100 M186.400 243.824 C 186.400 244.404,186.573 244.740,186.800 244.600 C 187.020 244.464,187.200 244.003,187.200 243.576 C 187.200 243.149,187.020 242.800,186.800 242.800 C 186.580 242.800,186.400 243.261,186.400 243.824 M250.000 277.033 C 250.000 277.740,250.861 277.617,251.108 276.875 C 251.195 276.614,250.982 276.400,250.633 276.400 C 250.285 276.400,250.000 276.685,250.000 277.033 " stroke="none" fill="#d9f4e1" fill-rule="evenodd"></path><path id="path3" d="M218.400 170.400 C 218.400 189.796,218.504 194.832,218.900 194.700 C 219.293 194.569,219.400 189.351,219.400 170.400 C 219.400 151.449,219.293 146.231,218.900 146.100 C 218.504 145.968,218.400 151.004,218.400 170.400 M248.000 146.800 C 248.000 147.020,248.270 147.200,248.600 147.200 C 248.930 147.200,249.200 147.020,249.200 146.800 C 249.200 146.580,248.930 146.400,248.600 146.400 C 248.270 146.400,248.000 146.580,248.000 146.800 M252.581 170.800 C 252.581 179.050,252.634 182.425,252.699 178.300 C 252.764 174.175,252.764 167.425,252.699 163.300 C 252.634 159.175,252.581 162.550,252.581 170.800 M251.682 192.250 C 251.258 192.704,251.306 192.800,251.961 192.800 C 252.898 192.800,253.411 192.167,252.696 191.892 C 252.421 191.787,251.965 191.948,251.682 192.250 M249.690 194.188 C 248.325 195.607,249.263 196.394,250.657 195.000 C 251.119 194.538,251.136 194.399,250.729 194.394 C 250.301 194.389,250.304 194.322,250.743 194.044 C 251.041 193.855,251.127 193.602,250.932 193.482 C 250.738 193.362,250.179 193.680,249.690 194.188 M221.473 196.661 C 221.323 196.811,221.200 197.086,221.200 197.273 C 221.200 197.767,244.377 197.495,244.500 197.000 C 244.614 196.545,221.923 196.211,221.473 196.661 M186.046 201.700 C 186.013 202.501,186.190 202.798,186.700 202.794 C 187.144 202.790,187.234 202.680,186.946 202.494 C 186.697 202.332,186.403 201.840,186.293 201.400 C 186.139 200.787,186.082 200.857,186.046 201.700 M218.400 253.187 C 218.400 274.701,218.471 277.548,219.000 277.345 C 219.524 277.144,219.600 274.061,219.600 252.957 C 219.600 231.751,219.527 228.800,219.000 228.800 C 218.473 228.800,218.400 231.776,218.400 253.187 M249.036 229.142 C 248.920 229.330,249.246 229.880,249.761 230.364 C 250.601 231.153,250.724 231.174,250.956 230.571 C 251.324 229.610,249.559 228.296,249.036 229.142 M251.521 232.230 C 252.016 232.576,252.641 232.771,252.910 232.661 C 253.191 232.548,253.101 232.450,252.700 232.432 C 252.315 232.414,252.000 232.220,252.000 232.000 C 252.000 231.780,251.690 231.600,251.311 231.600 C 250.748 231.600,250.786 231.715,251.521 232.230 M252.582 253.000 C 252.582 261.580,252.635 265.033,252.700 260.674 C 252.764 256.314,252.764 249.294,252.699 245.074 C 252.635 240.853,252.582 244.420,252.582 253.000 M186.154 242.577 C 186.032 242.894,186.017 243.479,186.120 243.877 C 186.268 244.450,186.317 244.413,186.354 243.700 C 186.379 243.205,186.580 242.800,186.800 242.800 C 187.020 242.800,187.200 242.620,187.200 242.400 C 187.200 241.789,186.404 241.924,186.154 242.577 M249.738 276.617 C 249.608 276.957,249.613 277.347,249.751 277.484 C 249.888 277.621,250.000 277.447,250.000 277.096 C 250.000 276.745,250.315 276.376,250.700 276.276 C 251.356 276.104,251.355 276.090,250.687 276.046 C 250.296 276.021,249.868 276.278,249.738 276.617 M219.200 278.633 C 219.200 279.340,220.061 279.217,220.308 278.475 C 220.395 278.214,220.182 278.000,219.833 278.000 C 219.485 278.000,219.200 278.285,219.200 278.633 " stroke="none" fill="#e4f4e4" fill-rule="evenodd"></path><path id="path4" d="M167.800 114.400 L 154.600 114.616 167.620 114.708 C 176.748 114.773,180.777 114.937,181.098 115.258 C 181.441 115.601,181.499 115.501,181.331 114.858 C 181.208 114.386,181.083 114.041,181.053 114.092 C 181.024 114.142,175.060 114.281,167.800 114.400 M182.611 115.958 C 183.701 117.005,185.200 117.425,185.200 116.682 C 185.200 116.289,184.889 116.170,184.205 116.301 C 183.532 116.430,183.130 116.283,182.962 115.846 C 182.826 115.491,182.514 115.200,182.268 115.200 C 182.023 115.200,182.177 115.541,182.611 115.958 M185.467 117.092 C 185.027 117.803,185.841 119.797,186.629 119.936 C 187.387 120.070,187.387 120.062,186.635 119.494 C 186.210 119.172,185.971 118.652,186.098 118.322 C 186.367 117.621,185.810 116.536,185.467 117.092 M246.809 145.500 C 246.830 146.220,248.332 147.686,248.842 147.484 C 249.246 147.324,249.207 147.254,248.700 147.232 C 247.985 147.199,247.684 146.400,248.387 146.400 C 248.601 146.400,248.671 146.130,248.545 145.800 C 248.314 145.199,246.792 144.936,246.809 145.500 M219.400 170.400 C 219.400 183.778,219.535 194.640,219.700 194.538 C 219.865 194.436,220.000 183.574,220.000 170.400 C 220.000 157.226,219.865 146.364,219.700 146.262 C 219.535 146.160,219.400 157.022,219.400 170.400 M250.863 149.324 C 250.370 149.918,251.559 151.200,252.605 151.200 C 253.676 151.200,252.921 149.729,251.800 149.634 C 251.580 149.615,251.445 149.420,251.500 149.200 C 251.638 148.649,251.382 148.699,250.863 149.324 M185.787 160.600 C 185.684 160.930,185.521 161.455,185.425 161.767 C 185.329 162.079,185.529 162.441,185.870 162.571 C 186.360 162.759,186.438 162.604,186.242 161.826 C 186.067 161.127,186.198 160.724,186.698 160.433 C 187.365 160.045,187.364 160.024,186.687 160.012 C 186.296 160.005,185.891 160.270,185.787 160.600 M183.200 163.891 C 182.066 164.323,180.648 165.600,181.303 165.600 C 181.639 165.600,182.020 165.326,182.148 164.990 C 182.308 164.574,182.686 164.457,183.337 164.620 C 183.997 164.786,184.366 164.665,184.533 164.230 C 184.780 163.587,184.312 163.468,183.200 163.891 M154.103 164.800 C 154.244 165.317,156.052 165.401,167.233 165.409 L 180.200 165.417 167.420 165.303 C 157.840 165.217,154.552 165.065,154.290 164.694 C 154.034 164.333,153.983 164.362,154.103 164.800 M161.500 166.699 C 164.415 166.767,169.185 166.767,172.100 166.699 C 175.015 166.631,172.630 166.575,166.800 166.575 C 160.970 166.575,158.585 166.631,161.500 166.699 M250.253 193.053 C 249.234 194.072,248.400 195.056,248.400 195.241 C 248.400 195.425,249.255 194.707,250.300 193.644 C 251.363 192.563,252.445 191.799,252.756 191.908 C 253.095 192.028,253.203 191.928,253.032 191.652 C 252.577 190.915,252.200 191.105,250.253 193.053 M219.268 195.859 C 219.346 196.262,219.738 196.654,220.141 196.732 C 220.669 196.833,220.833 196.669,220.732 196.141 C 220.654 195.738,220.262 195.346,219.859 195.268 C 219.331 195.167,219.167 195.331,219.268 195.859 M245.000 195.600 C 244.864 195.820,244.864 196.180,245.000 196.400 C 245.329 196.932,246.400 196.914,246.400 196.376 C 246.400 196.143,246.189 196.083,245.932 196.242 C 245.617 196.436,245.548 196.313,245.719 195.866 C 245.994 195.151,245.410 194.936,245.000 195.600 M221.461 196.300 C 221.359 196.465,224.723 196.554,228.938 196.498 C 243.237 196.307,244.634 196.169,233.124 196.084 C 226.812 196.038,221.564 196.135,221.461 196.300 M167.900 197.105 C 154.994 197.203,154.002 197.260,154.032 197.905 C 154.051 198.323,154.144 198.401,154.265 198.100 C 154.535 197.429,181.209 197.369,181.878 198.038 C 182.118 198.278,182.649 198.389,183.058 198.284 C 183.687 198.122,183.667 198.086,182.929 198.046 C 182.450 198.021,182.000 197.775,181.929 197.500 C 181.828 197.110,178.755 197.023,167.900 197.105 M184.273 199.045 C 184.514 199.675,185.046 199.772,185.372 199.245 C 185.492 199.050,185.246 198.801,184.825 198.691 C 184.289 198.551,184.124 198.657,184.273 199.045 M185.526 201.341 C 185.760 203.030,187.200 204.628,187.200 203.200 C 187.200 202.980,186.910 202.800,186.555 202.800 C 186.067 202.800,185.952 202.511,186.083 201.615 C 186.181 200.948,186.059 200.355,185.804 200.257 C 185.505 200.142,185.410 200.511,185.526 201.341 M247.600 228.569 C 247.600 229.195,251.997 233.200,252.683 233.198 C 253.231 233.196,253.164 233.071,252.400 232.668 C 251.850 232.378,250.545 231.269,249.500 230.204 C 248.455 229.139,247.600 228.403,247.600 228.569 M219.692 253.067 C 219.620 271.873,219.491 277.178,219.100 277.340 C 218.794 277.466,218.941 277.650,219.479 277.814 C 219.962 277.962,220.436 278.379,220.532 278.741 C 220.683 279.308,220.714 279.301,220.754 278.687 C 220.779 278.296,220.575 277.889,220.300 277.783 C 219.909 277.633,219.824 274.204,219.909 262.096 C 219.968 253.573,219.964 242.640,219.900 237.800 C 219.836 232.960,219.742 239.830,219.692 253.067 M185.819 242.100 C 185.258 243.895,185.182 245.672,185.674 245.504 C 186.012 245.389,186.154 244.813,186.073 243.897 C 185.979 242.849,186.138 242.358,186.673 242.047 C 187.361 241.647,187.362 241.624,186.687 241.612 C 186.296 241.605,185.905 241.825,185.819 242.100 M183.400 246.400 C 183.264 246.620,182.724 246.800,182.200 246.800 C 181.676 246.800,181.136 246.980,181.000 247.200 C 180.843 247.453,176.004 247.600,167.800 247.600 C 160.676 247.600,154.764 247.735,154.662 247.900 C 154.560 248.065,160.489 248.200,167.838 248.200 C 178.261 248.200,181.200 248.090,181.200 247.700 C 181.200 247.383,181.787 247.200,182.800 247.200 C 183.956 247.200,184.400 247.033,184.400 246.600 C 184.400 245.921,183.774 245.795,183.400 246.400 M248.000 277.800 C 248.000 278.130,248.240 278.400,248.533 278.400 C 248.827 278.400,249.067 278.130,249.067 277.800 C 249.067 277.470,248.827 277.200,248.533 277.200 C 248.240 277.200,248.000 277.470,248.000 277.800 M246.032 278.700 C 246.050 279.118,246.144 279.199,246.265 278.900 C 246.376 278.625,246.642 278.400,246.857 278.400 C 247.072 278.400,247.119 278.608,246.962 278.862 C 246.784 279.150,246.852 279.215,247.145 279.034 C 247.726 278.675,247.354 278.000,246.576 278.000 C 246.259 278.000,246.014 278.315,246.032 278.700 " stroke="none" fill="#f4f8f8" fill-rule="evenodd"></path></g></svg>