<svg id="svg" version="1.1" xmlns="http://www.w3.org/2000/svg" xmlns:xlink="http://www.w3.org/1999/xlink" width="400" height="400" viewBox="0, 0, 400,400"><g id="svgg"><path id="path0" d="M170.100 1.491 C 170.925 1.578,172.275 1.578,173.100 1.491 C 173.925 1.405,173.250 1.334,171.600 1.334 C 169.950 1.334,169.275 1.405,170.100 1.491 M226.900 1.491 C 227.725 1.578,229.075 1.578,229.900 1.491 C 230.725 1.405,230.050 1.334,228.400 1.334 C 226.750 1.334,226.075 1.405,226.900 1.491 M189.000 2.631 C 183.163 2.915,170.528 4.341,166.200 5.205 C 165.100 5.425,162.807 5.874,161.105 6.205 C 157.351 6.933,151.512 8.244,149.600 8.789 C 138.583 11.925,132.755 13.884,124.600 17.194 C 118.072 19.843,109.672 23.975,102.600 28.016 C 101.940 28.394,100.320 29.319,99.000 30.074 C 95.460 32.097,92.348 34.114,87.200 37.725 C 83.263 40.485,81.207 42.019,76.639 45.600 C 68.280 52.153,51.968 68.463,45.600 76.634 C 45.270 77.058,44.089 78.573,42.975 80.002 C 38.811 85.344,32.922 94.016,30.074 99.000 C 29.319 100.320,28.394 101.940,28.016 102.600 C 25.176 107.571,21.616 114.502,20.003 118.200 C 19.524 119.300,18.771 121.010,18.330 122.000 C 15.584 128.165,12.455 136.845,10.385 144.035 C 9.916 145.666,9.378 147.540,9.190 148.200 C 7.440 154.342,4.821 167.454,4.037 174.000 C 3.813 175.870,3.404 179.290,3.128 181.600 C 2.446 187.296,2.457 213.156,3.144 218.800 C 4.210 227.560,4.845 232.260,5.197 234.000 C 5.398 234.990,5.768 236.880,6.021 238.200 C 6.852 242.546,8.147 248.230,8.846 250.600 C 9.040 251.260,9.669 253.420,10.243 255.400 C 11.999 261.461,15.008 270.293,16.374 273.400 C 16.567 273.840,16.996 274.920,17.327 275.800 C 18.697 279.446,22.295 286.920,26.087 294.000 C 32.826 306.579,43.042 321.114,51.946 330.788 C 54.066 333.092,56.700 335.960,57.800 337.162 C 59.855 339.409,63.078 342.510,66.600 345.629 C 67.700 346.603,69.680 348.416,71.000 349.658 C 77.086 355.385,92.088 366.153,101.095 371.261 C 112.927 377.972,126.552 384.140,136.200 387.153 C 137.740 387.634,139.360 388.182,139.800 388.370 C 140.240 388.559,142.310 389.189,144.400 389.769 C 146.490 390.350,149.100 391.091,150.200 391.416 C 151.300 391.740,153.460 392.276,155.000 392.607 C 157.584 393.161,159.227 393.488,167.000 394.990 C 168.540 395.288,171.420 395.722,173.400 395.955 C 175.380 396.188,178.800 396.609,181.000 396.889 C 183.616 397.223,190.190 397.400,200.000 397.400 C 209.810 397.400,216.384 397.223,219.000 396.889 C 221.200 396.609,224.620 396.191,226.600 395.962 C 228.580 395.732,231.460 395.300,233.000 395.001 C 234.540 394.703,237.060 394.237,238.600 393.966 C 242.936 393.203,258.100 389.327,260.200 388.445 C 260.640 388.260,261.990 387.789,263.200 387.398 C 272.892 384.265,290.263 376.552,296.708 372.519 C 297.867 371.793,298.898 371.200,298.999 371.200 C 300.713 371.200,323.657 354.852,328.600 350.109 C 329.700 349.054,332.394 346.572,334.586 344.595 C 339.524 340.140,340.140 339.524,344.595 334.586 C 346.572 332.394,349.054 329.700,350.109 328.600 C 354.898 323.609,371.200 300.708,371.200 298.972 C 371.200 298.856,371.790 297.825,372.511 296.681 C 376.530 290.300,384.251 272.937,387.398 263.200 C 387.789 261.990,388.247 260.640,388.415 260.200 C 388.732 259.370,389.678 256.098,391.365 250.000 C 392.183 247.042,393.423 241.584,394.000 238.400 C 394.259 236.970,394.713 234.540,395.008 233.000 C 395.303 231.460,395.732 228.580,395.962 226.600 C 396.191 224.620,396.609 221.200,396.889 219.000 C 397.588 213.525,397.582 186.944,396.881 181.000 C 395.571 169.906,395.227 167.787,392.779 155.800 C 392.599 154.920,392.170 153.165,391.826 151.900 C 391.482 150.635,390.923 148.565,390.584 147.300 C 389.590 143.588,388.724 140.658,388.369 139.800 C 388.187 139.360,387.504 137.380,386.851 135.400 C 385.475 131.224,383.155 125.159,381.726 122.000 C 381.179 120.790,380.461 119.170,380.132 118.400 C 374.034 104.145,359.301 81.225,349.662 71.000 C 348.418 69.680,346.603 67.700,345.629 66.600 C 342.510 63.078,339.409 59.855,337.162 57.800 C 335.960 56.700,333.092 54.066,330.788 51.947 C 316.517 38.816,292.137 23.467,275.800 17.327 C 274.920 16.996,273.840 16.567,273.400 16.374 C 270.293 15.008,261.461 11.999,255.400 10.243 C 253.420 9.669,251.260 9.040,250.600 8.846 C 248.230 8.147,242.546 6.852,238.200 6.021 C 236.880 5.768,234.990 5.397,234.000 5.195 C 232.367 4.862,229.834 4.523,219.100 3.201 C 215.624 2.773,194.360 2.370,189.000 2.631 M189.000 84.629 C 196.035 85.824,196.616 85.932,198.059 86.312 C 198.862 86.524,199.942 86.995,200.459 87.359 C 200.977 87.722,202.078 88.203,202.906 88.427 C 204.978 88.987,208.406 91.873,211.868 95.970 C 213.895 98.370,216.800 104.264,216.800 105.977 C 216.800 106.581,217.160 108.121,217.600 109.400 C 218.040 110.679,218.400 112.035,218.400 112.414 C 218.400 114.126,218.929 114.187,236.361 114.474 C 254.046 114.766,259.248 115.031,259.638 115.661 C 259.771 115.877,260.853 116.185,262.042 116.346 C 263.232 116.508,264.744 116.934,265.403 117.293 C 266.061 117.652,267.770 118.480,269.200 119.132 C 272.106 120.458,278.400 126.443,278.400 127.881 C 278.400 128.310,278.850 129.083,279.400 129.600 C 279.950 130.117,280.400 130.864,280.400 131.260 C 280.400 131.656,280.759 132.570,281.199 133.290 C 281.638 134.011,282.003 135.050,282.011 135.600 C 282.019 136.150,282.290 136.949,282.613 137.376 C 283.003 137.893,283.200 139.121,283.200 141.043 C 283.200 143.000,283.361 143.987,283.700 144.100 C 284.504 144.368,284.655 195.513,283.857 197.299 C 283.538 198.015,283.176 199.305,283.052 200.168 C 282.929 201.030,282.687 201.840,282.514 201.968 C 282.340 202.095,281.929 202.726,281.599 203.368 C 280.125 206.241,274.586 210.400,272.235 210.400 C 271.223 210.400,270.000 211.148,270.000 211.768 C 270.000 212.412,271.702 213.600,272.625 213.600 C 275.697 213.600,283.200 221.513,283.200 224.753 C 283.200 225.131,283.425 225.665,283.700 225.940 C 284.090 226.330,284.200 232.326,284.200 253.200 C 284.200 274.075,284.090 280.070,283.700 280.460 C 283.411 280.749,283.199 281.980,283.198 283.380 C 283.196 284.711,282.956 286.258,282.664 286.818 C 282.372 287.377,282.010 288.449,281.860 289.199 C 281.497 291.016,279.464 295.116,278.208 296.562 C 277.654 297.201,277.200 297.889,277.200 298.091 C 277.200 298.570,273.507 302.395,273.041 302.398 C 272.844 302.399,271.914 303.030,270.974 303.800 C 270.034 304.570,269.134 305.200,268.973 305.200 C 268.722 305.200,265.820 306.503,263.505 307.654 C 263.123 307.845,262.082 308.000,261.191 308.000 C 260.301 308.000,259.135 308.286,258.601 308.636 C 256.619 309.935,192.840 310.809,189.330 309.585 C 186.964 308.761,186.800 307.685,186.800 292.997 C 186.800 281.337,186.726 279.781,186.138 279.131 C 185.508 278.435,184.008 278.400,154.720 278.400 L 123.964 278.400 122.982 277.418 L 122.000 276.436 122.000 181.798 C 122.000 78.749,121.857 85.316,124.121 84.405 C 125.797 83.730,184.909 83.934,189.000 84.629 M154.880 116.080 C 153.970 116.990,154.213 164.107,155.131 164.938 C 155.779 165.524,157.290 165.600,168.324 165.600 L 180.784 165.600 182.892 164.239 C 186.767 161.736,186.927 160.648,186.723 138.116 C 186.544 118.456,186.709 119.313,182.680 117.060 L 180.070 115.600 167.715 115.600 C 158.639 115.600,155.233 115.727,154.880 116.080 M219.867 146.667 C 219.076 147.458,219.592 194.792,220.400 195.600 C 221.465 196.665,242.845 196.856,244.224 195.813 C 244.651 195.490,245.630 195.212,246.400 195.196 C 247.520 195.172,248.199 194.772,249.800 193.194 L 251.800 191.221 251.914 171.858 L 252.029 152.496 251.014 151.290 C 250.457 150.627,250.000 149.701,250.000 149.232 C 250.000 148.609,249.684 148.317,248.820 148.144 C 248.172 148.014,247.334 147.569,246.958 147.154 C 246.264 146.387,220.608 145.925,219.867 146.667 M1.334 171.600 C 1.334 173.250,1.405 173.925,1.491 173.100 C 1.578 172.275,1.578 170.925,1.491 170.100 C 1.405 169.275,1.334 169.950,1.334 171.600 M155.100 197.632 C 154.058 198.239,154.013 245.556,155.054 246.596 C 155.636 247.179,157.078 247.237,168.354 247.125 L 181.000 247.000 183.071 245.852 C 186.523 243.939,186.793 242.254,186.797 222.600 C 186.803 201.024,186.418 199.392,180.954 197.804 C 178.457 197.078,156.304 196.931,155.100 197.632 M1.334 228.400 C 1.334 230.050,1.405 230.725,1.491 229.900 C 1.578 229.075,1.578 227.725,1.491 226.900 C 1.405 226.075,1.334 226.750,1.334 228.400 M219.867 228.267 C 219.720 228.413,219.600 239.272,219.600 252.397 L 219.600 276.261 220.526 277.130 C 221.560 278.102,244.822 278.536,245.404 277.594 C 245.542 277.371,246.316 276.912,247.124 276.574 C 247.932 276.236,249.315 275.209,250.197 274.292 L 251.800 272.623 251.800 252.956 L 251.800 233.288 249.090 230.644 L 246.380 228.000 233.257 228.000 C 226.039 228.000,220.013 228.120,219.867 228.267 " stroke="none" fill="#e6e6e7" fill-rule="evenodd"></path><path id="path1" d="M188.356 115.555 L 187.400 116.329 187.298 210.697 C 187.187 312.460,187.090 307.573,189.237 308.710 C 190.903 309.592,255.209 309.201,257.600 308.294 C 258.590 307.919,259.961 307.609,260.647 307.606 C 261.906 307.600,265.535 306.296,266.989 305.326 C 267.423 305.037,268.089 304.800,268.469 304.800 C 268.849 304.800,269.304 304.575,269.480 304.300 C 269.824 303.762,272.216 302.000,272.601 302.000 C 273.068 302.000,277.200 297.443,277.200 296.929 C 277.200 296.638,277.347 296.400,277.527 296.400 C 278.027 296.400,280.800 290.880,280.801 289.880 C 280.802 289.396,281.182 288.378,281.646 287.618 C 283.122 285.195,283.365 280.306,283.377 252.800 C 283.388 226.082,283.305 224.555,281.739 222.669 C 281.223 222.047,280.800 221.299,280.800 221.005 C 280.800 219.458,274.040 214.000,272.123 214.000 C 271.278 214.000,269.200 212.324,269.200 211.642 C 269.200 210.980,270.910 210.000,272.065 210.000 C 272.663 210.000,273.273 209.805,273.420 209.567 C 273.568 209.329,274.452 208.806,275.385 208.406 C 277.122 207.662,280.082 204.835,281.021 203.024 C 281.310 202.467,281.829 201.609,282.173 201.117 C 282.518 200.625,282.800 199.578,282.800 198.791 C 282.800 198.004,282.985 197.175,283.211 196.949 C 283.710 196.450,283.460 146.693,282.935 141.800 C 282.740 139.982,282.300 138.168,281.916 137.600 C 281.544 137.050,281.118 135.831,280.968 134.891 C 280.818 133.951,280.539 133.086,280.347 132.968 C 280.156 132.849,280.000 132.345,280.000 131.846 C 280.000 131.347,279.550 130.517,279.000 130.000 C 278.450 129.483,278.000 128.764,278.000 128.402 C 278.000 127.716,275.555 124.600,274.273 123.654 C 273.866 123.354,272.981 122.568,272.306 121.908 C 271.631 121.248,270.431 120.441,269.639 120.114 C 268.848 119.788,267.930 119.299,267.600 119.028 C 266.677 118.270,263.510 117.200,262.187 117.199 C 261.534 117.198,260.435 116.853,259.745 116.432 C 257.835 115.267,254.945 115.158,220.756 114.962 C 190.118 114.786,189.287 114.801,188.356 115.555 M247.484 146.757 C 247.878 147.173,248.541 147.578,248.957 147.657 C 249.374 147.736,249.909 148.160,250.147 148.600 C 250.385 149.040,250.990 150.040,251.490 150.822 L 252.400 152.243 252.400 171.745 L 252.400 191.248 250.342 193.424 C 248.965 194.880,247.967 195.600,247.326 195.600 C 246.799 195.600,245.662 195.960,244.800 196.400 C 243.348 197.141,242.442 197.200,232.596 197.200 C 221.016 197.200,219.970 197.025,219.183 194.955 C 218.642 193.532,218.672 147.787,219.214 146.774 C 219.850 145.585,246.361 145.569,247.484 146.757 M247.829 228.518 C 248.253 228.913,249.455 230.082,250.500 231.116 L 252.400 232.996 252.400 252.960 L 252.400 272.924 250.303 275.062 C 249.150 276.238,247.924 277.200,247.580 277.200 C 247.235 277.200,246.604 277.464,246.176 277.787 C 245.534 278.273,243.279 278.377,233.082 278.387 L 220.764 278.400 219.782 277.418 L 218.800 276.436 218.800 252.647 C 218.800 231.318,218.867 228.791,219.444 228.214 C 220.470 227.187,246.702 227.468,247.829 228.518 " stroke="none" fill="#48c96f" fill-rule="evenodd"></path><path id="path2" d="M124.121 84.405 C 121.857 85.316,122.000 78.749,122.000 181.798 L 122.000 276.436 122.982 277.418 L 123.964 278.400 154.982 278.400 L 186.000 278.400 186.000 261.200 C 186.000 250.000,185.860 244.000,185.600 244.000 C 185.380 244.000,185.200 244.151,185.200 244.336 C 185.200 244.521,184.255 245.196,183.100 245.836 L 181.000 247.000 168.354 247.125 C 157.078 247.237,155.636 247.179,155.054 246.596 C 153.950 245.493,154.066 198.207,155.174 197.614 C 155.655 197.356,160.274 197.200,167.412 197.200 C 180.151 197.200,181.997 197.463,184.278 199.602 C 184.981 200.261,185.656 200.800,185.778 200.800 C 185.900 200.800,186.000 192.070,186.000 181.400 C 186.000 168.733,185.861 162.000,185.600 162.000 C 185.380 162.000,185.200 162.174,185.200 162.388 C 185.200 162.601,184.207 163.411,182.992 164.188 L 180.784 165.600 168.254 165.600 C 156.623 165.600,155.676 165.548,155.062 164.869 C 154.205 163.922,154.030 116.930,154.880 116.080 C 155.233 115.727,158.643 115.600,167.731 115.600 L 180.103 115.600 182.351 116.862 C 183.588 117.556,184.915 118.394,185.300 118.724 C 185.941 119.273,186.000 119.236,186.000 118.285 C 186.000 114.021,187.610 113.600,203.914 113.600 C 220.166 113.600,219.152 113.911,217.600 109.400 C 217.160 108.121,216.800 106.581,216.800 105.977 C 216.800 104.264,213.895 98.370,211.868 95.970 C 208.406 91.873,204.978 88.987,202.906 88.427 C 202.078 88.203,200.977 87.722,200.459 87.359 C 199.437 86.640,197.719 86.120,194.600 85.584 C 185.203 83.969,186.405 84.017,155.200 84.034 C 138.590 84.043,124.604 84.210,124.121 84.405 " stroke="none" fill="#c37de3" fill-rule="evenodd"></path><path id="path3" d="M179.100 0.299 C 175.292 0.401,174.400 0.537,174.400 1.013 C 174.400 1.480,173.747 1.600,171.200 1.600 C 169.333 1.600,168.000 1.767,168.000 2.000 C 168.000 2.229,166.800 2.400,165.200 2.400 C 163.600 2.400,162.400 2.571,162.400 2.800 C 162.400 3.022,161.333 3.200,160.000 3.200 C 158.050 3.200,157.600 3.322,157.600 3.851 C 157.600 4.387,157.316 4.457,155.990 4.245 C 154.751 4.047,154.326 4.127,154.147 4.594 C 153.976 5.041,153.294 5.200,151.557 5.200 C 150.252 5.200,149.200 5.379,149.200 5.600 C 149.200 5.820,148.570 6.000,147.800 6.000 C 147.030 6.000,146.400 6.180,146.400 6.400 C 146.400 6.620,145.674 6.800,144.787 6.800 C 143.723 6.800,143.097 7.004,142.945 7.400 C 142.803 7.770,142.195 8.000,141.357 8.000 C 140.611 8.000,140.000 8.180,140.000 8.400 C 140.000 8.620,139.370 8.800,138.600 8.800 C 137.830 8.800,137.200 8.980,137.200 9.200 C 137.200 9.420,136.570 9.600,135.800 9.600 C 134.822 9.600,134.400 9.781,134.400 10.200 C 134.400 10.619,133.978 10.800,133.000 10.800 C 132.230 10.800,131.600 10.980,131.600 11.200 C 131.600 11.420,131.047 11.600,130.371 11.600 C 129.696 11.600,128.871 11.872,128.539 12.204 C 128.207 12.536,127.769 12.704,127.565 12.578 C 127.361 12.452,127.086 12.631,126.954 12.975 C 126.815 13.338,126.240 13.600,125.581 13.600 C 124.957 13.600,124.336 13.780,124.200 14.000 C 124.064 14.220,123.603 14.400,123.176 14.400 C 122.749 14.400,122.400 14.580,122.400 14.800 C 122.400 15.020,121.770 15.200,121.000 15.200 C 120.022 15.200,119.600 15.381,119.600 15.800 C 119.600 16.173,119.222 16.400,118.600 16.400 C 118.050 16.400,117.600 16.580,117.600 16.800 C 117.600 17.020,117.240 17.200,116.800 17.200 C 116.360 17.200,116.000 17.380,116.000 17.600 C 116.000 17.820,115.550 18.000,115.000 18.000 C 114.378 18.000,114.000 18.227,114.000 18.600 C 114.000 18.973,113.622 19.200,113.000 19.200 C 112.450 19.200,112.000 19.380,112.000 19.600 C 112.000 19.820,111.640 20.000,111.200 20.000 C 110.760 20.000,110.400 20.180,110.400 20.400 C 110.400 20.620,109.950 20.800,109.400 20.800 C 108.778 20.800,108.400 21.027,108.400 21.400 C 108.400 21.773,108.022 22.000,107.400 22.000 C 106.850 22.000,106.400 22.180,106.400 22.400 C 106.400 22.620,106.040 22.800,105.600 22.800 C 105.160 22.800,104.800 22.980,104.800 23.200 C 104.800 23.420,104.350 23.600,103.800 23.600 C 103.178 23.600,102.800 23.827,102.800 24.200 C 102.800 24.558,102.432 24.800,101.888 24.800 C 101.387 24.800,100.717 25.160,100.400 25.600 C 100.083 26.040,99.413 26.400,98.912 26.400 C 98.368 26.400,98.000 26.642,98.000 27.000 C 98.000 27.333,97.644 27.600,97.200 27.600 C 96.760 27.600,96.400 27.780,96.400 28.000 C 96.400 28.220,96.027 28.400,95.571 28.400 C 94.686 28.400,93.600 29.266,93.600 29.971 C 93.600 30.207,93.190 30.400,92.688 30.400 C 92.187 30.400,91.517 30.760,91.200 31.200 C 90.883 31.640,90.213 32.000,89.712 32.000 C 89.210 32.000,88.800 32.193,88.800 32.429 C 88.800 33.076,87.742 34.000,87.000 34.000 C 86.258 34.000,85.200 34.924,85.200 35.571 C 85.200 35.807,84.832 36.000,84.382 36.000 C 83.531 36.000,81.600 37.653,81.600 38.382 C 81.600 38.612,81.190 38.800,80.688 38.800 C 80.187 38.800,79.517 39.160,79.200 39.600 C 78.883 40.040,78.393 40.400,78.112 40.400 C 77.830 40.400,77.600 40.670,77.600 41.000 C 77.600 41.333,77.244 41.600,76.800 41.600 C 76.360 41.600,76.000 41.780,76.000 42.000 C 76.000 42.220,75.812 42.400,75.582 42.400 C 75.039 42.400,73.200 44.239,73.200 44.782 C 73.200 45.012,72.829 45.200,72.375 45.200 C 71.885 45.200,70.423 46.337,68.773 48.000 C 67.245 49.540,65.726 50.800,65.397 50.800 C 65.069 50.800,64.800 50.980,64.800 51.200 C 64.800 51.420,64.530 51.600,64.200 51.600 C 63.870 51.600,63.600 51.735,63.600 51.900 C 63.599 52.307,61.778 54.400,61.425 54.400 C 61.072 54.400,60.000 55.453,60.000 55.800 C 60.000 56.134,58.934 57.200,58.600 57.200 C 58.266 57.200,57.200 58.266,57.200 58.600 C 57.200 58.934,56.134 60.000,55.800 60.000 C 55.453 60.000,54.400 61.072,54.400 61.425 C 54.400 61.778,52.307 63.599,51.900 63.600 C 51.735 63.600,51.600 63.870,51.600 64.200 C 51.600 64.530,51.420 64.800,51.200 64.800 C 50.980 64.800,50.800 65.069,50.800 65.397 C 50.800 65.726,49.540 67.245,48.000 68.773 C 46.337 70.423,45.200 71.885,45.200 72.375 C 45.200 72.829,45.012 73.200,44.782 73.200 C 44.552 73.200,43.922 73.642,43.382 74.182 C 42.842 74.722,42.400 75.352,42.400 75.582 C 42.400 75.812,42.220 76.000,42.000 76.000 C 41.780 76.000,41.600 76.360,41.600 76.800 C 41.600 77.244,41.333 77.600,41.000 77.600 C 40.670 77.600,40.400 77.830,40.400 78.112 C 40.400 78.393,40.040 78.883,39.600 79.200 C 39.160 79.517,38.800 80.187,38.800 80.688 C 38.800 81.190,38.612 81.600,38.382 81.600 C 37.653 81.600,36.000 83.531,36.000 84.382 C 36.000 84.832,35.807 85.200,35.571 85.200 C 34.924 85.200,34.000 86.258,34.000 87.000 C 34.000 87.742,33.076 88.800,32.429 88.800 C 32.193 88.800,32.000 89.210,32.000 89.712 C 32.000 90.213,31.640 90.883,31.200 91.200 C 30.760 91.517,30.400 92.187,30.400 92.688 C 30.400 93.190,30.207 93.600,29.971 93.600 C 29.266 93.600,28.400 94.686,28.400 95.571 C 28.400 96.027,28.220 96.400,28.000 96.400 C 27.780 96.400,27.600 96.760,27.600 97.200 C 27.600 97.644,27.333 98.000,27.000 98.000 C 26.642 98.000,26.400 98.368,26.400 98.912 C 26.400 99.413,26.040 100.083,25.600 100.400 C 25.160 100.717,24.800 101.387,24.800 101.888 C 24.800 102.432,24.558 102.800,24.200 102.800 C 23.827 102.800,23.600 103.178,23.600 103.800 C 23.600 104.350,23.420 104.800,23.200 104.800 C 22.980 104.800,22.800 105.160,22.800 105.600 C 22.800 106.040,22.620 106.400,22.400 106.400 C 22.180 106.400,22.000 106.850,22.000 107.400 C 22.000 108.022,21.773 108.400,21.400 108.400 C 21.027 108.400,20.800 108.778,20.800 109.400 C 20.800 109.950,20.620 110.400,20.400 110.400 C 20.180 110.400,20.000 110.760,20.000 111.200 C 20.000 111.640,19.820 112.000,19.600 112.000 C 19.380 112.000,19.200 112.450,19.200 113.000 C 19.200 113.622,18.973 114.000,18.600 114.000 C 18.227 114.000,18.000 114.378,18.000 115.000 C 18.000 115.550,17.820 116.000,17.600 116.000 C 17.380 116.000,17.200 116.360,17.200 116.800 C 17.200 117.240,17.020 117.600,16.800 117.600 C 16.580 117.600,16.400 118.050,16.400 118.600 C 16.400 119.222,16.173 119.600,15.800 119.600 C 15.381 119.600,15.200 120.022,15.200 121.000 C 15.200 121.770,15.020 122.400,14.800 122.400 C 14.580 122.400,14.400 122.749,14.400 123.176 C 14.400 123.603,14.220 124.064,14.000 124.200 C 13.780 124.336,13.600 124.957,13.600 125.581 C 13.600 126.240,13.338 126.815,12.975 126.954 C 12.631 127.086,12.452 127.361,12.578 127.565 C 12.704 127.769,12.536 128.207,12.204 128.539 C 11.872 128.871,11.600 129.696,11.600 130.371 C 11.600 131.047,11.420 131.600,11.200 131.600 C 10.980 131.600,10.800 132.230,10.800 133.000 C 10.800 133.978,10.619 134.400,10.200 134.400 C 9.781 134.400,9.600 134.822,9.600 135.800 C 9.600 136.570,9.420 137.200,9.200 137.200 C 8.980 137.200,8.800 137.830,8.800 138.600 C 8.800 139.370,8.620 140.000,8.400 140.000 C 8.180 140.000,8.000 140.611,8.000 141.357 C 8.000 142.195,7.770 142.803,7.400 142.945 C 7.004 143.097,6.800 143.723,6.800 144.787 C 6.800 145.674,6.620 146.400,6.400 146.400 C 6.180 146.400,6.000 147.030,6.000 147.800 C 6.000 148.570,5.820 149.200,5.600 149.200 C 5.379 149.200,5.200 150.252,5.200 151.557 C 5.200 153.294,5.041 153.976,4.594 154.147 C 4.127 154.326,4.047 154.751,4.245 155.990 C 4.457 157.316,4.387 157.600,3.851 157.600 C 3.322 157.600,3.200 158.050,3.200 160.000 C 3.200 161.333,3.022 162.400,2.800 162.400 C 2.571 162.400,2.400 163.600,2.400 165.200 C 2.400 166.800,2.229 168.000,2.000 168.000 C 1.767 168.000,1.600 169.333,1.600 171.200 C 1.600 173.611,1.468 174.400,1.063 174.400 C 0.376 174.400,0.002 183.425,0.002 200.000 C 0.002 216.575,0.376 225.600,1.063 225.600 C 1.468 225.600,1.600 226.389,1.600 228.800 C 1.600 230.667,1.767 232.000,2.000 232.000 C 2.229 232.000,2.400 233.200,2.400 234.800 C 2.400 236.400,2.571 237.600,2.800 237.600 C 3.022 237.600,3.200 238.667,3.200 240.000 C 3.200 241.950,3.322 242.400,3.851 242.400 C 4.387 242.400,4.457 242.684,4.245 244.010 C 4.047 245.249,4.127 245.674,4.594 245.853 C 5.041 246.024,5.200 246.706,5.200 248.443 C 5.200 249.748,5.379 250.800,5.600 250.800 C 5.820 250.800,6.000 251.430,6.000 252.200 C 6.000 252.970,6.180 253.600,6.400 253.600 C 6.620 253.600,6.800 254.326,6.800 255.213 C 6.800 256.277,7.004 256.903,7.400 257.055 C 7.770 257.197,8.000 257.805,8.000 258.643 C 8.000 259.389,8.180 260.000,8.400 260.000 C 8.620 260.000,8.800 260.630,8.800 261.400 C 8.800 262.170,8.980 262.800,9.200 262.800 C 9.420 262.800,9.600 263.430,9.600 264.200 C 9.600 265.178,9.781 265.600,10.200 265.600 C 10.619 265.600,10.800 266.022,10.800 267.000 C 10.800 267.770,10.980 268.400,11.200 268.400 C 11.420 268.400,11.600 268.953,11.600 269.629 C 11.600 270.304,11.872 271.129,12.204 271.461 C 12.536 271.793,12.704 272.231,12.578 272.435 C 12.452 272.639,12.631 272.914,12.975 273.046 C 13.372 273.198,13.600 273.781,13.600 274.643 C 13.600 275.389,13.780 276.000,14.000 276.000 C 14.220 276.000,14.400 276.360,14.400 276.800 C 14.400 277.240,14.580 277.600,14.800 277.600 C 15.020 277.600,15.200 278.230,15.200 279.000 C 15.200 279.978,15.381 280.400,15.800 280.400 C 16.173 280.400,16.400 280.778,16.400 281.400 C 16.400 281.950,16.580 282.400,16.800 282.400 C 17.020 282.400,17.200 282.760,17.200 283.200 C 17.200 283.640,17.380 284.000,17.600 284.000 C 17.820 284.000,18.000 284.366,18.000 284.813 C 18.000 285.259,18.270 285.729,18.600 285.855 C 18.930 285.982,19.200 286.516,19.200 287.043 C 19.200 287.569,19.380 288.000,19.600 288.000 C 19.820 288.000,20.000 288.360,20.000 288.800 C 20.000 289.240,20.180 289.600,20.400 289.600 C 20.620 289.600,20.800 290.050,20.800 290.600 C 20.800 291.222,21.027 291.600,21.400 291.600 C 21.773 291.600,22.000 291.978,22.000 292.600 C 22.000 293.150,22.180 293.600,22.400 293.600 C 22.620 293.600,22.800 293.960,22.800 294.400 C 22.800 294.840,22.980 295.200,23.200 295.200 C 23.420 295.200,23.600 295.650,23.600 296.200 C 23.600 296.822,23.827 297.200,24.200 297.200 C 24.573 297.200,24.800 297.578,24.800 298.200 C 24.800 298.750,24.980 299.200,25.200 299.200 C 25.420 299.200,25.600 299.560,25.600 300.000 C 25.600 300.440,25.780 300.800,26.000 300.800 C 26.220 300.800,26.400 301.070,26.400 301.400 C 26.400 301.730,26.670 302.000,27.000 302.000 C 27.333 302.000,27.600 302.356,27.600 302.800 C 27.600 303.240,27.780 303.600,28.000 303.600 C 28.220 303.600,28.400 303.973,28.400 304.429 C 28.400 305.314,29.266 306.400,29.971 306.400 C 30.207 306.400,30.400 306.810,30.400 307.312 C 30.400 307.813,30.760 308.483,31.200 308.800 C 31.640 309.117,32.000 309.787,32.000 310.288 C 32.000 310.790,32.193 311.200,32.429 311.200 C 33.076 311.200,34.000 312.258,34.000 313.000 C 34.000 313.742,34.924 314.800,35.571 314.800 C 35.807 314.800,36.000 315.175,36.000 315.633 C 36.000 316.092,36.630 317.079,37.400 317.826 C 38.170 318.574,38.800 319.419,38.800 319.705 C 38.800 319.990,39.160 320.483,39.600 320.800 C 40.040 321.117,40.400 321.607,40.400 321.888 C 40.400 322.170,40.670 322.400,41.000 322.400 C 41.333 322.400,41.600 322.756,41.600 323.200 C 41.600 323.640,41.780 324.000,42.000 324.000 C 42.220 324.000,42.400 324.230,42.400 324.512 C 42.400 324.793,42.760 325.283,43.200 325.600 C 43.640 325.917,44.000 326.423,44.000 326.724 C 44.000 327.026,45.530 328.785,47.400 330.634 C 49.270 332.483,50.800 334.267,50.800 334.598 C 50.800 334.929,50.980 335.200,51.200 335.200 C 51.420 335.200,51.600 335.470,51.600 335.800 C 51.600 336.130,51.735 336.400,51.900 336.400 C 52.307 336.401,54.400 338.222,54.400 338.575 C 54.400 338.928,55.453 340.000,55.800 340.000 C 56.134 340.000,57.200 341.066,57.200 341.400 C 57.200 341.734,58.266 342.800,58.600 342.800 C 58.934 342.800,60.000 343.866,60.000 344.200 C 60.000 344.534,61.066 345.600,61.400 345.600 C 61.734 345.600,62.800 346.666,62.800 347.000 C 62.800 347.415,63.905 348.400,64.371 348.400 C 64.607 348.400,64.800 348.580,64.800 348.800 C 64.800 349.020,65.069 349.200,65.397 349.200 C 65.726 349.200,67.245 350.460,68.773 352.000 C 70.423 353.663,71.885 354.800,72.375 354.800 C 72.829 354.800,73.200 354.988,73.200 355.218 C 73.200 355.761,75.039 357.600,75.582 357.600 C 75.812 357.600,76.000 357.870,76.000 358.200 C 76.000 358.533,76.356 358.800,76.800 358.800 C 77.240 358.800,77.600 358.980,77.600 359.200 C 77.600 359.420,77.830 359.600,78.112 359.600 C 78.393 359.600,78.883 359.960,79.200 360.400 C 79.517 360.840,80.187 361.200,80.688 361.200 C 81.190 361.200,81.600 361.388,81.600 361.618 C 81.600 362.347,83.531 364.000,84.382 364.000 C 84.832 364.000,85.200 364.193,85.200 364.429 C 85.200 365.076,86.258 366.000,87.000 366.000 C 87.742 366.000,88.800 366.924,88.800 367.571 C 88.800 367.807,89.210 368.000,89.712 368.000 C 90.213 368.000,90.883 368.360,91.200 368.800 C 91.517 369.240,92.187 369.600,92.688 369.600 C 93.190 369.600,93.600 369.793,93.600 370.029 C 93.600 370.734,94.686 371.600,95.571 371.600 C 96.027 371.600,96.400 371.780,96.400 372.000 C 96.400 372.220,96.760 372.400,97.200 372.400 C 97.644 372.400,98.000 372.667,98.000 373.000 C 98.000 373.358,98.368 373.600,98.912 373.600 C 99.413 373.600,100.083 373.960,100.400 374.400 C 100.717 374.840,101.387 375.200,101.888 375.200 C 102.432 375.200,102.800 375.442,102.800 375.800 C 102.800 376.173,103.178 376.400,103.800 376.400 C 104.350 376.400,104.800 376.580,104.800 376.800 C 104.800 377.020,105.160 377.200,105.600 377.200 C 106.040 377.200,106.400 377.380,106.400 377.600 C 106.400 377.820,106.850 378.000,107.400 378.000 C 108.022 378.000,108.400 378.227,108.400 378.600 C 108.400 378.973,108.778 379.200,109.400 379.200 C 109.950 379.200,110.400 379.380,110.400 379.600 C 110.400 379.820,110.760 380.000,111.200 380.000 C 111.640 380.000,112.000 380.180,112.000 380.400 C 112.000 380.620,112.450 380.800,113.000 380.800 C 113.622 380.800,114.000 381.027,114.000 381.400 C 114.000 381.773,114.378 382.000,115.000 382.000 C 115.550 382.000,116.000 382.180,116.000 382.400 C 116.000 382.620,116.360 382.800,116.800 382.800 C 117.240 382.800,117.600 382.980,117.600 383.200 C 117.600 383.420,118.050 383.600,118.600 383.600 C 119.222 383.600,119.600 383.827,119.600 384.200 C 119.600 384.619,120.022 384.800,121.000 384.800 C 121.770 384.800,122.400 384.980,122.400 385.200 C 122.400 385.420,122.749 385.600,123.176 385.600 C 123.603 385.600,124.064 385.780,124.200 386.000 C 124.336 386.220,124.957 386.400,125.581 386.400 C 126.219 386.400,126.815 386.662,126.945 387.000 C 127.071 387.330,127.541 387.600,127.987 387.600 C 128.434 387.600,128.800 387.780,128.800 388.000 C 128.800 388.220,129.430 388.400,130.200 388.400 C 130.970 388.400,131.600 388.580,131.600 388.800 C 131.600 389.020,132.211 389.200,132.957 389.200 C 133.795 389.200,134.403 389.430,134.545 389.800 C 134.679 390.151,135.279 390.400,135.987 390.400 C 136.654 390.400,137.200 390.580,137.200 390.800 C 137.200 391.020,137.830 391.200,138.600 391.200 C 139.370 391.200,140.000 391.380,140.000 391.600 C 140.000 391.820,140.630 392.000,141.400 392.000 C 142.378 392.000,142.800 392.181,142.800 392.600 C 142.800 393.043,143.264 393.200,144.576 393.200 C 145.553 393.200,146.464 393.380,146.600 393.600 C 146.736 393.820,147.377 394.000,148.024 394.000 C 148.671 394.000,149.200 394.180,149.200 394.400 C 149.200 394.622,150.267 394.800,151.600 394.800 C 153.467 394.800,154.000 394.933,154.000 395.400 C 154.000 395.844,154.467 396.000,155.800 396.000 C 156.790 396.000,157.600 396.180,157.600 396.400 C 157.600 396.622,158.667 396.800,160.000 396.800 C 161.333 396.800,162.400 396.978,162.400 397.200 C 162.400 397.429,163.600 397.600,165.200 397.600 C 167.422 397.600,168.000 397.724,168.000 398.200 C 168.000 398.683,168.619 398.800,171.167 398.800 C 173.344 398.800,174.385 398.956,174.500 399.300 C 174.744 400.032,225.256 400.032,225.500 399.300 C 225.615 398.956,226.656 398.800,228.833 398.800 C 231.381 398.800,232.000 398.683,232.000 398.200 C 232.000 397.724,232.578 397.600,234.800 397.600 C 236.400 397.600,237.600 397.429,237.600 397.200 C 237.600 396.978,238.667 396.800,240.000 396.800 C 241.333 396.800,242.400 396.622,242.400 396.400 C 242.400 396.180,243.210 396.000,244.200 396.000 C 245.533 396.000,246.000 395.844,246.000 395.400 C 246.000 394.933,246.533 394.800,248.400 394.800 C 249.733 394.800,250.800 394.622,250.800 394.400 C 250.800 394.180,251.430 394.000,252.200 394.000 C 252.970 394.000,253.600 393.820,253.600 393.600 C 253.600 393.380,254.410 393.200,255.400 393.200 C 256.733 393.200,257.200 393.044,257.200 392.600 C 257.200 392.181,257.622 392.000,258.600 392.000 C 259.370 392.000,260.000 391.820,260.000 391.600 C 260.000 391.380,260.630 391.200,261.400 391.200 C 262.170 391.200,262.800 391.020,262.800 390.800 C 262.800 390.580,263.430 390.400,264.200 390.400 C 265.178 390.400,265.600 390.219,265.600 389.800 C 265.600 389.381,266.022 389.200,267.000 389.200 C 267.770 389.200,268.400 389.020,268.400 388.800 C 268.400 388.580,269.030 388.400,269.800 388.400 C 270.570 388.400,271.200 388.220,271.200 388.000 C 271.200 387.780,271.566 387.600,272.013 387.600 C 272.459 387.600,272.929 387.330,273.055 387.000 C 273.197 386.630,273.805 386.400,274.643 386.400 C 275.389 386.400,276.000 386.220,276.000 386.000 C 276.000 385.780,276.360 385.600,276.800 385.600 C 277.240 385.600,277.600 385.420,277.600 385.200 C 277.600 384.980,278.230 384.800,279.000 384.800 C 279.978 384.800,280.400 384.619,280.400 384.200 C 280.400 383.827,280.778 383.600,281.400 383.600 C 281.950 383.600,282.400 383.420,282.400 383.200 C 282.400 382.980,282.760 382.800,283.200 382.800 C 283.640 382.800,284.000 382.620,284.000 382.400 C 284.000 382.180,284.450 382.000,285.000 382.000 C 285.622 382.000,286.000 381.773,286.000 381.400 C 286.000 381.027,286.378 380.800,287.000 380.800 C 287.550 380.800,288.000 380.620,288.000 380.400 C 288.000 380.180,288.360 380.000,288.800 380.000 C 289.240 380.000,289.600 379.820,289.600 379.600 C 289.600 379.380,290.050 379.200,290.600 379.200 C 291.222 379.200,291.600 378.973,291.600 378.600 C 291.600 378.227,291.978 378.000,292.600 378.000 C 293.150 378.000,293.600 377.820,293.600 377.600 C 293.600 377.380,293.960 377.200,294.400 377.200 C 294.840 377.200,295.200 377.020,295.200 376.800 C 295.200 376.580,295.650 376.400,296.200 376.400 C 296.822 376.400,297.200 376.173,297.200 375.800 C 297.200 375.427,297.578 375.200,298.200 375.200 C 298.750 375.200,299.200 375.020,299.200 374.800 C 299.200 374.580,299.560 374.400,300.000 374.400 C 300.440 374.400,300.800 374.220,300.800 374.000 C 300.800 373.780,301.070 373.600,301.400 373.600 C 301.730 373.600,302.000 373.330,302.000 373.000 C 302.000 372.667,302.356 372.400,302.800 372.400 C 303.240 372.400,303.600 372.220,303.600 372.000 C 303.600 371.780,303.973 371.600,304.429 371.600 C 305.314 371.600,306.400 370.734,306.400 370.029 C 306.400 369.793,306.810 369.600,307.312 369.600 C 307.813 369.600,308.483 369.240,308.800 368.800 C 309.117 368.360,309.787 368.000,310.288 368.000 C 310.790 368.000,311.200 367.807,311.200 367.571 C 311.200 366.924,312.258 366.000,313.000 366.000 C 313.742 366.000,314.800 365.076,314.800 364.429 C 314.800 364.193,315.175 364.000,315.633 364.000 C 316.092 364.000,317.079 363.370,317.826 362.600 C 318.574 361.830,319.419 361.200,319.705 361.200 C 319.990 361.200,320.483 360.840,320.800 360.400 C 321.117 359.960,321.607 359.600,321.888 359.600 C 322.170 359.600,322.400 359.420,322.400 359.200 C 322.400 358.980,322.760 358.800,323.200 358.800 C 323.644 358.800,324.000 358.533,324.000 358.200 C 324.000 357.870,324.230 357.600,324.512 357.600 C 324.793 357.600,325.283 357.240,325.600 356.800 C 325.917 356.360,326.428 356.000,326.735 356.000 C 327.042 356.000,328.523 354.740,330.027 353.200 C 331.531 351.660,333.015 350.400,333.325 350.400 C 333.634 350.400,334.226 349.950,334.639 349.400 C 335.052 348.850,335.617 348.400,335.895 348.400 C 336.173 348.400,336.400 348.265,336.400 348.100 C 336.401 347.693,338.222 345.600,338.575 345.600 C 338.928 345.600,340.000 344.547,340.000 344.200 C 340.000 343.866,341.066 342.800,341.400 342.800 C 341.734 342.800,342.800 341.734,342.800 341.400 C 342.800 341.066,343.866 340.000,344.200 340.000 C 344.547 340.000,345.600 338.928,345.600 338.575 C 345.600 338.222,347.693 336.401,348.100 336.400 C 348.265 336.400,348.400 336.173,348.400 335.895 C 348.400 335.617,348.850 335.052,349.400 334.639 C 349.950 334.226,350.400 333.634,350.400 333.325 C 350.400 333.015,351.660 331.531,353.200 330.027 C 354.740 328.523,356.000 327.042,356.000 326.735 C 356.000 326.428,356.360 325.917,356.800 325.600 C 357.240 325.283,357.600 324.793,357.600 324.512 C 357.600 324.230,357.870 324.000,358.200 324.000 C 358.533 324.000,358.800 323.644,358.800 323.200 C 358.800 322.760,358.980 322.400,359.200 322.400 C 359.420 322.400,359.600 322.170,359.600 321.888 C 359.600 321.607,359.960 321.117,360.400 320.800 C 360.840 320.483,361.200 319.990,361.200 319.705 C 361.200 319.419,361.830 318.574,362.600 317.826 C 363.370 317.079,364.000 316.092,364.000 315.633 C 364.000 315.175,364.193 314.800,364.429 314.800 C 365.076 314.800,366.000 313.742,366.000 313.000 C 366.000 312.258,366.924 311.200,367.571 311.200 C 367.807 311.200,368.000 310.790,368.000 310.288 C 368.000 309.787,368.360 309.117,368.800 308.800 C 369.240 308.483,369.600 307.813,369.600 307.312 C 369.600 306.810,369.793 306.400,370.029 306.400 C 370.734 306.400,371.600 305.314,371.600 304.429 C 371.600 303.973,371.780 303.600,372.000 303.600 C 372.220 303.600,372.400 303.240,372.400 302.800 C 372.400 302.356,372.667 302.000,373.000 302.000 C 373.330 302.000,373.600 301.730,373.600 301.400 C 373.600 301.070,373.780 300.800,374.000 300.800 C 374.220 300.800,374.400 300.440,374.400 300.000 C 374.400 299.560,374.580 299.200,374.800 299.200 C 375.020 299.200,375.200 298.750,375.200 298.200 C 375.200 297.578,375.427 297.200,375.800 297.200 C 376.173 297.200,376.400 296.822,376.400 296.200 C 376.400 295.650,376.580 295.200,376.800 295.200 C 377.020 295.200,377.200 294.840,377.200 294.400 C 377.200 293.960,377.380 293.600,377.600 293.600 C 377.820 293.600,378.000 293.150,378.000 292.600 C 378.000 291.978,378.227 291.600,378.600 291.600 C 378.973 291.600,379.200 291.222,379.200 290.600 C 379.200 290.050,379.380 289.600,379.600 289.600 C 379.820 289.600,380.000 289.240,380.000 288.800 C 380.000 288.360,380.180 288.000,380.400 288.000 C 380.620 288.000,380.800 287.550,380.800 287.000 C 380.800 286.378,381.027 286.000,381.400 286.000 C 381.773 286.000,382.000 285.622,382.000 285.000 C 382.000 284.450,382.180 284.000,382.400 284.000 C 382.620 284.000,382.800 283.640,382.800 283.200 C 382.800 282.760,382.980 282.400,383.200 282.400 C 383.420 282.400,383.600 281.950,383.600 281.400 C 383.600 280.778,383.827 280.400,384.200 280.400 C 384.619 280.400,384.800 279.978,384.800 279.000 C 384.800 278.230,384.980 277.600,385.200 277.600 C 385.420 277.600,385.600 277.240,385.600 276.800 C 385.600 276.360,385.780 276.000,386.000 276.000 C 386.220 276.000,386.400 275.389,386.400 274.643 C 386.400 273.805,386.630 273.197,387.000 273.055 C 387.330 272.929,387.600 272.459,387.600 272.013 C 387.600 271.566,387.780 271.200,388.000 271.200 C 388.220 271.200,388.400 270.570,388.400 269.800 C 388.400 269.030,388.580 268.400,388.800 268.400 C 389.020 268.400,389.200 267.770,389.200 267.000 C 389.200 266.022,389.381 265.600,389.800 265.600 C 390.219 265.600,390.400 265.178,390.400 264.200 C 390.400 263.430,390.580 262.800,390.800 262.800 C 391.020 262.800,391.200 262.170,391.200 261.400 C 391.200 260.630,391.380 260.000,391.600 260.000 C 391.820 260.000,392.000 259.370,392.000 258.600 C 392.000 257.622,392.181 257.200,392.600 257.200 C 393.044 257.200,393.200 256.733,393.200 255.400 C 393.200 254.410,393.380 253.600,393.600 253.600 C 393.820 253.600,394.000 252.970,394.000 252.200 C 394.000 251.430,394.180 250.800,394.400 250.800 C 394.622 250.800,394.800 249.733,394.800 248.400 C 394.800 246.533,394.933 246.000,395.400 246.000 C 395.844 246.000,396.000 245.533,396.000 244.200 C 396.000 243.210,396.180 242.400,396.400 242.400 C 396.622 242.400,396.800 241.333,396.800 240.000 C 396.800 238.667,396.978 237.600,397.200 237.600 C 397.429 237.600,397.600 236.400,397.600 234.800 C 397.600 232.578,397.724 232.000,398.200 232.000 C 398.683 232.000,398.800 231.381,398.800 228.833 C 398.800 226.656,398.956 225.615,399.300 225.500 C 399.693 225.369,399.800 219.911,399.800 200.000 C 399.800 180.089,399.693 174.631,399.300 174.500 C 398.956 174.385,398.800 173.344,398.800 171.167 C 398.800 168.619,398.683 168.000,398.200 168.000 C 397.724 168.000,397.600 167.422,397.600 165.200 C 397.600 163.600,397.429 162.400,397.200 162.400 C 396.978 162.400,396.800 161.333,396.800 160.000 C 396.800 158.667,396.622 157.600,396.400 157.600 C 396.180 157.600,396.000 156.790,396.000 155.800 C 396.000 154.467,395.844 154.000,395.400 154.000 C 394.933 154.000,394.800 153.467,394.800 151.600 C 394.800 150.267,394.622 149.200,394.400 149.200 C 394.180 149.200,394.000 148.671,394.000 148.024 C 394.000 147.377,393.820 146.736,393.600 146.600 C 393.380 146.464,393.200 145.553,393.200 144.576 C 393.200 143.264,393.043 142.800,392.600 142.800 C 392.181 142.800,392.000 142.378,392.000 141.400 C 392.000 140.630,391.820 140.000,391.600 140.000 C 391.380 140.000,391.200 139.370,391.200 138.600 C 391.200 137.830,391.020 137.200,390.800 137.200 C 390.580 137.200,390.400 136.654,390.400 135.987 C 390.400 135.279,390.151 134.679,389.800 134.545 C 389.430 134.403,389.200 133.795,389.200 132.957 C 389.200 132.211,389.020 131.600,388.800 131.600 C 388.580 131.600,388.400 130.970,388.400 130.200 C 388.400 129.430,388.220 128.800,388.000 128.800 C 387.780 128.800,387.600 128.434,387.600 127.987 C 387.600 127.541,387.330 127.071,387.000 126.945 C 386.662 126.815,386.400 126.219,386.400 125.581 C 386.400 124.957,386.220 124.336,386.000 124.200 C 385.780 124.064,385.600 123.603,385.600 123.176 C 385.600 122.749,385.420 122.400,385.200 122.400 C 384.980 122.400,384.800 121.770,384.800 121.000 C 384.800 120.022,384.619 119.600,384.200 119.600 C 383.827 119.600,383.600 119.222,383.600 118.600 C 383.600 118.050,383.420 117.600,383.200 117.600 C 382.980 117.600,382.800 117.240,382.800 116.800 C 382.800 116.360,382.620 116.000,382.400 116.000 C 382.180 116.000,382.000 115.550,382.000 115.000 C 382.000 114.378,381.773 114.000,381.400 114.000 C 381.027 114.000,380.800 113.622,380.800 113.000 C 380.800 112.450,380.620 112.000,380.400 112.000 C 380.180 112.000,380.000 111.640,380.000 111.200 C 380.000 110.760,379.820 110.400,379.600 110.400 C 379.380 110.400,379.200 109.950,379.200 109.400 C 379.200 108.778,378.973 108.400,378.600 108.400 C 378.227 108.400,378.000 108.022,378.000 107.400 C 378.000 106.850,377.820 106.400,377.600 106.400 C 377.380 106.400,377.200 106.040,377.200 105.600 C 377.200 105.160,377.020 104.800,376.800 104.800 C 376.580 104.800,376.400 104.350,376.400 103.800 C 376.400 103.178,376.173 102.800,375.800 102.800 C 375.442 102.800,375.200 102.432,375.200 101.888 C 375.200 101.387,374.840 100.717,374.400 100.400 C 373.960 100.083,373.600 99.413,373.600 98.912 C 373.600 98.368,373.358 98.000,373.000 98.000 C 372.667 98.000,372.400 97.644,372.400 97.200 C 372.400 96.760,372.220 96.400,372.000 96.400 C 371.780 96.400,371.600 96.027,371.600 95.571 C 371.600 94.686,370.734 93.600,370.029 93.600 C 369.793 93.600,369.600 93.190,369.600 92.688 C 369.600 92.187,369.240 91.517,368.800 91.200 C 368.360 90.883,368.000 90.213,368.000 89.712 C 368.000 89.210,367.807 88.800,367.571 88.800 C 366.924 88.800,366.000 87.742,366.000 87.000 C 366.000 86.258,365.076 85.200,364.429 85.200 C 364.193 85.200,364.000 84.832,364.000 84.382 C 364.000 83.531,362.347 81.600,361.618 81.600 C 361.388 81.600,361.200 81.190,361.200 80.688 C 361.200 80.187,360.840 79.517,360.400 79.200 C 359.960 78.883,359.600 78.393,359.600 78.112 C 359.600 77.830,359.420 77.600,359.200 77.600 C 358.980 77.600,358.800 77.240,358.800 76.800 C 358.800 76.356,358.533 76.000,358.200 76.000 C 357.870 76.000,357.600 75.812,357.600 75.582 C 357.600 75.039,355.761 73.200,355.218 73.200 C 354.988 73.200,354.800 72.829,354.800 72.375 C 354.800 71.885,353.663 70.423,352.000 68.773 C 350.460 67.245,349.200 65.726,349.200 65.397 C 349.200 65.069,349.020 64.800,348.800 64.800 C 348.580 64.800,348.400 64.607,348.400 64.371 C 348.400 63.905,347.415 62.800,347.000 62.800 C 346.666 62.800,345.600 61.734,345.600 61.400 C 345.600 61.066,344.534 60.000,344.200 60.000 C 343.866 60.000,342.800 58.934,342.800 58.600 C 342.800 58.266,341.734 57.200,341.400 57.200 C 341.066 57.200,340.000 56.134,340.000 55.800 C 340.000 55.453,338.928 54.400,338.575 54.400 C 338.222 54.400,336.401 52.307,336.400 51.900 C 336.400 51.735,336.130 51.600,335.800 51.600 C 335.470 51.600,335.200 51.420,335.200 51.200 C 335.200 50.980,334.929 50.800,334.598 50.800 C 334.267 50.800,332.483 49.270,330.634 47.400 C 328.785 45.530,327.026 44.000,326.724 44.000 C 326.423 44.000,325.917 43.640,325.600 43.200 C 325.283 42.760,324.793 42.400,324.512 42.400 C 324.230 42.400,324.000 42.220,324.000 42.000 C 324.000 41.780,323.640 41.600,323.200 41.600 C 322.756 41.600,322.400 41.333,322.400 41.000 C 322.400 40.670,322.170 40.400,321.888 40.400 C 321.607 40.400,321.117 40.040,320.800 39.600 C 320.483 39.160,319.990 38.800,319.705 38.800 C 319.419 38.800,318.574 38.170,317.826 37.400 C 317.079 36.630,316.092 36.000,315.633 36.000 C 315.175 36.000,314.800 35.807,314.800 35.571 C 314.800 34.924,313.742 34.000,313.000 34.000 C 312.258 34.000,311.200 33.076,311.200 32.429 C 311.200 32.193,310.790 32.000,310.288 32.000 C 309.787 32.000,309.117 31.640,308.800 31.200 C 308.483 30.760,307.813 30.400,307.312 30.400 C 306.810 30.400,306.400 30.207,306.400 29.971 C 306.400 29.266,305.314 28.400,304.429 28.400 C 303.973 28.400,303.600 28.220,303.600 28.000 C 303.600 27.780,303.240 27.600,302.800 27.600 C 302.356 27.600,302.000 27.333,302.000 27.000 C 302.000 26.670,301.730 26.400,301.400 26.400 C 301.070 26.400,300.800 26.220,300.800 26.000 C 300.800 25.780,300.440 25.600,300.000 25.600 C 299.560 25.600,299.200 25.420,299.200 25.200 C 299.200 24.980,298.750 24.800,298.200 24.800 C 297.578 24.800,297.200 24.573,297.200 24.200 C 297.200 23.827,296.822 23.600,296.200 23.600 C 295.650 23.600,295.200 23.420,295.200 23.200 C 295.200 22.980,294.840 22.800,294.400 22.800 C 293.960 22.800,293.600 22.620,293.600 22.400 C 293.600 22.180,293.150 22.000,292.600 22.000 C 291.978 22.000,291.600 21.773,291.600 21.400 C 291.600 21.027,291.222 20.800,290.600 20.800 C 290.050 20.800,289.600 20.620,289.600 20.400 C 289.600 20.180,289.240 20.000,288.800 20.000 C 288.360 20.000,288.000 19.820,288.000 19.600 C 288.000 19.380,287.569 19.200,287.043 19.200 C 286.516 19.200,285.982 18.930,285.855 18.600 C 285.729 18.270,285.259 18.000,284.813 18.000 C 284.366 18.000,284.000 17.820,284.000 17.600 C 284.000 17.380,283.640 17.200,283.200 17.200 C 282.760 17.200,282.400 17.020,282.400 16.800 C 282.400 16.580,281.950 16.400,281.400 16.400 C 280.778 16.400,280.400 16.173,280.400 15.800 C 280.400 15.381,279.978 15.200,279.000 15.200 C 278.230 15.200,277.600 15.020,277.600 14.800 C 277.600 14.580,277.240 14.400,276.800 14.400 C 276.360 14.400,276.000 14.220,276.000 14.000 C 276.000 13.780,275.389 13.600,274.643 13.600 C 273.781 13.600,273.198 13.372,273.046 12.975 C 272.914 12.631,272.639 12.452,272.435 12.578 C 272.231 12.704,271.793 12.536,271.461 12.204 C 271.129 11.872,270.304 11.600,269.629 11.600 C 268.953 11.600,268.400 11.420,268.400 11.200 C 268.400 10.980,267.770 10.800,267.000 10.800 C 266.022 10.800,265.600 10.619,265.600 10.200 C 265.600 9.781,265.178 9.600,264.200 9.600 C 263.430 9.600,262.800 9.420,262.800 9.200 C 262.800 8.980,262.170 8.800,261.400 8.800 C 260.630 8.800,260.000 8.620,260.000 8.400 C 260.000 8.180,259.389 8.000,258.643 8.000 C 257.805 8.000,257.197 7.770,257.055 7.400 C 256.903 7.004,256.277 6.800,255.213 6.800 C 254.326 6.800,253.600 6.620,253.600 6.400 C 253.600 6.180,252.970 6.000,252.200 6.000 C 251.430 6.000,250.800 5.820,250.800 5.600 C 250.800 5.379,249.748 5.200,248.443 5.200 C 246.706 5.200,246.024 5.041,245.853 4.594 C 245.674 4.127,245.249 4.047,244.010 4.245 C 242.684 4.457,242.400 4.387,242.400 3.851 C 242.400 3.322,241.950 3.200,240.000 3.200 C 238.667 3.200,237.600 3.022,237.600 2.800 C 237.600 2.571,236.400 2.400,234.800 2.400 C 233.200 2.400,232.000 2.229,232.000 2.000 C 232.000 1.767,230.667 1.600,228.800 1.600 C 226.389 1.600,225.600 1.468,225.600 1.063 C 225.600 0.140,200.361 -0.274,179.100 0.299 M210.894 2.182 C 216.556 2.492,221.394 2.873,221.647 3.029 C 221.899 3.185,223.656 3.463,225.552 3.647 C 233.020 4.373,243.103 6.170,243.840 6.906 C 244.001 7.068,244.903 7.200,245.843 7.200 C 246.783 7.200,247.664 7.380,247.800 7.600 C 247.936 7.820,248.622 8.006,249.324 8.014 C 250.026 8.022,251.050 8.286,251.600 8.600 C 252.150 8.914,253.095 9.178,253.700 9.186 C 254.305 9.194,254.800 9.380,254.800 9.600 C 254.800 9.820,255.419 10.000,256.176 10.000 C 256.933 10.000,257.664 10.180,257.800 10.400 C 257.936 10.620,258.466 10.800,258.978 10.800 C 259.490 10.800,260.424 11.069,261.054 11.398 C 261.684 11.726,262.504 11.996,262.876 11.998 C 263.248 11.999,263.664 12.180,263.800 12.400 C 263.936 12.620,264.476 12.800,265.000 12.800 C 265.524 12.800,266.064 12.980,266.200 13.200 C 266.336 13.420,266.966 13.600,267.600 13.600 C 268.234 13.600,268.855 13.766,268.981 13.969 C 269.106 14.172,269.747 14.457,270.405 14.601 C 271.062 14.745,271.600 15.029,271.600 15.232 C 271.600 15.434,272.039 15.600,272.576 15.600 C 273.113 15.600,273.664 15.780,273.800 16.000 C 273.936 16.220,274.309 16.400,274.628 16.400 C 274.948 16.400,276.603 17.047,278.305 17.838 C 280.007 18.628,282.390 19.726,283.600 20.277 C 286.341 21.525,288.087 22.402,292.400 24.697 C 298.080 27.720,300.151 28.879,301.262 29.657 C 301.846 30.065,302.459 30.400,302.624 30.400 C 302.789 30.400,303.514 30.850,304.236 31.400 C 304.957 31.950,305.739 32.400,305.973 32.400 C 306.208 32.400,306.400 32.580,306.400 32.800 C 306.400 33.020,306.599 33.200,306.843 33.200 C 307.365 33.200,318.138 40.754,318.333 41.257 C 318.407 41.445,318.722 41.600,319.033 41.600 C 319.345 41.600,319.601 41.735,319.603 41.900 C 319.604 42.065,320.266 42.650,321.074 43.200 C 321.881 43.750,322.735 44.387,322.971 44.614 C 323.207 44.842,324.117 45.562,324.994 46.214 C 325.871 46.867,327.314 48.120,328.201 49.000 C 329.088 49.880,331.161 51.765,332.807 53.190 C 336.597 56.469,343.429 63.305,346.803 67.193 C 348.231 68.839,350.123 70.909,351.007 71.793 C 351.891 72.677,353.151 74.116,353.807 74.992 C 355.340 77.038,355.964 77.831,357.239 79.357 C 359.030 81.501,366.800 92.731,366.800 93.176 C 366.800 93.409,366.980 93.600,367.200 93.600 C 367.420 93.600,367.600 93.792,367.600 94.027 C 367.600 94.261,368.050 95.043,368.600 95.764 C 369.150 96.486,369.600 97.211,369.600 97.376 C 369.600 97.541,369.935 98.154,370.343 98.738 C 371.092 99.807,373.034 103.236,374.571 106.200 C 375.027 107.080,375.535 107.860,375.700 107.933 C 375.865 108.007,376.000 108.325,376.000 108.641 C 376.000 108.957,376.416 109.887,376.924 110.708 C 377.792 112.108,378.881 114.347,380.279 117.600 C 380.928 119.110,382.695 122.966,383.255 124.095 C 383.445 124.477,383.600 125.152,383.600 125.595 C 383.600 126.038,383.780 126.400,384.000 126.400 C 384.220 126.400,384.400 126.671,384.400 127.002 C 384.400 127.333,384.850 128.537,385.400 129.677 C 385.950 130.817,386.400 132.155,386.400 132.651 C 386.400 133.147,386.580 133.664,386.800 133.800 C 387.020 133.936,387.200 134.376,387.200 134.778 C 387.200 135.180,387.469 136.024,387.798 136.654 C 388.126 137.284,388.396 138.104,388.398 138.476 C 388.399 138.848,388.580 139.264,388.800 139.400 C 389.020 139.536,389.200 140.166,389.200 140.800 C 389.200 141.434,389.380 142.064,389.600 142.200 C 389.820 142.336,390.000 142.889,390.000 143.429 C 390.000 143.969,390.167 144.723,390.371 145.105 C 390.976 146.238,392.000 149.876,392.000 150.895 C 392.000 151.415,392.162 152.011,392.359 152.220 C 392.556 152.429,392.806 153.320,392.914 154.200 C 393.022 155.080,393.491 157.218,393.955 158.951 C 394.420 160.684,394.800 162.763,394.800 163.571 C 394.800 164.379,394.964 165.211,395.165 165.420 C 395.365 165.629,395.627 166.790,395.745 168.000 C 395.864 169.210,396.237 172.180,396.574 174.600 C 398.684 189.769,398.684 210.231,396.574 225.400 C 396.237 227.820,395.864 230.790,395.745 232.000 C 395.627 233.210,395.365 234.371,395.165 234.580 C 394.964 234.789,394.800 235.599,394.801 236.380 C 394.802 237.982,393.734 243.037,393.170 244.095 C 392.967 244.477,392.800 245.411,392.800 246.171 C 392.800 246.931,392.620 247.664,392.400 247.800 C 392.180 247.936,392.000 248.498,392.000 249.048 C 392.000 250.113,390.991 253.735,390.371 254.895 C 390.167 255.277,390.000 256.031,390.000 256.571 C 390.000 257.111,389.820 257.664,389.600 257.800 C 389.380 257.936,389.200 258.566,389.200 259.200 C 389.200 259.834,389.020 260.464,388.800 260.600 C 388.580 260.736,388.399 261.152,388.398 261.524 C 388.396 261.896,388.126 262.716,387.798 263.346 C 387.469 263.976,387.200 264.921,387.200 265.446 C 387.200 265.971,387.020 266.400,386.800 266.400 C 386.580 266.400,386.400 266.852,386.400 267.405 C 386.400 267.958,386.246 268.723,386.059 269.105 C 385.418 270.410,384.506 272.577,382.568 277.400 C 381.950 278.940,381.299 280.260,381.122 280.333 C 380.945 280.407,380.800 280.724,380.800 281.039 C 380.800 281.353,380.629 281.923,380.420 282.305 C 380.210 282.687,378.916 285.340,377.543 288.200 C 376.170 291.060,374.451 294.348,373.723 295.508 C 372.996 296.667,372.400 297.711,372.400 297.827 C 372.400 297.943,371.770 299.023,371.000 300.227 C 370.230 301.431,369.600 302.506,369.600 302.616 C 369.600 302.951,367.421 306.190,367.100 306.333 C 366.935 306.407,366.800 306.636,366.800 306.842 C 366.800 307.303,364.715 310.549,364.300 310.733 C 364.135 310.807,364.000 311.039,364.000 311.250 C 364.000 311.461,363.823 311.851,363.606 312.117 C 362.555 313.406,361.193 315.234,359.522 317.600 C 358.512 319.030,357.341 320.594,356.918 321.075 C 356.496 321.556,355.801 322.433,355.375 323.025 C 354.033 324.888,352.648 326.558,351.403 327.817 C 350.742 328.486,349.124 330.286,347.808 331.817 C 344.727 335.403,335.403 344.727,331.817 347.808 C 330.286 349.124,328.486 350.742,327.817 351.403 C 326.558 352.648,324.888 354.033,323.025 355.375 C 322.433 355.801,321.556 356.496,321.075 356.918 C 320.594 357.341,319.030 358.512,317.600 359.522 C 315.234 361.193,313.406 362.555,312.117 363.606 C 311.851 363.823,311.461 364.000,311.250 364.000 C 311.039 364.000,310.807 364.135,310.733 364.300 C 310.549 364.715,307.303 366.800,306.842 366.800 C 306.636 366.800,306.407 366.935,306.333 367.100 C 306.190 367.421,302.951 369.600,302.616 369.600 C 302.506 369.600,301.431 370.230,300.227 371.000 C 299.023 371.770,297.943 372.400,297.827 372.400 C 297.711 372.400,296.667 372.996,295.508 373.725 C 292.822 375.413,281.811 380.800,281.045 380.800 C 280.727 380.800,280.407 380.945,280.333 381.122 C 280.260 381.299,278.940 381.950,277.400 382.568 C 272.577 384.506,270.410 385.418,269.105 386.059 C 268.723 386.246,267.958 386.400,267.405 386.400 C 266.852 386.400,266.400 386.580,266.400 386.800 C 266.400 387.020,265.971 387.200,265.446 387.200 C 264.921 387.200,263.976 387.469,263.346 387.798 C 262.716 388.126,261.896 388.396,261.524 388.398 C 261.152 388.399,260.736 388.580,260.600 388.800 C 260.464 389.020,259.834 389.200,259.200 389.200 C 258.566 389.200,257.936 389.380,257.800 389.600 C 257.664 389.820,257.111 390.000,256.571 390.000 C 256.031 390.000,255.277 390.169,254.895 390.377 C 254.513 390.584,253.120 391.044,251.800 391.398 C 250.480 391.753,248.847 392.214,248.172 392.422 C 247.496 392.630,246.407 392.800,245.752 392.800 C 245.096 392.800,244.389 392.960,244.180 393.156 C 243.722 393.584,238.243 394.695,232.200 395.585 C 230.880 395.780,227.910 396.219,225.600 396.561 C 211.279 398.682,189.328 398.683,174.600 396.565 C 172.180 396.217,169.210 395.841,168.000 395.731 C 166.790 395.620,165.629 395.365,165.420 395.165 C 165.211 394.964,164.379 394.800,163.571 394.800 C 162.763 394.800,160.684 394.420,158.951 393.955 C 157.218 393.491,155.080 393.022,154.200 392.914 C 153.320 392.806,152.429 392.556,152.220 392.359 C 152.011 392.162,151.415 392.000,150.895 392.000 C 149.876 392.000,146.238 390.976,145.105 390.371 C 144.723 390.167,143.969 390.000,143.429 390.000 C 142.889 390.000,142.336 389.820,142.200 389.600 C 142.064 389.380,141.434 389.200,140.800 389.200 C 140.166 389.200,139.536 389.020,139.400 388.800 C 139.264 388.580,138.848 388.399,138.476 388.398 C 138.104 388.396,137.284 388.126,136.654 387.798 C 136.024 387.469,135.180 387.200,134.778 387.200 C 134.376 387.200,133.936 387.020,133.800 386.800 C 133.664 386.580,133.147 386.400,132.651 386.400 C 132.155 386.400,130.817 385.950,129.677 385.400 C 128.537 384.850,127.333 384.400,127.002 384.400 C 126.671 384.400,126.400 384.220,126.400 384.000 C 126.400 383.780,126.038 383.600,125.595 383.600 C 125.152 383.600,124.477 383.449,124.095 383.265 C 122.790 382.635,119.002 380.899,117.600 380.288 C 114.121 378.772,112.090 377.780,110.708 376.924 C 109.887 376.416,108.957 376.000,108.641 376.000 C 108.325 376.000,108.007 375.865,107.933 375.700 C 107.860 375.535,107.080 375.027,106.200 374.571 C 103.236 373.034,99.807 371.092,98.738 370.343 C 98.154 369.935,97.541 369.600,97.376 369.600 C 97.211 369.600,96.486 369.150,95.764 368.600 C 95.043 368.050,94.261 367.600,94.027 367.600 C 93.792 367.600,93.600 367.420,93.600 367.200 C 93.600 366.980,93.414 366.800,93.187 366.800 C 92.737 366.800,81.370 358.951,79.357 357.250 C 77.872 355.995,77.100 355.387,74.992 353.807 C 74.116 353.151,72.677 351.891,71.793 351.007 C 70.909 350.123,68.839 348.231,67.193 346.803 C 63.305 343.429,56.469 336.597,53.190 332.807 C 51.765 331.161,49.880 329.088,49.000 328.201 C 48.120 327.314,46.867 325.871,46.214 324.994 C 45.562 324.117,44.842 323.207,44.614 322.971 C 44.387 322.735,43.750 321.881,43.200 321.074 C 42.650 320.266,42.065 319.604,41.900 319.603 C 41.735 319.601,41.600 319.345,41.600 319.033 C 41.600 318.722,41.445 318.407,41.257 318.333 C 40.754 318.138,33.200 307.365,33.200 306.843 C 33.200 306.599,33.020 306.400,32.800 306.400 C 32.580 306.400,32.400 306.208,32.400 305.973 C 32.400 305.739,31.950 304.957,31.400 304.236 C 30.850 303.514,30.400 302.789,30.400 302.624 C 30.400 302.459,30.065 301.846,29.657 301.262 C 28.821 300.068,27.477 297.648,24.403 291.800 C 21.524 286.322,21.410 286.096,20.275 283.600 C 19.725 282.390,18.628 280.007,17.838 278.305 C 17.047 276.603,16.400 274.948,16.400 274.628 C 16.400 274.309,16.220 273.936,16.000 273.800 C 15.780 273.664,15.600 273.113,15.600 272.576 C 15.600 272.039,15.457 271.600,15.283 271.600 C 15.108 271.600,14.640 270.565,14.243 269.300 C 13.845 268.035,13.358 266.687,13.160 266.305 C 12.962 265.923,12.800 265.259,12.800 264.829 C 12.800 264.399,12.620 263.936,12.400 263.800 C 12.180 263.664,12.000 263.148,12.000 262.653 C 12.000 262.158,11.736 261.404,11.413 260.976 C 11.090 260.549,10.820 259.716,10.813 259.124 C 10.806 258.532,10.620 257.936,10.400 257.800 C 10.180 257.664,10.000 256.933,10.000 256.176 C 10.000 255.419,9.820 254.800,9.600 254.800 C 9.380 254.800,9.194 254.305,9.186 253.700 C 9.178 253.095,8.914 252.150,8.600 251.600 C 8.286 251.050,8.022 250.026,8.014 249.324 C 8.006 248.622,7.820 247.936,7.600 247.800 C 7.380 247.664,7.200 246.841,7.200 245.971 C 7.200 245.101,7.039 244.077,6.843 243.695 C 6.031 242.116,4.491 233.623,3.635 226.000 C 3.449 224.350,3.100 221.380,2.859 219.400 C 1.242 206.134,1.242 193.866,2.859 180.600 C 3.100 178.620,3.449 175.650,3.635 174.000 C 4.308 168.005,5.414 161.341,5.986 159.838 C 6.214 159.238,6.400 158.230,6.400 157.598 C 6.400 156.965,6.580 156.336,6.800 156.200 C 7.020 156.064,7.200 155.164,7.200 154.200 C 7.200 153.236,7.380 152.336,7.600 152.200 C 7.820 152.064,8.000 151.444,8.000 150.822 C 8.000 150.200,8.269 149.176,8.598 148.546 C 8.926 147.916,9.196 147.006,9.198 146.524 C 9.199 146.042,9.380 145.536,9.600 145.400 C 9.820 145.264,10.000 144.621,10.000 143.971 C 10.000 143.321,10.156 142.477,10.346 142.095 C 10.908 140.968,11.676 138.683,11.891 137.500 C 12.001 136.895,12.250 136.400,12.445 136.400 C 12.640 136.400,12.800 135.871,12.800 135.224 C 12.800 134.577,12.980 133.936,13.200 133.800 C 13.420 133.664,13.600 133.203,13.600 132.774 C 13.600 132.346,14.050 131.063,14.600 129.923 C 15.150 128.783,15.600 127.524,15.600 127.125 C 15.600 126.726,15.780 126.400,16.000 126.400 C 16.220 126.400,16.400 126.057,16.400 125.637 C 16.400 125.217,16.871 123.912,17.448 122.737 C 18.024 121.562,18.635 120.240,18.805 119.800 C 19.774 117.296,21.805 113.105,24.427 108.200 C 25.368 106.440,26.529 104.243,27.006 103.317 C 27.484 102.391,28.057 101.401,28.280 101.117 C 28.502 100.833,29.226 99.610,29.887 98.400 C 30.549 97.190,31.745 95.210,32.545 94.000 C 35.214 89.964,40.448 82.409,40.927 81.901 C 41.187 81.626,41.930 80.680,42.579 79.800 C 43.227 78.920,43.858 78.110,43.981 78.000 C 44.104 77.890,44.739 77.080,45.392 76.200 C 46.527 74.670,48.076 72.854,49.800 71.031 C 50.240 70.566,51.950 68.664,53.600 66.804 C 57.424 62.494,62.494 57.424,66.804 53.600 C 68.664 51.950,70.566 50.240,71.031 49.800 C 72.854 48.076,74.670 46.527,76.200 45.392 C 77.080 44.739,77.890 44.104,78.000 43.981 C 78.110 43.858,78.920 43.227,79.800 42.579 C 80.680 41.930,81.626 41.187,81.901 40.927 C 82.409 40.448,89.964 35.214,94.000 32.545 C 95.210 31.745,97.190 30.549,98.400 29.887 C 99.610 29.226,100.833 28.502,101.117 28.280 C 101.401 28.057,102.391 27.484,103.317 27.006 C 104.243 26.529,106.440 25.368,108.200 24.427 C 112.416 22.173,113.731 21.514,116.600 20.215 C 117.920 19.618,119.313 18.965,119.695 18.764 C 120.077 18.564,120.662 18.400,120.995 18.400 C 121.328 18.400,121.600 18.234,121.600 18.032 C 121.600 17.829,122.138 17.545,122.795 17.401 C 123.453 17.257,124.094 16.972,124.219 16.769 C 124.345 16.566,124.887 16.400,125.424 16.400 C 125.961 16.400,126.400 16.220,126.400 16.000 C 126.400 15.780,126.726 15.600,127.125 15.600 C 127.524 15.600,128.783 15.150,129.923 14.600 C 131.063 14.050,132.346 13.600,132.774 13.600 C 133.203 13.600,133.664 13.420,133.800 13.200 C 133.936 12.980,134.577 12.800,135.224 12.800 C 135.871 12.800,136.400 12.620,136.400 12.400 C 136.400 12.180,136.816 12.000,137.324 12.000 C 137.831 12.000,138.596 11.736,139.024 11.413 C 139.451 11.090,140.284 10.820,140.876 10.813 C 141.468 10.806,142.064 10.620,142.200 10.400 C 142.336 10.180,143.056 10.000,143.800 10.000 C 144.544 10.000,145.264 9.820,145.400 9.600 C 145.536 9.380,146.042 9.199,146.524 9.198 C 147.006 9.196,147.916 8.926,148.546 8.598 C 149.176 8.269,150.200 8.000,150.822 8.000 C 151.444 8.000,152.064 7.820,152.200 7.600 C 152.336 7.380,153.236 7.200,154.200 7.200 C 155.164 7.200,156.064 7.020,156.200 6.800 C 156.336 6.580,156.965 6.400,157.598 6.400 C 158.230 6.400,159.238 6.214,159.838 5.986 C 161.509 5.350,168.595 4.216,174.448 3.647 C 176.344 3.463,178.112 3.178,178.377 3.014 C 178.787 2.761,193.289 1.801,198.800 1.663 C 199.790 1.638,205.232 1.871,210.894 2.182 M188.894 114.134 C 186.567 114.978,185.405 117.876,186.560 119.959 C 187.060 120.861,187.103 120.780,187.284 118.592 C 187.613 114.628,186.862 114.800,203.832 114.800 C 216.595 114.800,218.347 114.727,218.145 114.200 C 217.843 113.414,191.046 113.354,188.894 114.134 M186.434 161.518 C 185.764 163.136,186.001 201.473,186.688 202.600 C 187.076 203.236,187.178 198.989,187.188 181.900 C 187.195 170.075,187.132 160.400,187.049 160.400 C 186.965 160.400,186.689 160.903,186.434 161.518 M186.439 242.860 C 185.691 245.005,185.840 277.769,186.600 278.400 C 187.132 278.841,187.200 276.780,187.200 260.249 C 187.200 249.992,187.128 241.600,187.039 241.600 C 186.951 241.600,186.681 242.167,186.439 242.860 " stroke="none" fill="#a3a5ac" fill-rule="evenodd"></path><path id="path4" d="M188.000 2.234 C 183.050 2.524,178.460 2.945,177.800 3.171 C 176.739 3.533,176.831 3.562,178.600 3.414 C 192.295 2.273,208.234 2.270,221.400 3.408 C 223.149 3.559,223.250 3.530,222.200 3.177 C 221.025 2.783,202.351 1.574,198.800 1.663 C 197.810 1.688,192.950 1.945,188.000 2.234 M170.800 4.000 C 170.050 4.485,171.345 4.493,174.000 4.020 L 175.800 3.700 173.600 3.656 C 172.390 3.632,171.130 3.787,170.800 4.000 M226.200 4.023 C 228.528 4.504,229.964 4.493,229.200 4.000 C 228.870 3.787,227.700 3.630,226.600 3.652 L 224.600 3.692 226.200 4.023 M165.600 4.800 C 165.270 5.013,164.370 5.204,163.600 5.225 C 162.100 5.264,158.550 6.288,159.669 6.358 C 160.038 6.381,161.208 6.217,162.269 5.994 C 163.331 5.770,165.460 5.335,167.000 5.026 C 169.640 4.497,169.697 4.464,168.000 4.439 C 167.010 4.424,165.930 4.587,165.600 4.800 M231.800 4.788 C 234.142 5.295,237.966 5.969,239.800 6.198 C 242.111 6.487,239.842 5.708,236.800 5.168 C 233.687 4.615,229.546 4.301,231.800 4.788 M156.200 6.800 C 155.916 7.260,156.564 7.260,158.000 6.800 C 158.955 6.494,158.943 6.478,157.724 6.440 C 157.022 6.418,156.336 6.580,156.200 6.800 M242.200 6.800 C 243.311 7.278,244.095 7.278,243.800 6.800 C 243.664 6.580,243.068 6.413,242.476 6.428 C 241.515 6.453,241.486 6.493,242.200 6.800 M152.200 7.600 C 152.064 7.820,151.444 8.000,150.822 8.000 C 150.200 8.000,149.176 8.285,148.546 8.634 C 147.195 9.381,147.310 9.365,152.600 8.061 C 155.473 7.353,155.629 7.269,154.124 7.236 C 153.202 7.216,152.336 7.380,152.200 7.600 M247.600 8.063 C 249.250 8.502,251.050 8.948,251.600 9.053 L 252.600 9.244 251.600 8.636 C 251.050 8.302,250.026 8.022,249.324 8.014 C 248.622 8.006,247.936 7.820,247.800 7.600 C 247.664 7.380,246.888 7.214,246.076 7.232 C 244.835 7.259,245.077 7.391,247.600 8.063 M145.400 9.600 C 145.108 10.073,145.499 10.073,146.600 9.600 C 147.371 9.269,147.369 9.255,146.524 9.228 C 146.042 9.213,145.536 9.380,145.400 9.600 M253.400 9.600 C 254.493 10.069,254.800 10.069,254.800 9.600 C 254.800 9.380,254.305 9.213,253.700 9.228 C 252.725 9.253,252.691 9.295,253.400 9.600 M142.200 10.400 C 142.064 10.620,141.468 10.806,140.876 10.813 C 140.284 10.820,139.440 11.112,139.000 11.463 L 138.200 12.100 139.000 11.880 C 143.256 10.712,144.922 10.059,143.724 10.031 C 143.022 10.014,142.336 10.180,142.200 10.400 M257.400 10.785 C 259.927 11.548,269.704 14.882,270.900 15.389 C 271.305 15.561,271.600 15.512,271.600 15.275 C 271.600 15.049,271.062 14.745,270.405 14.601 C 269.747 14.457,269.106 14.172,268.981 13.969 C 268.855 13.766,268.234 13.600,267.600 13.600 C 266.966 13.600,266.336 13.420,266.200 13.200 C 266.064 12.980,265.524 12.800,265.000 12.800 C 264.476 12.800,263.936 12.620,263.800 12.400 C 263.664 12.180,263.248 11.999,262.876 11.998 C 262.504 11.996,261.684 11.726,261.054 11.398 C 260.424 11.069,259.490 10.800,258.978 10.800 C 258.466 10.800,257.936 10.620,257.800 10.400 C 257.664 10.180,256.978 10.014,256.276 10.031 C 255.215 10.056,255.405 10.183,257.400 10.785 M136.400 12.400 C 136.400 12.901,136.824 12.901,137.600 12.400 C 138.085 12.086,138.028 12.011,137.300 12.006 C 136.805 12.003,136.400 12.180,136.400 12.400 M133.800 13.200 C 133.664 13.420,133.226 13.600,132.827 13.600 C 132.008 13.600,128.400 15.117,128.400 15.462 C 128.400 15.585,128.715 15.554,129.100 15.392 C 129.485 15.231,131.240 14.588,133.000 13.963 C 135.061 13.232,135.817 12.823,135.124 12.814 C 134.532 12.806,133.936 12.980,133.800 13.200 M126.400 16.000 C 126.400 16.220,125.961 16.400,125.424 16.400 C 124.887 16.400,124.345 16.566,124.219 16.769 C 124.094 16.972,123.453 17.257,122.795 17.401 C 122.138 17.545,121.600 17.829,121.600 18.032 C 121.600 18.491,121.825 18.494,122.705 18.047 C 123.087 17.852,123.850 17.517,124.400 17.301 C 127.367 16.138,128.209 15.651,127.300 15.626 C 126.805 15.612,126.400 15.780,126.400 16.000 M272.800 16.105 C 273.350 16.380,274.494 16.848,275.342 17.144 C 276.189 17.440,278.592 18.486,280.681 19.468 C 282.769 20.451,284.571 21.163,284.683 21.050 C 284.796 20.938,284.013 20.453,282.944 19.973 C 281.875 19.494,279.697 18.494,278.105 17.751 C 276.513 17.008,274.948 16.400,274.628 16.400 C 274.309 16.400,273.936 16.220,273.800 16.000 C 273.664 15.780,273.158 15.601,272.676 15.602 C 271.840 15.605,271.845 15.628,272.800 16.105 M119.600 18.795 C 119.270 18.987,118.136 19.537,117.079 20.017 C 116.023 20.498,115.236 20.970,115.332 21.065 C 115.428 21.161,116.832 20.613,118.453 19.848 C 120.074 19.082,121.130 18.454,120.800 18.452 C 120.470 18.449,119.930 18.604,119.600 18.795 M113.380 21.550 C 113.046 21.857,108.366 24.394,103.317 27.004 C 102.391 27.483,101.401 28.057,101.117 28.280 C 100.833 28.502,99.610 29.226,98.400 29.887 C 97.190 30.549,95.210 31.745,94.000 32.545 C 89.964 35.214,82.409 40.448,81.901 40.927 C 81.626 41.187,80.680 41.930,79.800 42.579 C 78.920 43.227,78.110 43.858,78.000 43.981 C 77.890 44.104,77.080 44.739,76.200 45.392 C 74.670 46.527,72.854 48.076,71.031 49.800 C 70.566 50.240,68.664 51.950,66.804 53.600 C 62.494 57.424,57.424 62.494,53.600 66.804 C 51.950 68.664,50.240 70.566,49.800 71.031 C 48.076 72.854,46.527 74.670,45.392 76.200 C 44.739 77.080,44.104 77.890,43.981 78.000 C 43.858 78.110,43.227 78.920,42.579 79.800 C 41.930 80.680,41.187 81.626,40.927 81.901 C 40.448 82.409,35.214 89.964,32.545 94.000 C 31.745 95.210,30.549 97.190,29.887 98.400 C 29.226 99.610,28.502 100.833,28.280 101.117 C 28.057 101.401,27.483 102.391,27.004 103.317 C 24.632 107.906,21.851 113.053,21.508 113.487 C 21.297 113.754,21.203 114.204,21.299 114.487 C 21.394 114.769,22.209 113.527,23.109 111.727 C 24.593 108.761,26.129 105.902,28.016 102.600 C 28.394 101.940,29.319 100.320,30.074 99.000 C 32.922 94.016,38.811 85.344,42.975 80.002 C 44.089 78.573,45.270 77.058,45.600 76.634 C 51.968 68.463,68.280 52.153,76.639 45.600 C 81.207 42.019,83.263 40.485,87.200 37.725 C 92.348 34.114,95.460 32.097,99.000 30.074 C 100.320 29.319,101.940 28.394,102.600 28.016 C 105.899 26.131,108.752 24.597,111.627 23.162 C 113.372 22.292,114.800 21.494,114.800 21.390 C 114.800 21.066,113.780 21.181,113.380 21.550 M285.233 21.365 C 285.325 21.456,286.660 22.196,288.200 23.009 C 297.530 27.932,301.200 30.029,306.575 33.504 C 315.277 39.130,324.460 46.124,330.788 51.947 C 333.092 54.066,335.960 56.700,337.162 57.800 C 339.409 59.855,342.510 63.078,345.629 66.600 C 346.603 67.700,348.418 69.680,349.662 71.000 C 356.689 78.454,369.527 97.076,374.618 107.200 C 375.237 108.429,375.807 109.159,375.911 108.854 C 376.014 108.553,375.941 108.193,375.749 108.054 C 375.557 107.914,375.027 107.080,374.571 106.200 C 373.034 103.236,371.092 99.807,370.343 98.738 C 369.935 98.154,369.600 97.541,369.600 97.376 C 369.600 97.211,369.150 96.486,368.600 95.764 C 368.050 95.043,367.600 94.261,367.600 94.027 C 367.600 93.792,367.420 93.600,367.200 93.600 C 366.980 93.600,366.800 93.409,366.800 93.176 C 366.800 92.731,359.030 81.501,357.239 79.357 C 355.964 77.831,355.340 77.038,353.807 74.992 C 353.151 74.116,351.891 72.677,351.007 71.793 C 350.123 70.909,348.231 68.839,346.803 67.193 C 343.429 63.305,336.597 56.469,332.807 53.190 C 331.161 51.765,329.088 49.880,328.201 49.000 C 327.314 48.120,325.871 46.867,324.994 46.214 C 324.117 45.562,323.207 44.842,322.971 44.614 C 322.735 44.387,321.881 43.750,321.074 43.200 C 320.266 42.650,319.604 42.065,319.603 41.900 C 319.601 41.735,319.345 41.600,319.033 41.600 C 318.722 41.600,318.407 41.445,318.333 41.257 C 318.138 40.754,307.365 33.200,306.843 33.200 C 306.599 33.200,306.400 33.020,306.400 32.800 C 306.400 32.580,306.208 32.400,305.973 32.400 C 305.739 32.400,304.957 31.950,304.236 31.400 C 303.514 30.850,302.789 30.400,302.624 30.400 C 302.459 30.400,301.846 30.065,301.262 29.657 C 300.134 28.867,297.910 27.624,292.400 24.705 C 290.530 23.715,288.320 22.521,287.488 22.052 C 286.179 21.315,284.741 20.876,285.233 21.365 M376.048 109.857 C 376.132 110.059,376.946 111.750,377.857 113.613 C 378.768 115.476,379.788 117.630,380.122 118.400 C 380.456 119.170,381.259 120.970,381.906 122.400 C 382.553 123.830,383.185 125.270,383.310 125.600 C 383.489 126.075,383.543 126.053,383.568 125.495 C 383.586 125.107,383.445 124.477,383.255 124.095 C 382.665 122.906,380.914 119.076,380.193 117.400 C 378.830 114.226,376.650 109.955,376.277 109.724 C 376.068 109.595,375.965 109.654,376.048 109.857 M217.991 113.984 C 218.395 114.738,219.042 114.775,235.305 114.962 C 254.996 115.189,258.004 115.370,259.745 116.432 C 260.435 116.853,261.534 117.198,262.187 117.199 C 263.510 117.200,266.677 118.270,267.600 119.028 C 267.930 119.299,268.848 119.788,269.639 120.114 C 270.431 120.441,271.631 121.248,272.306 121.908 C 272.981 122.568,273.866 123.354,274.273 123.654 C 275.555 124.600,278.000 127.716,278.000 128.402 C 278.000 128.764,278.450 129.483,279.000 130.000 C 279.550 130.517,280.000 131.347,280.000 131.846 C 280.000 132.345,280.156 132.849,280.347 132.968 C 280.539 133.086,280.818 133.951,280.968 134.891 C 281.118 135.831,281.544 137.050,281.916 137.600 C 282.300 138.168,282.740 139.982,282.935 141.800 C 283.460 146.693,283.710 196.450,283.211 196.949 C 282.985 197.175,282.800 198.004,282.800 198.791 C 282.800 199.578,282.518 200.625,282.173 201.117 C 281.829 201.609,281.310 202.467,281.021 203.024 C 280.082 204.835,277.122 207.662,275.385 208.406 C 274.452 208.806,273.568 209.329,273.420 209.567 C 273.273 209.805,272.663 210.000,272.065 210.000 C 270.910 210.000,269.200 210.980,269.200 211.642 C 269.200 212.324,271.278 214.000,272.123 214.000 C 274.040 214.000,280.800 219.458,280.800 221.005 C 280.800 221.299,281.223 222.047,281.739 222.669 C 283.305 224.555,283.388 226.082,283.377 252.800 C 283.365 280.306,283.122 285.195,281.646 287.618 C 281.182 288.378,280.802 289.396,280.801 289.880 C 280.800 290.880,278.027 296.400,277.527 296.400 C 277.347 296.400,277.200 296.638,277.200 296.929 C 277.200 297.443,273.068 302.000,272.601 302.000 C 272.216 302.000,269.824 303.762,269.480 304.300 C 269.304 304.575,268.849 304.800,268.469 304.800 C 268.089 304.800,267.423 305.037,266.989 305.326 C 265.535 306.296,261.906 307.600,260.647 307.606 C 259.961 307.609,258.590 307.919,257.600 308.294 C 255.209 309.201,190.905 309.592,189.234 308.710 C 187.433 307.760,187.263 306.359,187.230 292.149 C 187.201 279.138,186.940 276.555,185.840 278.335 C 185.713 278.541,185.877 278.932,186.204 279.204 C 186.710 279.623,186.800 281.698,186.800 292.915 C 186.800 307.693,186.962 308.760,189.330 309.585 C 192.840 310.809,256.619 309.935,258.601 308.636 C 259.135 308.286,260.301 308.000,261.191 308.000 C 262.082 308.000,263.123 307.845,263.505 307.654 C 265.820 306.503,268.722 305.200,268.973 305.200 C 269.134 305.200,270.034 304.570,270.974 303.800 C 271.914 303.030,272.844 302.399,273.041 302.398 C 273.507 302.395,277.200 298.570,277.200 298.091 C 277.200 297.889,277.654 297.201,278.208 296.562 C 279.464 295.116,281.497 291.016,281.860 289.199 C 282.010 288.449,282.372 287.377,282.664 286.818 C 282.956 286.258,283.196 284.711,283.198 283.380 C 283.199 281.980,283.411 280.749,283.700 280.460 C 284.090 280.070,284.200 274.075,284.200 253.200 C 284.200 232.326,284.090 226.330,283.700 225.940 C 283.425 225.665,283.200 225.131,283.200 224.753 C 283.200 221.513,275.697 213.600,272.625 213.600 C 271.702 213.600,270.000 212.412,270.000 211.768 C 270.000 211.148,271.223 210.400,272.235 210.400 C 274.586 210.400,280.125 206.241,281.599 203.368 C 281.929 202.726,282.340 202.095,282.514 201.968 C 282.687 201.840,282.929 201.030,283.052 200.168 C 283.176 199.305,283.538 198.015,283.857 197.299 C 284.655 195.513,284.504 144.368,283.700 144.100 C 283.361 143.987,283.200 143.000,283.200 141.043 C 283.200 139.121,283.003 137.893,282.613 137.376 C 282.290 136.949,282.019 136.150,282.011 135.600 C 282.003 135.050,281.638 134.011,281.199 133.290 C 280.759 132.570,280.400 131.656,280.400 131.260 C 280.400 130.864,279.950 130.117,279.400 129.600 C 278.850 129.083,278.400 128.310,278.400 127.881 C 278.400 126.443,272.106 120.458,269.200 119.132 C 267.770 118.480,266.061 117.652,265.403 117.293 C 264.744 116.934,263.232 116.508,262.042 116.346 C 260.853 116.185,259.771 115.877,259.638 115.661 C 259.248 115.030,254.043 114.765,236.320 114.474 C 223.814 114.269,219.514 114.075,219.140 113.700 C 218.305 112.864,217.499 113.063,217.991 113.984 M20.010 117.079 C 19.525 118.136,18.986 119.360,18.812 119.800 C 18.638 120.240,18.024 121.562,17.448 122.737 C 16.871 123.912,16.400 125.217,16.400 125.637 C 16.400 126.057,16.220 126.400,16.000 126.400 C 15.780 126.400,15.612 126.805,15.626 127.300 C 15.651 128.189,16.172 127.306,17.219 124.600 C 17.524 123.811,18.115 122.465,20.182 117.851 C 20.761 116.558,21.157 115.424,21.063 115.330 C 20.969 115.235,20.495 116.023,20.010 117.079 M186.121 120.500 C 186.791 122.317,186.801 158.356,186.132 160.500 C 185.604 162.195,186.028 162.534,186.736 160.981 C 187.973 158.265,187.245 119.200,185.957 119.200 C 185.783 119.200,185.857 119.785,186.121 120.500 M383.713 126.900 C 383.821 127.175,384.363 128.570,384.915 130.000 C 385.468 131.430,386.199 133.320,386.539 134.200 C 386.974 135.323,387.165 135.539,387.179 134.924 C 387.191 134.442,387.020 133.936,386.800 133.800 C 386.580 133.664,386.400 133.147,386.400 132.651 C 386.400 132.155,385.950 130.817,385.400 129.677 C 384.850 128.537,384.400 127.333,384.400 127.002 C 384.400 126.671,384.201 126.400,383.957 126.400 C 383.714 126.400,383.604 126.625,383.713 126.900 M14.419 130.251 C 13.968 131.269,13.600 132.428,13.600 132.827 C 13.600 133.226,13.420 133.664,13.200 133.800 C 12.980 133.936,12.806 134.532,12.814 135.124 C 12.823 135.817,13.232 135.061,13.963 133.000 C 14.588 131.240,15.231 129.485,15.392 129.100 C 16.064 127.496,15.170 128.553,14.419 130.251 M387.200 136.358 C 387.200 136.580,387.402 137.266,387.650 137.881 C 388.440 139.848,388.690 140.557,389.314 142.600 C 389.778 144.123,389.933 144.343,389.962 143.524 C 389.983 142.932,389.820 142.336,389.600 142.200 C 389.380 142.064,389.200 141.434,389.200 140.800 C 389.200 140.166,389.040 139.549,388.845 139.428 C 388.650 139.307,388.373 138.583,388.230 137.818 C 387.990 136.541,387.200 135.420,387.200 136.358 M12.006 137.300 C 12.011 138.028,12.086 138.085,12.400 137.600 C 12.901 136.824,12.901 136.400,12.400 136.400 C 12.180 136.400,12.003 136.805,12.006 137.300 M11.265 139.417 C 11.009 139.978,10.800 140.779,10.800 141.195 C 10.800 141.612,10.620 142.064,10.400 142.200 C 10.180 142.336,10.014 143.022,10.032 143.724 C 10.049 144.426,10.124 144.820,10.198 144.600 C 11.786 139.890,12.392 136.943,11.265 139.417 M390.000 144.900 C 390.000 145.044,390.284 146.205,390.632 147.480 C 390.980 148.756,391.565 150.970,391.932 152.400 C 392.385 154.161,392.644 154.690,392.736 154.040 C 392.810 153.512,392.688 152.702,392.463 152.240 C 392.238 151.778,391.968 150.860,391.862 150.200 C 391.432 147.525,390.000 143.449,390.000 144.900 M9.492 145.442 C 9.331 145.602,9.205 146.108,9.212 146.567 C 9.223 147.336,9.256 147.345,9.640 146.685 C 10.088 145.916,9.973 144.960,9.492 145.442 M219.214 146.774 C 218.672 147.787,218.642 193.532,219.183 194.955 C 219.970 197.025,221.016 197.200,232.596 197.200 C 242.442 197.200,243.348 197.141,244.800 196.400 C 245.662 195.960,246.799 195.600,247.326 195.600 C 247.967 195.600,248.965 194.880,250.342 193.424 L 252.400 191.248 252.400 171.745 L 252.400 152.243 251.490 150.822 C 250.990 150.040,250.385 149.040,250.147 148.600 C 249.909 148.160,249.374 147.736,248.957 147.657 C 248.541 147.578,247.878 147.173,247.484 146.757 C 246.361 145.569,219.850 145.585,219.214 146.774 M246.958 147.154 C 247.334 147.569,248.172 148.014,248.820 148.144 C 249.684 148.317,250.000 148.609,250.000 149.232 C 250.000 149.701,250.457 150.627,251.014 151.290 L 252.029 152.496 251.914 171.858 L 251.800 191.221 249.800 193.194 C 248.199 194.772,247.520 195.172,246.400 195.196 C 245.630 195.212,244.651 195.490,244.224 195.813 C 242.845 196.856,221.465 196.665,220.400 195.600 C 219.592 194.792,219.076 147.458,219.867 146.667 C 220.608 145.925,246.264 146.387,246.958 147.154 M8.496 148.709 C 8.223 149.287,8.000 150.253,8.000 150.856 C 8.000 151.459,7.820 152.064,7.600 152.200 C 7.380 152.336,7.215 153.202,7.233 154.124 C 7.266 155.780,7.273 155.772,7.825 153.400 C 8.132 152.080,8.596 150.324,8.856 149.498 C 9.419 147.711,9.196 147.224,8.496 148.709 M392.899 156.400 C 393.013 156.950,393.394 158.840,393.745 160.600 C 395.644 170.111,395.512 169.608,395.558 167.524 C 395.581 166.492,395.420 165.536,395.200 165.400 C 394.980 165.264,394.800 164.466,394.800 163.627 C 394.800 162.001,393.447 156.099,392.973 155.661 C 392.818 155.518,392.784 155.850,392.899 156.400 M6.667 156.267 C 6.520 156.413,6.416 157.088,6.436 157.767 L 6.472 159.000 6.859 157.656 C 7.245 156.313,7.169 155.764,6.667 156.267 M5.807 160.281 C 5.331 162.129,4.752 165.673,4.580 167.800 L 4.418 169.800 4.939 167.400 C 5.963 162.694,6.492 159.558,6.295 159.362 C 6.186 159.252,5.966 159.666,5.807 160.281 M395.767 171.800 C 398.190 189.121,398.190 210.879,395.767 228.200 C 395.610 229.323,395.639 230.058,395.834 229.877 C 396.740 229.031,398.185 210.665,398.185 200.000 C 398.185 189.335,396.740 170.969,395.834 170.123 C 395.639 169.942,395.610 170.677,395.767 171.800 M3.888 170.933 C 3.730 171.336,3.621 172.596,3.647 173.733 L 3.694 175.800 4.057 173.603 C 4.464 171.146,4.373 169.700,3.888 170.933 M3.087 177.800 C 1.469 184.920,1.539 217.232,3.183 222.200 C 3.531 223.249,3.560 223.148,3.420 221.400 C 2.287 207.343,2.204 189.154,3.237 181.325 C 3.689 177.898,3.591 175.586,3.087 177.800 M186.250 203.900 C 186.976 208.334,186.964 236.700,186.234 240.800 C 185.618 244.258,185.701 244.691,186.577 242.594 C 187.405 240.611,187.517 205.003,186.703 202.394 C 185.908 199.848,185.699 200.542,186.250 203.900 M3.652 226.600 C 3.630 227.700,3.787 228.870,4.000 229.200 C 4.493 229.964,4.504 228.528,4.023 226.200 L 3.692 224.600 3.652 226.600 M219.444 228.214 C 218.867 228.791,218.800 231.318,218.800 252.647 L 218.800 276.436 219.782 277.418 L 220.764 278.400 233.082 278.387 C 243.279 278.377,245.534 278.273,246.176 277.787 C 246.604 277.464,247.235 277.200,247.580 277.200 C 247.924 277.200,249.150 276.238,250.303 275.062 L 252.400 272.924 252.400 252.960 L 252.400 232.996 250.500 231.116 C 249.455 230.082,248.253 228.913,247.829 228.518 C 246.702 227.468,220.470 227.187,219.444 228.214 M249.090 230.644 L 251.800 233.288 251.800 252.956 L 251.800 272.623 250.197 274.292 C 249.315 275.209,247.932 276.236,247.124 276.574 C 246.316 276.912,245.542 277.371,245.404 277.594 C 244.822 278.536,221.560 278.102,220.526 277.130 L 219.600 276.261 219.600 252.397 C 219.600 239.272,219.720 228.413,219.867 228.267 C 220.013 228.120,226.039 228.000,233.257 228.000 L 246.380 228.000 249.090 230.644 M4.599 232.200 C 4.803 235.028,5.567 239.472,6.028 240.516 C 6.583 241.772,5.924 237.116,4.795 231.800 C 4.462 230.233,4.458 230.241,4.599 232.200 M394.871 233.800 C 394.581 235.340,394.163 237.590,393.944 238.800 C 393.725 240.010,393.365 241.693,393.145 242.539 C 392.777 243.955,392.963 245.228,393.352 243.957 C 393.961 241.969,394.802 237.573,394.801 236.380 C 394.800 235.599,394.992 234.768,395.227 234.533 C 395.462 234.298,395.597 233.407,395.527 232.553 C 395.412 231.152,395.348 231.274,394.871 233.800 M6.428 242.476 C 6.413 243.068,6.580 243.664,6.800 243.800 C 7.278 244.095,7.278 243.311,6.800 242.200 C 6.493 241.486,6.453 241.515,6.428 242.476 M7.232 246.076 C 7.214 246.888,7.380 247.664,7.600 247.800 C 7.820 247.936,8.006 248.622,8.014 249.324 C 8.022 250.026,8.302 251.050,8.636 251.600 L 9.244 252.600 9.053 251.600 C 8.371 248.030,7.262 244.667,7.232 246.076 M392.454 245.600 C 392.419 245.930,392.277 246.650,392.140 247.200 C 391.948 247.972,392.002 248.097,392.377 247.749 C 392.644 247.501,392.785 246.781,392.691 246.149 C 392.597 245.517,392.490 245.270,392.454 245.600 M391.284 250.248 C 391.000 251.322,390.579 252.798,390.347 253.530 C 390.116 254.261,390.029 254.962,390.154 255.087 C 390.279 255.212,390.461 255.064,390.558 254.757 C 391.612 251.429,392.055 249.583,391.939 248.998 C 391.863 248.612,391.568 249.175,391.284 250.248 M9.228 253.700 C 9.213 254.305,9.380 254.800,9.600 254.800 C 10.069 254.800,10.069 254.493,9.600 253.400 C 9.295 252.691,9.253 252.725,9.228 253.700 M10.031 256.276 C 10.014 256.978,10.180 257.664,10.400 257.800 C 10.620 257.936,10.806 258.532,10.813 259.124 C 10.820 259.716,11.112 260.560,11.463 261.000 L 12.100 261.800 11.880 261.000 C 10.712 256.744,10.059 255.078,10.031 256.276 M389.267 257.434 C 388.973 258.515,388.595 259.760,388.426 260.200 C 387.664 262.190,387.229 263.762,387.396 263.929 C 387.615 264.149,388.400 262.171,388.400 261.398 C 388.400 261.095,388.580 260.736,388.800 260.600 C 389.020 260.464,389.200 259.859,389.200 259.256 C 389.200 258.653,389.395 257.965,389.634 257.726 C 389.872 257.488,390.007 256.882,389.934 256.380 C 389.837 255.722,389.651 256.016,389.267 257.434 M12.000 262.710 C 12.000 263.173,12.180 263.664,12.400 263.800 C 12.620 263.936,12.800 264.399,12.800 264.829 C 12.800 265.259,12.962 265.923,13.160 266.305 C 13.358 266.687,13.845 268.035,14.243 269.300 C 14.640 270.565,15.128 271.600,15.326 271.600 C 15.524 271.600,15.552 271.285,15.389 270.900 C 15.225 270.515,14.478 268.407,13.727 266.215 C 12.259 261.926,12.000 261.401,12.000 262.710 M386.708 265.183 C 386.431 266.167,386.597 266.737,387.032 266.301 C 387.160 266.173,387.201 265.648,387.124 265.134 L 386.984 264.200 386.708 265.183 M384.641 270.870 C 381.677 278.722,375.369 292.144,372.511 296.681 C 371.790 297.825,371.200 298.856,371.200 298.972 C 371.200 300.708,354.898 323.609,350.109 328.600 C 349.054 329.700,346.572 332.394,344.595 334.586 C 340.140 339.524,339.524 340.140,334.586 344.595 C 332.394 346.572,329.700 349.054,328.600 350.109 C 323.576 354.930,300.705 371.200,298.953 371.200 C 298.827 371.200,298.220 371.559,297.605 371.997 C 296.297 372.928,284.409 379.007,281.200 380.385 C 279.990 380.905,276.210 382.463,272.800 383.848 C 269.390 385.232,267.007 386.373,267.505 386.383 C 268.003 386.392,268.723 386.246,269.105 386.059 C 270.410 385.418,272.577 384.506,277.400 382.568 C 278.940 381.950,280.260 381.299,280.333 381.122 C 280.407 380.945,280.727 380.800,281.045 380.800 C 281.811 380.800,292.822 375.413,295.508 373.725 C 296.667 372.996,297.711 372.400,297.827 372.400 C 297.943 372.400,299.023 371.770,300.227 371.000 C 301.431 370.230,302.506 369.600,302.616 369.600 C 302.951 369.600,306.190 367.421,306.333 367.100 C 306.407 366.935,306.636 366.800,306.842 366.800 C 307.303 366.800,310.549 364.715,310.733 364.300 C 310.807 364.135,311.039 364.000,311.250 364.000 C 311.461 364.000,311.851 363.823,312.117 363.606 C 313.406 362.555,315.234 361.193,317.600 359.522 C 319.030 358.512,320.594 357.341,321.075 356.918 C 321.556 356.496,322.433 355.801,323.025 355.375 C 324.888 354.033,326.558 352.648,327.817 351.403 C 328.486 350.742,330.286 349.124,331.817 347.808 C 333.348 346.493,337.034 342.983,340.008 340.008 C 342.983 337.034,346.493 333.348,347.808 331.817 C 349.124 330.286,350.742 328.486,351.403 327.817 C 352.648 326.558,354.033 324.888,355.375 323.025 C 355.801 322.433,356.496 321.556,356.918 321.075 C 357.341 320.594,358.512 319.030,359.522 317.600 C 361.193 315.234,362.555 313.406,363.606 312.117 C 363.823 311.851,364.000 311.461,364.000 311.250 C 364.000 311.039,364.135 310.807,364.300 310.733 C 364.715 310.549,366.800 307.303,366.800 306.842 C 366.800 306.636,366.935 306.407,367.100 306.333 C 367.421 306.190,369.600 302.951,369.600 302.616 C 369.600 302.506,370.230 301.431,371.000 300.227 C 371.770 299.023,372.400 297.943,372.400 297.827 C 372.400 297.711,372.996 296.667,373.723 295.508 C 374.451 294.348,376.170 291.060,377.543 288.200 C 378.916 285.340,380.210 282.687,380.420 282.305 C 380.629 281.923,380.800 281.353,380.800 281.039 C 380.800 280.724,380.945 280.407,381.122 280.333 C 381.299 280.260,381.950 278.940,382.568 277.400 C 384.508 272.573,385.293 270.685,385.997 269.153 C 386.262 268.576,386.416 267.798,386.339 267.423 C 386.263 267.048,385.498 268.599,384.641 270.870 M15.602 272.676 C 15.601 273.158,15.780 273.664,16.000 273.800 C 16.220 273.936,16.400 274.309,16.400 274.628 C 16.400 274.948,17.008 276.513,17.751 278.105 C 18.494 279.697,19.494 281.875,19.973 282.944 C 20.453 284.013,20.938 284.796,21.050 284.683 C 21.163 284.571,20.451 282.769,19.468 280.681 C 18.486 278.592,17.440 276.189,17.144 275.342 C 16.207 272.659,15.605 271.618,15.602 272.676 M21.200 285.653 C 21.200 285.976,21.358 286.411,21.550 286.620 C 21.743 286.829,22.936 288.980,24.202 291.400 C 27.380 297.475,28.787 300.019,29.657 301.262 C 30.065 301.846,30.400 302.459,30.400 302.624 C 30.400 302.789,30.850 303.514,31.400 304.236 C 31.950 304.957,32.400 305.739,32.400 305.973 C 32.400 306.208,32.580 306.400,32.800 306.400 C 33.020 306.400,33.200 306.599,33.200 306.843 C 33.200 307.365,40.754 318.138,41.257 318.333 C 41.445 318.407,41.600 318.722,41.600 319.033 C 41.600 319.345,41.735 319.601,41.900 319.603 C 42.065 319.604,42.650 320.266,43.200 321.074 C 43.750 321.881,44.387 322.735,44.614 322.971 C 44.842 323.207,45.562 324.117,46.214 324.994 C 46.867 325.871,48.120 327.314,49.000 328.201 C 49.880 329.088,51.765 331.161,53.190 332.807 C 56.469 336.597,63.305 343.429,67.193 346.803 C 68.839 348.231,70.909 350.123,71.793 351.007 C 72.677 351.891,74.116 353.151,74.992 353.807 C 77.100 355.387,77.872 355.995,79.357 357.250 C 81.370 358.951,92.737 366.800,93.187 366.800 C 93.414 366.800,93.600 366.980,93.600 367.200 C 93.600 367.420,93.792 367.600,94.027 367.600 C 94.261 367.600,95.043 368.050,95.764 368.600 C 96.486 369.150,97.211 369.600,97.376 369.600 C 97.541 369.600,98.154 369.935,98.738 370.343 C 99.807 371.092,103.236 373.034,106.200 374.571 C 107.080 375.027,107.914 375.557,108.054 375.749 C 108.193 375.941,108.553 376.013,108.854 375.910 C 109.154 375.807,108.140 375.069,106.600 374.270 C 95.409 368.466,78.743 356.944,71.000 349.658 C 69.680 348.416,67.700 346.603,66.600 345.629 C 63.078 342.510,59.855 339.409,57.800 337.162 C 56.700 335.960,54.066 333.092,51.946 330.788 C 45.041 323.286,36.338 311.511,30.694 302.035 C 27.878 297.307,26.625 295.052,23.009 288.200 C 21.333 285.026,21.200 284.838,21.200 285.653 M109.724 376.277 C 109.951 376.645,114.101 378.767,117.400 380.202 C 118.959 380.880,122.700 382.592,124.095 383.265 C 124.477 383.449,125.107 383.598,125.495 383.595 C 125.883 383.592,124.850 382.997,123.200 382.271 C 118.264 380.100,117.154 379.589,113.613 377.857 C 109.419 375.805,109.437 375.813,109.724 376.277 M126.400 384.000 C 126.400 384.220,126.671 384.400,127.002 384.400 C 127.333 384.400,128.537 384.850,129.677 385.400 C 130.817 385.950,132.121 386.392,132.575 386.383 C 133.029 386.373,131.880 385.743,130.023 384.983 C 126.186 383.412,126.400 383.470,126.400 384.000 M133.800 386.800 C 133.936 387.020,134.442 387.187,134.924 387.172 C 135.769 387.145,135.771 387.131,135.000 386.800 C 133.899 386.327,133.508 386.327,133.800 386.800 M265.000 386.800 C 264.291 387.105,264.325 387.147,265.300 387.172 C 265.905 387.187,266.400 387.020,266.400 386.800 C 266.400 386.331,266.093 386.331,265.000 386.800 M136.190 387.585 C 136.321 387.796,137.054 388.086,137.818 388.230 C 138.583 388.373,139.307 388.650,139.428 388.845 C 139.549 389.040,140.166 389.200,140.800 389.200 C 141.434 389.200,142.064 389.380,142.200 389.600 C 142.336 389.820,142.932 389.983,143.524 389.962 C 144.343 389.933,144.123 389.778,142.600 389.314 C 140.557 388.690,139.848 388.440,137.881 387.650 C 136.510 387.098,135.875 387.074,136.190 387.585 M262.200 387.696 C 261.540 387.922,260.640 388.250,260.200 388.424 C 259.760 388.599,259.130 388.830,258.800 388.939 C 258.470 389.048,258.684 389.151,259.276 389.168 C 259.868 389.186,260.451 389.040,260.572 388.845 C 260.693 388.650,261.417 388.373,262.182 388.230 C 262.946 388.086,263.679 387.796,263.810 387.585 C 264.092 387.128,263.801 387.148,262.200 387.696 M256.400 389.600 L 255.400 389.920 256.476 389.960 C 257.068 389.982,257.664 389.820,257.800 389.600 C 258.081 389.145,257.820 389.145,256.400 389.600 M145.020 390.345 C 145.502 390.782,148.568 391.630,150.400 391.833 L 151.800 391.988 150.600 391.574 C 149.147 391.072,145.263 390.000,144.900 390.000 C 144.757 390.000,144.811 390.155,145.020 390.345 M253.200 390.455 C 252.650 390.658,250.580 391.268,248.600 391.811 C 246.620 392.354,245.630 392.721,246.400 392.628 C 248.812 392.335,254.436 390.838,254.980 390.345 C 255.464 389.905,254.531 389.963,253.200 390.455 M152.200 392.400 C 152.336 392.620,153.022 392.782,153.724 392.760 C 154.943 392.722,154.955 392.706,154.000 392.400 C 152.564 391.940,151.916 391.940,152.200 392.400 M155.661 392.973 C 156.099 393.447,162.001 394.800,163.627 394.800 C 164.466 394.800,165.264 394.980,165.400 395.200 C 165.536 395.420,166.402 395.579,167.324 395.553 C 169.208 395.501,168.459 395.297,160.800 393.780 C 158.930 393.410,156.950 393.013,156.400 392.899 C 155.850 392.784,155.518 392.818,155.661 392.973 M242.400 393.189 C 241.850 393.368,240.050 393.739,238.400 394.015 C 233.879 394.769,230.375 395.642,232.800 395.410 C 236.393 395.066,243.681 393.622,244.180 393.156 C 244.646 392.720,243.792 392.735,242.400 393.189 M170.091 395.802 C 170.950 396.728,189.222 398.185,200.000 398.186 C 210.952 398.188,229.042 396.740,229.918 395.792 C 230.073 395.624,229.300 395.613,228.200 395.767 C 210.879 398.190,189.121 398.190,171.800 395.767 C 170.700 395.613,169.931 395.629,170.091 395.802 " stroke="none" fill="#a6b9b7" fill-rule="evenodd"></path></g></svg>