<?xml version="1.0"?>
<svg width="32" height="32" xmlns="http://www.w3.org/2000/svg" xmlns:svg="http://www.w3.org/2000/svg" xmlns:xlink="http://www.w3.org/1999/xlink">
 <g class="layer">
  <title>Layer 1</title>
  <use id="svg_9" transform="matrix(0.821495 0 0 0.877457 3.85982 1.90513)" x="-1.26" xlink:href="#svg_8" y="0"/>
 </g>
 <defs>
  <symbol enable-background="new 0 0 38.4 33.5" id="svg_8" version="1.1" viewBox="0 0 38.4 33.5" x="0px" xml:space="preserve" xmlns="http://www.w3.org/2000/svg" xmlns:xlink="http://www.w3.org/1999/xlink" y="0px">
   <style type="text/css">.st0{fill:#8247E5;}</style>
   <g>
    <path class="st0" d="m29,10.2c-0.7,-0.4 -1.6,-0.4 -2.4,0l-5.6,3.3l-3.8,2.1l-5.5,3.3c-0.7,0.4 -1.6,0.4 -2.4,0l-4.3,-2.6c-0.7,-0.4 -1.2,-1.2 -1.2,-2.1l0,-5c0,-0.8 0.4,-1.6 1.2,-2.1l4.3,-2.5c0.7,-0.4 1.6,-0.4 2.4,0l4.3,2.6c0.7,0.4 1.2,1.2 1.2,2.1l0,3.3l3.8,-2.2l0,-3.4c0,-0.8 -0.4,-1.6 -1.2,-2.1l-8,-4.7c-0.7,-0.4 -1.6,-0.4 -2.4,0l-8.2,4.8c-0.8,0.4 -1.2,1.2 -1.2,2l0,9.4c0,0.8 0.4,1.6 1.2,2.1l8.1,4.7c0.7,0.4 1.6,0.4 2.4,0l5.5,-3.2l3.8,-2.2l5.5,-3.2c0.7,-0.4 1.6,-0.4 2.4,0l4.3,2.5c0.7,0.4 1.2,1.2 1.2,2.1l0,5c0,0.8 -0.4,1.6 -1.2,2.1l-4.2,2.5c-0.7,0.4 -1.6,0.4 -2.4,0l-4.3,-2.5c-0.7,-0.4 -1.2,-1.2 -1.2,-2.1l0,-3.2l-3.8,2.2l0,3.3c0,0.8 0.4,1.6 1.2,2.1l8.1,4.7c0.7,0.4 1.6,0.4 2.4,0l8.1,-4.7c0.7,-0.4 1.2,-1.2 1.2,-2.1l0,-9.5c0,-0.8 -0.4,-1.6 -1.2,-2.1l-8.1,-4.7z"/>
   </g>
  </symbol>
 </defs>
</svg>