<svg xmlns="http://www.w3.org/2000/svg" xmlns:xlink="http://www.w3.org/1999/xlink" id="svg" version="1.1" viewBox="56.46 18.33 300.6 111.48"><g id="svgg"><path id="path0" d="M159.708 21.158 L 159.332 21.471 159.374 44.444 L 159.417 67.417 168.974 67.460 C 178.422 67.502,178.531 67.499,178.618 67.168 C 178.684 66.916,178.845 66.833,179.271 66.833 C 179.630 66.833,179.941 66.712,180.122 66.500 C 180.279 66.317,180.503 66.167,180.620 66.167 C 180.738 66.167,180.833 66.054,180.833 65.917 C 180.833 65.778,180.981 65.667,181.167 65.667 C 181.350 65.667,181.500 65.567,181.500 65.446 C 181.500 65.324,181.762 65.006,182.083 64.738 C 182.446 64.436,182.667 64.104,182.667 63.861 C 182.667 63.645,182.817 63.279,183.000 63.045 C 183.323 62.635,183.333 62.369,183.333 54.322 C 183.333 46.169,183.327 46.021,183.000 45.917 C 182.766 45.843,182.667 45.664,182.667 45.322 C 182.667 45.008,182.581 44.833,182.427 44.833 C 182.294 44.833,182.139 44.757,182.081 44.663 C 181.908 44.384,182.174 43.500,182.430 43.500 C 182.560 43.500,182.667 43.350,182.667 43.167 C 182.667 42.983,182.771 42.833,182.899 42.833 C 183.312 42.833,183.333 42.417,183.333 34.153 C 183.333 26.222,183.324 25.991,183.000 25.667 C 182.817 25.483,182.667 25.121,182.667 24.862 C 182.667 24.389,182.082 23.667,181.698 23.667 C 181.589 23.667,181.500 23.554,181.500 23.417 C 181.500 23.279,181.387 23.167,181.250 23.167 C 181.111 23.167,181.000 23.019,181.000 22.833 C 181.000 22.611,180.889 22.500,180.667 22.500 C 180.481 22.500,180.333 22.389,180.333 22.250 C 180.333 22.113,180.218 22.000,180.078 22.000 C 179.938 22.000,179.780 21.887,179.727 21.749 C 179.674 21.611,179.340 21.452,178.985 21.395 C 178.630 21.338,178.254 21.189,178.149 21.063 C 177.808 20.651,160.206 20.742,159.708 21.158 M189.273 21.083 C 189.220 21.221,189.062 21.333,188.922 21.333 C 188.782 21.333,188.667 21.456,188.667 21.607 C 188.667 21.757,188.535 21.976,188.375 22.093 C 187.884 22.452,187.841 65.703,188.331 66.366 C 188.516 66.616,188.667 66.934,188.667 67.073 C 188.667 67.498,189.045 67.510,200.667 67.463 L 211.917 67.417 211.961 63.134 L 212.006 58.851 211.378 58.676 C 210.991 58.569,208.298 58.502,204.375 58.501 L 198.000 58.500 198.000 40.029 L 198.000 21.558 197.614 21.196 C 197.110 20.722,189.451 20.619,189.273 21.083 M222.727 21.083 C 222.672 21.226,222.424 21.333,222.149 21.333 C 221.837 21.333,221.447 21.531,221.042 21.895 C 220.698 22.203,220.248 22.508,220.042 22.572 C 219.835 22.637,219.667 22.797,219.667 22.928 C 219.667 23.059,219.595 23.167,219.508 23.167 C 219.129 23.167,218.500 24.033,218.500 24.554 C 218.500 24.902,218.382 25.178,218.167 25.333 C 217.890 25.533,217.833 25.765,217.833 26.703 C 217.833 27.597,217.781 27.833,217.583 27.833 C 217.408 27.833,217.333 28.010,217.333 28.423 C 217.333 28.747,217.219 29.186,217.079 29.400 C 216.734 29.926,216.779 59.179,217.125 59.525 C 217.240 59.640,217.333 59.934,217.333 60.180 C 217.333 60.425,217.446 60.719,217.583 60.833 C 217.760 60.980,217.833 61.367,217.833 62.147 C 217.833 63.073,217.888 63.287,218.167 63.461 C 218.355 63.579,218.500 63.850,218.500 64.085 C 218.500 64.313,218.597 64.500,218.716 64.500 C 218.834 64.500,219.003 64.744,219.091 65.042 C 219.214 65.460,219.355 65.595,219.708 65.636 C 219.960 65.665,220.167 65.791,220.167 65.917 C 220.167 66.042,220.317 66.192,220.500 66.250 C 220.683 66.308,220.833 66.463,220.833 66.595 C 220.833 66.749,221.010 66.833,221.333 66.833 C 221.611 66.833,221.981 66.981,222.167 67.167 C 222.489 67.489,222.722 67.500,229.500 67.500 C 236.278 67.500,236.511 67.489,236.833 67.167 C 237.017 66.983,237.357 66.833,237.589 66.833 C 237.821 66.833,238.054 66.721,238.106 66.583 C 238.159 66.446,238.314 66.333,238.450 66.333 C 238.586 66.333,238.737 66.183,238.785 66.000 C 238.833 65.817,238.976 65.667,239.103 65.667 C 239.503 65.667,240.000 65.021,240.000 64.500 C 240.000 64.196,240.087 64.000,240.221 64.000 C 240.590 64.000,241.167 63.257,241.167 62.781 C 241.167 62.535,241.318 62.182,241.502 61.998 C 241.993 61.507,241.950 26.619,241.458 26.260 C 241.298 26.143,241.167 25.852,241.167 25.615 C 241.167 25.172,240.527 24.333,240.189 24.333 C 240.085 24.333,240.000 24.179,240.000 23.991 C 240.000 23.542,239.162 22.500,238.800 22.500 C 238.644 22.500,238.457 22.404,238.383 22.286 C 238.123 21.867,237.282 21.333,236.882 21.333 C 236.659 21.333,236.364 21.221,236.226 21.083 C 236.012 20.870,235.023 20.833,229.400 20.833 C 223.707 20.833,222.810 20.867,222.727 21.083 M251.940 21.083 C 251.880 21.240,251.625 21.333,251.255 21.333 C 250.889 21.333,250.541 21.459,250.333 21.667 C 250.150 21.850,249.923 22.000,249.828 22.000 C 249.734 22.000,249.613 22.113,249.560 22.250 C 249.508 22.387,249.358 22.500,249.227 22.500 C 249.096 22.500,248.940 22.631,248.879 22.792 C 248.818 22.952,248.520 23.303,248.217 23.572 C 247.914 23.841,247.667 24.200,247.667 24.369 C 247.667 24.539,247.554 24.720,247.417 24.773 C 247.263 24.832,247.167 25.085,247.167 25.426 C 247.167 25.784,247.062 26.042,246.875 26.147 C 246.450 26.385,246.332 61.705,246.755 62.172 C 246.898 62.330,247.060 62.749,247.116 63.104 C 247.172 63.459,247.318 63.810,247.442 63.883 C 247.566 63.957,247.667 64.082,247.667 64.162 C 247.667 64.345,249.646 66.333,249.829 66.333 C 249.903 66.333,250.008 66.446,250.060 66.583 C 250.120 66.740,250.375 66.833,250.745 66.833 C 251.135 66.833,251.333 66.911,251.333 67.064 C 251.333 67.659,265.630 67.760,265.785 67.167 C 265.855 66.900,266.012 66.833,266.574 66.833 C 267.172 66.833,267.347 66.747,267.762 66.250 C 268.029 65.929,268.342 65.667,268.457 65.667 C 268.572 65.667,268.667 65.595,268.667 65.508 C 268.667 65.301,269.468 64.500,269.674 64.500 C 269.762 64.500,269.833 64.237,269.833 63.917 C 269.833 63.531,269.912 63.333,270.064 63.333 C 270.349 63.333,270.495 62.821,270.498 61.809 C 270.499 61.277,270.578 61.006,270.750 60.940 C 270.964 60.858,271.000 60.200,271.000 56.433 L 271.000 52.021 270.308 51.261 L 269.615 50.500 266.219 50.500 L 262.822 50.500 262.244 51.078 C 261.927 51.396,261.667 51.813,261.667 52.006 C 261.667 52.199,261.554 52.470,261.417 52.607 C 261.216 52.808,261.167 53.371,261.167 55.485 L 261.167 58.113 260.742 58.307 C 260.075 58.611,257.242 58.557,256.744 58.231 L 256.333 57.962 256.333 44.328 L 256.333 30.695 257.570 30.579 C 258.250 30.516,259.337 30.517,259.986 30.582 L 261.167 30.700 261.167 33.152 C 261.167 35.049,261.222 35.676,261.411 35.926 C 261.546 36.104,261.658 36.391,261.661 36.564 C 261.678 37.541,262.205 37.667,266.271 37.667 L 270.026 37.667 270.513 37.179 L 271.000 36.692 271.000 32.263 C 271.000 28.437,270.966 27.833,270.750 27.833 C 270.554 27.833,270.500 27.605,270.500 26.776 C 270.500 25.930,270.433 25.658,270.167 25.417 C 269.983 25.251,269.833 24.915,269.833 24.671 C 269.833 24.114,269.011 23.167,268.527 23.167 C 268.278 23.167,268.167 23.064,268.167 22.833 C 268.167 22.611,268.056 22.500,267.833 22.500 C 267.650 22.500,267.500 22.393,267.500 22.262 C 267.500 21.902,266.682 21.333,266.165 21.333 C 265.913 21.333,265.614 21.221,265.500 21.083 C 265.322 20.869,264.353 20.833,258.664 20.833 C 252.926 20.833,252.023 20.867,251.940 21.083 M276.473 21.146 C 276.325 21.319,276.102 21.494,275.977 21.535 C 275.559 21.675,275.648 66.686,276.067 67.149 C 276.374 67.488,276.526 67.500,280.613 67.500 L 284.842 67.500 285.004 67.072 C 285.100 66.821,285.167 63.965,285.167 60.145 L 285.167 53.645 285.667 53.224 C 285.981 52.960,286.171 52.639,286.178 52.360 C 286.189 51.921,286.191 51.920,286.370 52.292 C 286.470 52.498,286.605 52.667,286.671 52.667 C 286.737 52.667,286.839 52.948,286.898 53.292 C 287.009 53.936,287.498 54.667,287.818 54.667 C 287.918 54.667,288.000 54.923,288.000 55.236 C 288.000 55.971,288.144 56.333,288.434 56.333 C 288.599 56.333,288.667 56.554,288.667 57.089 C 288.667 57.606,288.745 57.874,288.917 57.940 C 289.071 57.999,289.167 58.252,289.167 58.601 C 289.167 58.944,289.298 59.298,289.500 59.500 C 289.683 59.683,289.833 60.006,289.833 60.216 C 289.833 60.432,290.086 60.851,290.411 61.175 C 290.902 61.663,290.990 61.866,290.995 62.521 C 290.998 62.998,291.095 63.372,291.250 63.500 C 291.387 63.614,291.500 63.855,291.500 64.036 C 291.500 64.224,291.642 64.402,291.833 64.452 C 292.103 64.522,292.167 64.679,292.167 65.275 C 292.167 65.775,292.247 66.041,292.417 66.106 C 292.554 66.159,292.667 66.303,292.667 66.427 C 292.667 66.550,292.859 66.844,293.094 67.078 L 293.520 67.505 298.052 67.461 L 302.583 67.417 302.637 67.042 C 302.666 66.835,302.752 66.667,302.827 66.667 C 303.406 66.667,302.792 64.191,302.208 64.173 C 302.082 64.169,302.000 63.934,302.000 63.578 C 302.000 63.209,301.907 62.954,301.750 62.894 C 301.612 62.841,301.500 62.628,301.500 62.421 C 301.500 62.214,301.350 61.854,301.167 61.621 C 300.983 61.388,300.833 60.963,300.833 60.677 C 300.833 60.384,300.731 60.117,300.600 60.067 C 300.471 60.017,300.320 59.731,300.264 59.430 C 300.207 59.129,299.939 58.666,299.668 58.400 C 299.398 58.134,299.173 57.767,299.169 57.583 C 299.156 56.975,298.964 56.500,298.731 56.500 C 298.574 56.500,298.500 56.293,298.500 55.854 C 298.500 55.498,298.395 55.121,298.267 55.014 C 298.140 54.908,297.985 54.558,297.925 54.235 C 297.864 53.913,297.707 53.608,297.574 53.557 C 297.442 53.506,297.333 53.266,297.333 53.023 C 297.333 52.731,297.135 52.399,296.750 52.046 C 296.270 51.605,296.167 51.392,296.167 50.844 C 296.167 50.087,295.584 48.833,295.233 48.833 C 295.068 48.833,295.000 48.614,295.000 48.078 C 295.000 47.584,294.919 47.292,294.766 47.233 C 294.638 47.184,294.486 46.894,294.429 46.588 C 294.371 46.282,294.214 45.990,294.079 45.938 C 293.929 45.881,293.833 45.622,293.833 45.276 C 293.833 44.963,293.726 44.618,293.595 44.510 C 292.957 43.980,292.950 41.692,293.585 41.166 C 293.721 41.052,293.833 40.741,293.833 40.474 C 293.833 40.197,293.940 39.948,294.083 39.894 C 294.221 39.841,294.333 39.666,294.333 39.505 C 294.333 39.343,294.483 39.021,294.667 38.788 C 294.850 38.555,295.000 38.170,295.000 37.932 C 295.000 37.694,295.068 37.500,295.151 37.500 C 295.469 37.500,296.167 36.020,296.167 35.345 C 296.167 34.853,296.235 34.667,296.417 34.667 C 296.554 34.667,296.667 34.572,296.667 34.457 C 296.667 34.341,296.817 34.153,297.000 34.039 C 297.183 33.924,297.333 33.652,297.333 33.433 C 297.333 33.215,297.439 32.995,297.568 32.946 C 297.696 32.896,297.856 32.607,297.922 32.303 C 297.988 31.999,298.146 31.602,298.271 31.421 C 298.397 31.240,298.500 30.855,298.500 30.566 C 298.500 30.179,298.589 30.016,298.833 29.952 C 299.060 29.892,299.167 29.724,299.167 29.427 C 299.167 29.165,299.358 28.802,299.641 28.525 C 299.902 28.270,300.168 27.851,300.232 27.594 C 300.297 27.337,300.459 27.018,300.592 26.885 C 300.725 26.752,300.833 26.348,300.833 25.988 C 300.833 25.540,300.906 25.333,301.066 25.333 C 301.320 25.333,301.500 24.983,301.500 24.486 C 301.500 24.311,301.612 24.167,301.750 24.167 C 302.121 24.167,302.111 21.468,301.738 21.095 C 301.417 20.774,293.272 20.694,293.077 21.010 C 293.017 21.108,292.787 21.256,292.567 21.339 C 292.271 21.452,292.167 21.618,292.167 21.976 C 292.167 22.321,292.070 22.486,291.833 22.548 C 291.613 22.606,291.500 22.776,291.500 23.047 C 291.500 23.274,291.387 23.553,291.250 23.667 C 291.090 23.799,291.000 24.168,291.000 24.687 C 291.000 25.319,290.941 25.500,290.735 25.500 C 290.473 25.500,289.850 26.119,289.839 26.390 C 289.836 26.468,289.683 26.721,289.500 26.955 C 289.317 27.188,289.167 27.585,289.167 27.838 C 289.167 28.093,289.055 28.340,288.917 28.394 C 288.777 28.447,288.667 28.695,288.667 28.955 C 288.667 29.239,288.537 29.501,288.333 29.628 C 288.121 29.761,288.000 30.017,288.000 30.335 C 288.000 30.609,287.923 30.833,287.829 30.833 C 287.735 30.833,287.582 31.002,287.489 31.208 C 287.395 31.415,287.211 31.771,287.079 32.000 C 286.946 32.229,286.837 32.577,286.836 32.774 C 286.834 32.970,286.721 33.174,286.583 33.227 C 286.437 33.283,286.333 33.533,286.333 33.828 C 286.333 34.159,286.250 34.333,286.091 34.333 C 285.947 34.333,285.805 34.565,285.741 34.905 C 285.682 35.220,285.529 35.517,285.400 35.567 C 285.202 35.643,285.167 34.591,285.167 28.654 L 285.167 21.652 284.758 21.242 L 284.348 20.833 280.545 20.833 C 277.029 20.833,276.720 20.857,276.473 21.146 M231.760 30.520 L 232.500 30.706 232.500 44.436 C 232.500 55.988,232.464 58.167,232.270 58.167 C 232.144 58.167,231.946 58.281,231.829 58.421 C 231.656 58.631,231.230 58.668,229.434 58.630 L 227.250 58.583 227.207 44.554 C 227.167 31.295,227.181 30.521,227.457 30.448 C 228.061 30.291,231.047 30.340,231.760 30.520 M173.125 30.608 L 174.000 30.713 174.000 35.107 L 174.000 39.500 171.333 39.500 L 168.667 39.500 168.667 35.000 L 168.667 30.500 170.458 30.501 C 171.444 30.502,172.644 30.550,173.125 30.608 M105.792 33.113 C 105.631 33.156,105.500 33.296,105.500 33.425 C 105.500 34.095,104.794 34.167,98.198 34.167 C 89.546 34.167,89.636 34.145,89.407 36.281 C 89.326 37.036,89.194 37.456,88.978 37.640 C 88.476 38.071,88.496 55.481,89.000 56.121 C 89.325 56.534,89.333 56.797,89.333 66.689 C 89.333 76.611,89.326 76.841,89.000 77.167 C 88.675 77.492,88.667 77.722,88.667 86.349 C 88.667 94.945,88.676 95.210,89.000 95.621 C 89.324 96.033,89.333 96.297,89.333 104.871 C 89.333 113.445,89.324 113.710,89.000 114.121 C 88.549 114.695,88.469 128.833,88.917 128.833 C 89.054 128.833,89.167 128.930,89.167 129.049 C 89.167 129.826,89.867 129.855,107.167 129.797 C 124.003 129.741,125.333 129.687,125.333 129.060 C 125.333 128.890,125.627 128.833,126.500 128.833 C 127.410 128.833,127.667 128.780,127.667 128.591 C 127.667 128.446,127.900 128.305,128.244 128.240 C 128.562 128.181,128.908 128.027,129.014 127.899 C 129.121 127.771,129.376 127.667,129.581 127.667 C 129.787 127.667,130.146 127.517,130.379 127.333 C 130.612 127.150,130.884 127.000,130.985 127.000 C 131.085 127.000,131.167 126.888,131.167 126.750 C 131.167 126.612,131.282 126.500,131.422 126.500 C 131.562 126.500,131.719 126.390,131.771 126.256 C 131.822 126.122,132.007 125.967,132.182 125.912 C 132.357 125.856,132.500 125.712,132.500 125.590 C 132.500 125.469,132.690 125.322,132.922 125.263 C 133.160 125.204,133.432 124.959,133.544 124.704 C 133.653 124.454,133.838 124.190,133.955 124.117 C 134.071 124.043,134.167 123.875,134.167 123.742 C 134.167 123.609,134.279 123.500,134.417 123.500 C 134.554 123.500,134.667 123.431,134.667 123.346 C 134.667 123.261,134.933 122.843,135.259 122.416 C 135.696 121.843,135.878 121.413,135.951 120.778 C 136.028 120.105,136.158 119.818,136.546 119.466 C 136.990 119.063,137.053 118.884,137.128 117.799 C 137.182 117.025,137.295 116.535,137.439 116.450 C 137.783 116.249,137.778 87.300,137.434 87.014 C 137.306 86.908,137.154 86.566,137.095 86.254 C 137.033 85.923,136.786 85.516,136.502 85.277 C 136.234 85.052,135.966 84.672,135.906 84.434 C 135.846 84.195,135.693 84.000,135.565 84.000 C 135.438 84.000,135.333 83.850,135.333 83.667 C 135.333 83.483,135.239 83.333,135.123 83.333 C 135.008 83.333,134.820 83.183,134.705 83.000 C 134.591 82.817,134.420 82.667,134.325 82.667 C 134.137 82.667,134.015 82.580,133.224 81.888 L 132.699 81.428 133.042 81.131 C 133.230 80.967,133.448 80.833,133.526 80.833 C 133.603 80.833,133.667 80.721,133.667 80.583 C 133.667 80.429,133.823 80.333,134.077 80.333 C 134.318 80.333,134.562 80.195,134.667 80.000 C 134.765 79.817,134.955 79.667,135.089 79.667 C 135.223 79.667,135.333 79.517,135.333 79.333 C 135.333 79.150,135.410 79.000,135.504 79.000 C 135.597 79.000,135.764 78.794,135.875 78.542 C 135.986 78.290,136.172 78.023,136.288 77.950 C 136.405 77.877,136.500 77.708,136.500 77.575 C 136.500 77.442,136.604 77.333,136.731 77.333 C 136.981 77.333,137.161 76.840,137.164 76.143 C 137.166 75.901,137.279 75.659,137.417 75.606 C 137.776 75.469,137.798 46.761,137.439 46.550 C 137.294 46.465,137.181 45.971,137.126 45.179 C 137.071 44.384,136.955 43.878,136.802 43.763 C 136.670 43.664,136.513 43.452,136.453 43.292 C 136.393 43.131,136.266 43.000,136.172 43.000 C 136.077 43.000,136.000 42.786,136.000 42.525 C 136.000 41.932,135.684 41.000,135.484 41.000 C 135.401 41.000,135.333 40.813,135.333 40.583 C 135.333 40.324,135.239 40.167,135.083 40.167 C 134.946 40.167,134.833 40.047,134.833 39.901 C 134.833 39.755,134.683 39.596,134.500 39.548 C 134.317 39.500,134.167 39.355,134.167 39.225 C 134.167 39.096,134.061 38.949,133.932 38.899 C 133.802 38.850,133.655 38.642,133.603 38.438 C 133.517 38.095,132.335 37.167,131.985 37.167 C 131.902 37.167,131.833 37.017,131.833 36.833 C 131.833 36.611,131.722 36.500,131.500 36.500 C 131.315 36.500,131.167 36.389,131.167 36.250 C 131.167 36.112,131.052 36.000,130.911 36.000 C 130.771 36.000,130.613 35.887,130.560 35.749 C 130.507 35.611,130.173 35.452,129.818 35.395 C 129.463 35.338,129.087 35.189,128.983 35.063 C 128.878 34.936,128.679 34.833,128.540 34.833 C 128.401 34.833,128.203 34.719,128.101 34.580 C 127.999 34.440,127.507 34.262,127.006 34.182 C 126.506 34.103,126.068 33.955,126.034 33.853 C 125.994 33.732,125.368 33.667,124.244 33.667 C 122.772 33.667,122.492 33.624,122.353 33.375 C 122.196 33.093,106.771 32.849,105.792 33.113 M75.057 35.961 C 74.951 36.028,76.526 36.064,78.557 36.040 C 84.523 35.970,85.095 35.903,80.000 35.869 C 77.387 35.852,75.163 35.894,75.057 35.961 M174.000 53.531 C 174.000 58.873,174.228 58.500,170.971 58.500 L 168.667 58.500 168.667 53.917 L 168.667 49.333 171.333 49.333 L 174.000 49.333 174.000 53.531 M117.333 50.766 C 117.333 50.912,117.478 51.069,117.655 51.115 C 117.832 51.162,118.017 51.305,118.067 51.433 C 118.116 51.562,118.346 51.667,118.578 51.667 C 118.820 51.667,119.000 51.762,119.000 51.891 C 119.000 52.014,119.150 52.251,119.333 52.417 C 119.659 52.711,119.667 52.930,119.667 61.598 L 119.667 70.477 119.292 71.065 C 119.085 71.388,118.823 71.656,118.708 71.660 C 118.594 71.663,118.500 71.779,118.500 71.917 C 118.500 72.054,118.391 72.167,118.258 72.167 C 118.125 72.167,117.943 72.298,117.853 72.458 C 117.704 72.725,117.221 72.755,112.179 72.805 L 106.667 72.861 106.667 61.680 L 106.667 50.500 112.000 50.500 C 116.769 50.500,117.333 50.528,117.333 50.766 M75.019 57.292 C 75.004 57.580,75.086 57.662,75.375 57.647 C 75.641 57.634,75.668 57.606,75.469 57.554 C 75.314 57.513,75.154 57.353,75.113 57.198 C 75.060 56.999,75.033 57.026,75.019 57.292 M117.353 90.542 C 117.471 90.751,117.725 90.833,118.258 90.833 C 118.938 90.833,119.000 90.868,119.000 91.249 C 119.000 91.483,119.145 91.754,119.333 91.872 C 119.660 92.076,119.667 92.261,119.667 101.250 C 119.667 110.239,119.660 110.424,119.333 110.628 C 119.150 110.742,119.000 110.948,119.000 111.085 C 119.000 111.221,118.888 111.333,118.750 111.333 C 118.612 111.333,118.500 111.435,118.500 111.558 C 118.500 111.876,116.403 112.000,111.058 112.000 L 106.667 112.000 106.667 101.077 L 106.667 90.153 111.929 90.202 C 116.737 90.246,117.204 90.275,117.353 90.542 M256.735 94.000 C 256.735 95.513,256.760 96.131,256.791 95.375 C 256.822 94.619,256.822 93.381,256.791 92.625 C 256.760 91.869,256.735 92.487,256.735 94.000 M264.750 96.833 C 264.683 96.941,265.446 97.000,266.917 97.000 C 268.387 97.000,269.150 96.941,269.083 96.833 C 269.024 96.737,268.113 96.667,266.917 96.667 C 265.721 96.667,264.810 96.737,264.750 96.833 M248.503 109.914 C 248.383 110.057,248.334 110.223,248.393 110.282 C 248.452 110.341,248.500 110.314,248.500 110.223 C 248.500 110.132,248.647 110.063,248.827 110.070 C 249.199 110.085,249.304 109.775,248.952 109.701 C 248.824 109.674,248.622 109.770,248.503 109.914 M250.708 109.791 C 251.419 109.822,252.581 109.822,253.292 109.791 C 254.002 109.759,253.421 109.734,252.000 109.734 C 250.579 109.734,249.998 109.759,250.708 109.791 M256.500 111.689 C 256.500 111.829,256.552 111.996,256.615 112.059 C 256.678 112.122,256.709 112.941,256.684 113.879 C 256.659 114.816,256.678 115.544,256.726 115.496 C 256.916 115.306,256.888 111.821,256.694 111.628 C 256.546 111.480,256.500 111.494,256.500 111.689 M327.803 124.742 C 327.749 125.198,327.780 125.280,327.951 125.138 C 328.194 124.937,328.247 124.167,328.018 124.167 C 327.937 124.167,327.840 124.425,327.803 124.742 " stroke="none" fill="#44cd6c" fill-rule="evenodd"/><path id="path1" d="M58.864 18.450 C 58.267 18.529,57.667 19.013,57.667 19.417 C 57.667 19.554,57.547 19.667,57.402 19.667 C 57.256 19.667,56.996 19.835,56.824 20.042 C 56.425 20.520,56.310 112.396,56.708 112.824 C 56.876 113.005,56.873 113.024,56.692 112.921 C 56.322 112.711,56.763 113.421,57.231 113.788 C 57.450 113.961,57.658 114.248,57.692 114.426 C 57.753 114.744,58.052 114.751,73.169 114.785 L 88.583 114.821 88.958 114.232 L 89.333 113.644 89.333 104.874 L 89.333 96.104 88.958 95.553 C 88.537 94.934,88.177 94.842,88.051 95.322 C 88.005 95.499,87.862 95.684,87.734 95.733 C 87.605 95.783,87.500 96.003,87.500 96.223 C 87.500 96.650,86.697 96.882,85.349 96.845 C 85.036 96.836,84.608 96.943,84.396 97.081 C 84.077 97.291,83.244 97.333,79.485 97.333 L 74.958 97.333 75.063 96.813 C 75.120 96.526,75.167 91.653,75.167 85.984 L 75.167 75.676 80.208 75.630 C 86.841 75.569,86.764 75.563,86.973 76.160 C 87.064 76.421,87.296 76.685,87.488 76.746 C 87.680 76.807,87.951 77.077,88.089 77.345 C 88.335 77.819,88.667 78.004,88.667 77.667 C 88.667 77.575,88.817 77.350,89.000 77.167 C 89.460 76.707,89.530 56.854,89.074 56.204 C 88.611 55.543,87.500 55.879,87.500 56.679 C 87.500 56.885,87.385 57.000,87.179 57.000 C 87.002 57.000,86.745 57.112,86.608 57.249 C 86.399 57.458,85.460 57.505,80.721 57.541 L 75.083 57.583 75.126 46.875 C 75.160 38.376,75.125 36.166,74.959 36.164 C 74.819 36.162,74.832 36.109,75.000 36.000 C 75.611 35.605,86.333 35.848,86.333 36.256 C 86.333 36.370,86.524 36.512,86.757 36.570 C 86.990 36.629,87.135 36.749,87.080 36.838 C 87.025 36.927,87.097 37.000,87.240 37.000 C 87.383 37.000,87.500 37.120,87.500 37.266 C 87.500 37.412,87.650 37.570,87.833 37.618 C 88.017 37.666,88.167 37.809,88.167 37.936 C 88.167 38.995,89.277 37.495,89.410 36.257 C 89.636 34.149,89.561 34.167,98.198 34.167 C 104.817 34.167,105.500 34.096,105.500 33.412 C 105.500 33.277,105.612 33.167,105.750 33.167 C 105.925 33.167,106.000 32.991,106.000 32.583 C 106.000 32.176,105.925 32.000,105.750 32.000 C 105.550 32.000,105.500 31.751,105.500 30.762 C 105.500 29.956,105.423 29.447,105.279 29.303 C 105.157 29.181,105.007 28.825,104.944 28.510 C 104.881 28.196,104.712 27.809,104.569 27.651 C 104.425 27.492,104.285 27.225,104.257 27.056 C 104.229 26.888,104.131 26.766,104.040 26.785 C 103.948 26.804,103.826 26.523,103.768 26.160 C 103.700 25.734,103.575 25.500,103.415 25.500 C 103.278 25.500,103.167 25.385,103.167 25.245 C 103.167 25.104,103.061 24.949,102.932 24.899 C 102.802 24.850,102.652 24.630,102.597 24.412 C 102.487 23.975,101.807 23.167,101.548 23.167 C 101.459 23.167,101.249 23.017,101.083 22.833 C 100.917 22.650,100.697 22.500,100.594 22.500 C 100.491 22.500,100.321 22.274,100.217 21.999 C 100.079 21.631,99.887 21.469,99.500 21.392 C 99.209 21.333,98.938 21.200,98.898 21.095 C 98.858 20.990,98.658 20.891,98.454 20.877 C 98.250 20.862,97.980 20.696,97.855 20.508 C 97.729 20.320,97.457 20.167,97.250 20.167 C 97.043 20.167,96.788 20.062,96.682 19.935 C 96.576 19.807,96.160 19.654,95.758 19.593 C 95.356 19.533,94.937 19.375,94.827 19.242 C 94.716 19.109,94.388 19.000,94.096 19.000 C 93.805 19.000,93.484 18.917,93.383 18.816 C 93.053 18.486,61.170 18.149,58.864 18.450 M159.781 80.172 L 159.336 80.522 159.336 103.403 C 159.336 125.336,159.348 126.295,159.640 126.559 C 159.807 126.710,159.994 126.784,160.055 126.723 C 160.117 126.661,160.167 126.700,160.167 126.808 C 160.167 126.957,162.313 127.003,169.018 126.997 L 177.870 126.989 178.368 126.491 C 178.668 126.191,179.108 125.957,179.475 125.902 C 179.809 125.851,180.158 125.717,180.250 125.603 C 180.342 125.489,180.548 125.347,180.708 125.287 C 180.869 125.226,181.000 125.062,181.000 124.922 C 181.000 124.782,181.112 124.667,181.250 124.667 C 181.387 124.667,181.500 124.601,181.500 124.521 C 181.500 124.441,181.762 124.089,182.083 123.738 C 182.404 123.388,182.667 122.966,182.667 122.801 C 182.667 122.635,182.817 122.350,183.000 122.167 C 183.324 121.842,183.333 121.611,183.333 113.506 C 183.333 105.349,183.327 105.175,183.000 105.000 C 182.803 104.895,182.667 104.651,182.667 104.406 C 182.667 104.000,182.510 103.868,181.888 103.750 C 181.720 103.718,181.562 103.686,181.536 103.679 C 181.510 103.672,181.754 103.434,182.078 103.149 C 182.444 102.828,182.667 102.481,182.667 102.233 C 182.667 102.002,182.765 101.833,182.899 101.833 C 183.312 101.833,183.333 101.417,183.333 93.259 C 183.333 85.464,183.323 85.198,183.000 84.788 C 182.817 84.555,182.667 84.132,182.667 83.849 C 182.667 83.502,182.585 83.333,182.417 83.333 C 182.279 83.333,182.167 83.218,182.167 83.078 C 182.167 82.938,182.037 82.773,181.879 82.712 C 181.534 82.580,180.833 81.851,180.833 81.624 C 180.833 81.536,180.725 81.506,180.592 81.557 C 180.446 81.613,180.310 81.521,180.247 81.325 C 180.181 81.117,179.994 81.000,179.729 81.000 C 179.501 81.000,179.011 80.756,178.640 80.458 L 177.966 79.917 169.096 79.869 C 160.302 79.823,160.222 79.825,159.781 80.172 M193.750 80.178 C 193.383 80.371,193.000 80.635,192.898 80.765 C 192.797 80.894,192.590 81.000,192.440 81.000 C 192.290 81.000,192.167 81.112,192.167 81.250 C 192.167 81.415,192.001 81.500,191.678 81.500 C 191.336 81.500,191.157 81.600,191.083 81.833 C 191.025 82.017,190.866 82.167,190.729 82.167 C 190.592 82.167,190.518 82.228,190.565 82.304 C 190.668 82.471,190.068 83.012,189.931 82.875 C 189.877 82.822,189.833 83.165,189.833 83.639 C 189.833 84.315,189.776 84.500,189.568 84.500 C 188.999 84.500,188.678 85.189,188.672 86.425 C 188.669 87.136,188.584 87.682,188.458 87.808 C 188.344 87.923,188.244 88.069,188.236 88.133 C 188.228 88.197,188.170 88.364,188.107 88.504 C 187.813 89.160,188.072 118.619,188.375 118.954 C 188.596 119.198,188.667 119.567,188.667 120.471 C 188.667 121.129,188.737 121.667,188.822 121.667 C 188.908 121.667,189.025 121.817,189.083 122.000 C 189.142 122.183,189.334 122.333,189.511 122.333 C 189.781 122.333,189.833 122.453,189.833 123.075 C 189.833 123.805,190.352 124.667,190.791 124.667 C 190.885 124.667,191.000 124.817,191.048 125.000 C 191.112 125.243,191.276 125.333,191.651 125.333 C 191.981 125.333,192.167 125.417,192.167 125.566 C 192.167 125.820,192.517 126.000,193.014 126.000 C 193.189 126.000,193.333 126.112,193.333 126.250 C 193.333 126.388,193.475 126.500,193.649 126.500 C 193.822 126.500,194.007 126.611,194.059 126.748 C 194.180 127.062,206.941 127.051,206.884 126.736 C 206.866 126.637,206.957 126.556,207.085 126.556 C 207.214 126.556,207.280 126.618,207.233 126.695 C 207.185 126.771,207.414 126.676,207.741 126.484 C 208.067 126.291,208.377 126.064,208.429 125.981 C 208.481 125.897,208.598 125.874,208.689 125.931 C 208.781 125.987,208.897 125.876,208.947 125.683 C 209.027 125.380,209.378 125.238,209.869 125.312 C 210.073 125.342,210.833 124.498,210.833 124.242 C 210.833 124.109,210.927 124.019,211.042 124.042 C 211.165 124.066,211.271 123.870,211.301 123.559 C 211.335 123.205,211.458 123.006,211.676 122.949 C 211.906 122.889,212.000 122.720,212.000 122.363 C 212.000 122.087,212.056 121.836,212.125 121.806 C 212.194 121.775,212.438 121.487,212.667 121.167 L 213.083 120.583 213.083 103.362 C 213.083 87.152,213.066 86.127,212.792 85.927 C 212.631 85.809,212.500 85.598,212.500 85.458 C 212.500 85.317,212.387 85.159,212.250 85.106 C 212.098 85.048,212.000 84.796,212.000 84.462 C 212.000 84.101,211.890 83.845,211.679 83.713 C 211.503 83.603,211.332 83.341,211.300 83.131 C 211.268 82.922,211.159 82.766,211.057 82.785 C 210.956 82.804,210.827 82.595,210.772 82.319 C 210.698 81.948,210.521 81.755,210.086 81.574 C 209.764 81.439,209.500 81.255,209.500 81.164 C 209.500 81.074,209.276 81.000,209.001 81.000 C 208.683 81.000,208.427 80.879,208.295 80.667 C 208.180 80.483,207.973 80.331,207.835 80.328 C 207.697 80.325,207.446 80.219,207.279 80.092 C 206.699 79.652,194.600 79.729,193.750 80.178 M223.431 80.093 C 223.282 80.242,223.030 80.385,222.872 80.410 C 222.713 80.435,222.594 80.578,222.606 80.728 C 222.624 80.934,222.482 81.000,222.022 81.000 C 221.594 81.000,221.352 81.099,221.205 81.333 C 221.091 81.517,220.848 81.667,220.665 81.667 C 220.483 81.667,220.333 81.738,220.333 81.826 C 220.333 82.036,219.452 82.922,219.292 82.872 C 219.223 82.851,219.179 82.890,219.194 82.958 C 219.245 83.196,218.841 84.000,218.671 84.000 C 218.577 84.000,218.500 84.275,218.500 84.612 C 218.500 84.961,218.375 85.362,218.208 85.546 C 217.934 85.849,217.917 86.938,217.917 103.417 C 217.917 119.895,217.934 120.985,218.208 121.287 C 218.375 121.471,218.500 121.873,218.500 122.221 C 218.500 122.654,218.573 122.833,218.750 122.833 C 218.887 122.833,219.000 122.976,219.000 123.151 C 219.000 123.524,219.964 124.667,220.279 124.667 C 220.399 124.667,220.591 124.817,220.705 125.000 C 220.820 125.183,221.008 125.333,221.123 125.333 C 221.239 125.333,221.333 125.445,221.333 125.581 C 221.333 125.742,221.569 125.867,222.000 125.936 C 222.367 125.995,222.667 126.108,222.667 126.188 C 222.667 126.268,222.762 126.333,222.880 126.333 C 222.997 126.333,223.221 126.483,223.378 126.667 C 223.654 126.989,223.870 127.000,230.011 127.000 L 236.359 127.000 236.839 126.520 C 237.159 126.200,237.565 126.003,238.059 125.929 C 238.601 125.848,238.821 125.730,238.885 125.488 C 238.932 125.306,239.072 125.178,239.194 125.204 C 239.319 125.230,239.406 125.122,239.394 124.958 C 239.379 124.775,239.488 124.667,239.685 124.667 C 239.858 124.667,240.000 124.559,240.000 124.428 C 240.000 124.297,240.150 124.142,240.333 124.083 C 240.517 124.025,240.667 123.868,240.667 123.734 C 240.667 123.599,240.779 123.446,240.917 123.394 C 241.054 123.341,241.167 123.231,241.167 123.149 C 241.167 123.067,241.317 122.850,241.500 122.667 C 241.751 122.416,241.833 122.111,241.833 121.434 C 241.833 120.794,241.904 120.508,242.080 120.441 C 242.450 120.299,242.464 86.590,242.095 86.383 C 241.940 86.296,241.839 85.925,241.812 85.343 C 241.784 84.733,241.672 84.339,241.469 84.135 C 241.303 83.969,241.167 83.734,241.167 83.612 C 241.167 83.319,240.425 82.631,240.273 82.783 C 240.207 82.848,240.110 82.737,240.057 82.534 C 240.004 82.332,239.862 82.167,239.742 82.167 C 239.621 82.167,239.475 82.017,239.417 81.833 C 239.358 81.650,239.203 81.500,239.072 81.500 C 238.941 81.500,238.833 81.387,238.833 81.250 C 238.833 81.075,238.657 81.000,238.245 81.000 C 237.886 81.000,237.620 80.906,237.564 80.759 C 237.215 79.851,224.283 79.241,223.431 80.093 M252.898 80.084 C 252.725 80.215,252.445 80.325,252.276 80.328 C 252.107 80.331,251.930 80.483,251.882 80.667 C 251.816 80.917,251.654 81.000,251.231 81.000 C 250.840 81.000,250.667 81.077,250.667 81.250 C 250.667 81.391,250.518 81.500,250.325 81.500 C 249.960 81.500,248.835 82.605,248.834 82.965 C 248.833 83.305,248.131 84.165,247.948 84.051 C 247.856 83.995,247.832 84.030,247.894 84.129 C 247.955 84.229,247.928 84.358,247.833 84.417 C 247.739 84.475,247.709 84.600,247.767 84.694 C 247.825 84.788,247.714 85.080,247.520 85.342 C 247.107 85.901,246.948 103.382,247.353 103.786 C 247.455 103.888,247.625 104.147,247.731 104.361 C 247.849 104.597,248.103 104.771,248.379 104.803 C 248.635 104.832,248.833 104.959,248.833 105.091 C 248.833 105.221,249.040 105.376,249.292 105.436 C 249.544 105.497,249.849 105.624,249.971 105.720 C 250.092 105.816,250.823 105.928,251.596 105.968 C 252.656 106.024,253.000 106.099,253.000 106.276 C 253.000 106.405,253.131 106.559,253.292 106.618 C 253.452 106.677,253.628 106.792,253.683 106.874 C 253.796 107.041,254.197 107.135,254.875 107.154 C 255.157 107.162,255.333 107.259,255.333 107.406 C 255.333 107.567,255.595 107.680,256.125 107.749 C 256.560 107.806,257.116 107.960,257.359 108.093 C 257.602 108.225,258.128 108.333,258.527 108.333 C 259.048 108.333,259.307 108.419,259.442 108.636 C 259.580 108.856,259.872 108.950,260.514 108.979 C 260.999 109.001,261.457 109.057,261.532 109.103 C 261.606 109.149,261.667 111.024,261.667 113.270 C 261.667 115.969,261.610 117.318,261.499 117.249 C 261.407 117.192,261.286 117.263,261.231 117.406 C 261.112 117.716,257.269 117.800,257.081 117.497 C 257.024 117.403,256.982 116.256,256.990 114.948 C 257.000 113.091,256.949 112.497,256.757 112.242 C 256.621 112.063,256.508 111.748,256.505 111.542 C 256.500 111.169,256.321 110.945,255.423 110.190 C 254.925 109.771,249.152 109.508,249.222 109.907 C 249.238 109.993,249.110 110.094,248.939 110.131 C 248.720 110.179,248.662 110.132,248.743 109.974 C 248.806 109.851,248.740 109.896,248.596 110.074 C 248.451 110.251,248.333 110.458,248.333 110.532 C 248.333 110.606,248.189 110.667,248.014 110.667 C 247.137 110.667,247.167 110.481,247.167 115.963 C 247.167 120.221,247.207 121.102,247.413 121.329 C 247.633 121.572,247.785 122.052,247.821 122.612 C 247.828 122.719,248.058 122.856,248.333 122.917 C 248.763 123.011,248.833 123.102,248.833 123.563 C 248.833 124.159,249.861 125.333,250.382 125.333 C 250.539 125.333,250.667 125.437,250.667 125.565 C 250.667 125.696,250.912 125.842,251.232 125.902 C 251.543 125.961,252.050 126.232,252.357 126.505 L 252.917 127.001 259.374 126.990 C 264.752 126.980,265.871 126.938,266.070 126.739 C 266.202 126.608,266.382 126.500,266.470 126.500 C 266.559 126.500,266.671 126.397,266.719 126.271 C 266.767 126.145,267.075 125.992,267.403 125.930 C 267.732 125.869,268.000 125.748,268.000 125.661 C 268.000 125.575,268.262 125.395,268.583 125.261 C 268.904 125.127,269.167 124.947,269.167 124.861 C 269.167 124.776,269.317 124.666,269.500 124.618 C 269.689 124.569,269.833 124.391,269.833 124.208 C 269.833 124.030,269.983 123.749,270.167 123.583 C 270.351 123.416,270.500 123.070,270.500 122.808 C 270.500 122.497,270.586 122.333,270.750 122.333 C 270.948 122.333,271.000 122.093,271.000 121.167 C 271.000 120.263,271.054 120.000,271.240 120.000 C 271.396 120.000,271.519 119.739,271.592 119.248 C 271.654 118.834,271.771 118.455,271.853 118.405 C 272.063 118.275,272.044 104.880,271.833 104.750 C 271.742 104.693,271.667 104.469,271.667 104.251 C 271.667 104.002,271.543 103.817,271.333 103.750 C 271.110 103.679,270.999 103.496,270.997 103.197 C 270.994 102.708,270.365 102.000,269.935 102.000 C 269.787 102.000,269.517 101.850,269.333 101.667 C 269.102 101.435,268.778 101.333,268.270 101.333 C 267.825 101.333,267.460 101.236,267.333 101.083 C 267.192 100.913,266.814 100.833,266.146 100.833 C 265.444 100.833,265.167 100.771,265.167 100.612 C 265.167 100.184,264.432 99.725,263.674 99.680 C 263.235 99.654,262.853 99.530,262.741 99.376 C 262.619 99.210,262.192 99.086,261.567 99.036 C 260.983 98.989,260.529 98.864,260.450 98.728 C 260.369 98.589,260.027 98.500,259.575 98.500 C 259.056 98.500,258.733 98.400,258.500 98.167 C 258.294 97.960,257.944 97.833,257.583 97.833 L 257.000 97.833 257.000 93.750 L 257.000 89.667 259.333 89.667 L 261.667 89.667 261.667 92.394 C 261.667 94.811,261.702 95.167,261.980 95.520 C 262.152 95.739,262.322 96.068,262.356 96.251 C 262.409 96.527,262.575 96.592,263.330 96.635 C 263.830 96.663,264.329 96.761,264.438 96.851 C 264.570 96.961,264.673 96.957,264.745 96.841 C 264.906 96.581,268.877 96.610,269.140 96.874 C 269.300 97.033,269.375 97.035,269.470 96.881 C 269.538 96.772,269.884 96.662,270.238 96.639 C 270.694 96.608,270.906 96.508,270.961 96.298 C 271.004 96.134,271.124 95.998,271.228 95.996 C 271.880 95.981,272.448 89.036,271.849 88.408 C 271.766 88.321,271.656 87.950,271.605 87.583 C 271.554 87.217,271.510 86.898,271.506 86.875 C 271.503 86.852,271.387 86.833,271.250 86.833 C 271.052 86.833,271.000 86.593,271.000 85.667 C 271.000 84.741,270.948 84.500,270.750 84.500 C 270.588 84.500,270.500 84.337,270.500 84.037 C 270.500 83.738,270.302 83.369,269.942 82.995 C 269.635 82.677,269.296 82.249,269.187 82.044 C 269.079 81.838,268.810 81.625,268.591 81.570 C 268.371 81.515,268.150 81.364,268.101 81.235 C 268.051 81.106,267.788 81.000,267.516 81.000 C 267.169 81.000,266.991 80.901,266.917 80.667 C 266.858 80.483,266.698 80.333,266.560 80.333 C 266.422 80.333,266.200 80.224,266.065 80.089 C 265.706 79.730,253.372 79.725,252.898 80.084 M276.045 80.122 C 275.883 80.284,275.637 80.417,275.500 80.417 C 275.286 80.417,275.245 80.985,275.217 84.400 L 275.184 88.382 275.577 88.691 C 275.793 88.861,276.024 89.000,276.090 89.000 C 276.157 89.000,276.336 89.144,276.489 89.320 C 276.642 89.497,276.875 89.635,277.008 89.627 C 277.141 89.620,278.356 89.626,279.708 89.640 L 282.167 89.667 282.167 107.394 C 282.167 124.316,282.181 125.140,282.472 125.519 C 282.639 125.738,282.825 126.048,282.883 126.208 C 282.942 126.369,283.095 126.500,283.224 126.500 C 283.354 126.500,283.553 126.612,283.667 126.750 C 284.028 127.186,291.274 127.116,291.414 126.675 C 291.471 126.497,291.616 126.388,291.736 126.434 C 292.143 126.590,292.167 125.536,292.167 107.521 L 292.167 89.583 295.042 89.613 C 298.444 89.647,298.734 89.563,299.296 88.375 C 299.501 87.939,299.669 87.457,299.668 87.302 C 299.667 87.146,299.742 86.973,299.833 86.917 C 299.932 86.856,300.000 85.835,300.000 84.417 C 300.000 82.998,299.932 81.978,299.833 81.917 C 299.742 81.860,299.667 81.672,299.667 81.498 C 299.667 81.325,299.573 81.123,299.458 81.050 C 299.344 80.977,299.135 80.692,298.994 80.417 L 298.737 79.917 287.539 79.872 C 277.014 79.830,276.322 79.845,276.045 80.122 M303.940 80.242 C 303.717 80.465,303.496 80.607,303.447 80.558 C 303.192 80.303,303.158 83.738,303.217 103.917 C 303.280 125.819,303.287 126.333,303.502 126.333 C 303.565 126.333,303.789 126.484,304.001 126.668 C 304.380 126.997,304.582 127.002,315.652 126.959 L 326.917 126.917 327.076 126.375 C 327.164 126.077,327.330 125.833,327.445 125.833 C 327.571 125.833,327.699 125.500,327.766 125.000 C 327.827 124.542,327.942 124.167,328.021 124.167 C 328.646 124.167,328.048 118.881,327.375 118.450 C 327.260 118.377,327.167 118.211,327.167 118.083 C 327.167 117.698,326.401 117.661,319.292 117.707 L 312.500 117.750 312.500 113.042 L 312.500 108.333 317.730 108.333 C 322.012 108.333,322.994 108.291,323.153 108.100 C 323.260 107.971,323.519 107.823,323.729 107.770 C 324.228 107.645,324.205 107.844,324.229 103.363 L 324.250 99.476 323.667 98.993 L 323.083 98.509 317.792 98.504 L 312.500 98.500 312.500 94.083 L 312.500 89.667 319.208 89.654 C 326.993 89.639,327.167 89.619,327.167 88.742 C 327.167 88.629,327.279 88.492,327.417 88.440 C 327.554 88.387,327.667 88.210,327.668 88.047 C 327.668 87.884,327.781 87.535,327.918 87.273 C 328.564 86.033,328.093 81.000,327.330 81.000 C 327.240 81.000,327.167 80.855,327.167 80.679 C 327.167 79.813,327.520 79.838,315.496 79.838 L 304.344 79.838 303.940 80.242 M333.432 80.184 L 333.000 80.524 333.002 103.304 C 333.004 121.336,333.049 126.170,333.216 126.500 L 333.427 126.917 342.277 126.954 L 351.128 126.992 351.813 126.496 C 352.189 126.223,352.642 126.000,352.820 126.000 C 352.998 126.000,353.243 125.900,353.364 125.778 C 353.486 125.657,353.810 125.445,354.085 125.309 C 354.359 125.173,354.565 124.972,354.542 124.864 C 354.519 124.755,354.650 124.667,354.833 124.667 C 355.017 124.667,355.167 124.571,355.167 124.454 C 355.167 124.337,355.407 123.980,355.701 123.662 C 355.995 123.344,356.259 122.933,356.287 122.750 C 356.316 122.567,356.488 122.213,356.670 121.965 C 357.191 121.252,357.189 85.542,356.667 84.879 C 356.483 84.646,356.333 84.280,356.333 84.067 C 356.333 83.849,356.187 83.600,356.000 83.500 C 355.817 83.402,355.667 83.249,355.667 83.161 C 355.667 82.948,354.952 82.238,354.792 82.292 C 354.723 82.315,354.666 82.202,354.666 82.042 C 354.664 81.678,353.724 81.099,353.606 81.388 C 353.562 81.496,353.520 81.452,353.513 81.292 C 353.504 81.095,353.364 81.000,353.085 81.000 C 352.850 81.000,352.579 80.855,352.461 80.667 C 352.347 80.483,352.116 80.333,351.948 80.333 C 351.780 80.333,351.529 80.220,351.390 80.081 C 350.937 79.627,334.016 79.725,333.432 80.184 M171.597 89.667 L 174.000 89.667 174.000 94.083 L 174.000 98.500 171.333 98.500 L 168.667 98.500 168.667 93.982 C 168.667 89.931,168.694 89.475,168.930 89.566 C 169.075 89.621,170.275 89.667,171.597 89.667 M203.542 89.638 C 203.998 89.744,203.993 116.842,203.537 117.332 C 203.267 117.621,200.844 117.777,198.208 117.675 C 198.043 117.668,198.000 114.753,198.000 103.678 L 198.000 89.689 198.458 89.611 C 199.003 89.519,203.122 89.541,203.542 89.638 M231.704 89.587 L 233.000 89.701 233.000 103.356 C 233.000 115.340,232.969 117.022,232.750 117.106 C 232.612 117.159,232.500 117.309,232.500 117.439 C 232.500 117.635,232.088 117.668,230.127 117.630 L 227.754 117.583 227.622 116.667 C 227.466 115.582,227.533 89.993,227.693 89.750 C 227.836 89.532,230.062 89.441,231.704 89.587 M345.265 89.667 L 347.669 89.667 347.626 103.458 C 347.592 114.385,347.540 117.241,347.375 117.208 C 347.260 117.185,347.167 117.279,347.167 117.417 C 347.167 117.627,346.787 117.667,344.750 117.667 L 342.333 117.667 342.333 103.566 C 342.333 90.776,342.358 89.474,342.597 89.566 C 342.742 89.621,343.942 89.667,345.265 89.667 M256.791 95.375 C 256.760 96.131,256.735 95.513,256.735 94.000 C 256.735 92.487,256.760 91.869,256.791 92.625 C 256.822 93.381,256.822 94.619,256.791 95.375 M174.000 112.667 C 174.000 118.097,174.258 117.667,171.000 117.667 L 168.667 117.667 168.667 113.000 L 168.667 108.333 171.333 108.333 L 174.000 108.333 174.000 112.667 M256.789 114.792 C 256.755 115.227,256.727 114.871,256.727 114.000 C 256.727 113.129,256.755 112.773,256.789 113.208 C 256.824 113.644,256.824 114.356,256.789 114.792 " stroke="none" fill="#c47be4" fill-rule="evenodd"/></g></svg>